<?xml version="1.0" encoding="UTF-8"?>
<svg id="_レイヤー_2" data-name="レイヤー 2" xmlns="http://www.w3.org/2000/svg" viewBox="0 0 386.8888889 321.5844727">
  <defs>
    <style>
      .cls-1 {
        fill: #231815;
      }

      .cls-1, .cls-2 {
        stroke-width: 0px;
      }

      .cls-3 {
        fill: #fff;
        stroke: #231815;
        stroke-width: .7184556px;
      }

      .cls-3, .cls-4 {
        stroke-miterlimit: 10;
      }

      .cls-4 {
        fill: none;
        stroke: #000;
        stroke-width: .2738667px;
      }
    </style>
  </defs>
  <g id="access">
    <g>
      <path class="cls-1" d="m2.6054145,6.7958984c-.6328125.6992188-1.2226562,1.2646484-1.7705078,1.6992188l-.1552734-.1699219c.6230469-.7080078,1.2744141-1.5996094,1.9541016-2.6757812.2548828-.3964844.4833984-.8212891.6865234-1.2744141s.3515625-.8681641.4462891-1.2460938c.8769531.4443359,1.3164062.7226562,1.3164062.8359375,0,.0371094-.0478516.0654297-.1416016.0839844l-.2695312.0429688c-.2636719.4433594-.6503906.9912109-1.1601562,1.6425781l.3681641.1552734c-.0380859.1230469-.1699219.2080078-.3964844.2548828v3.5400391c.0185547,1.1699219.0566406,2.2792969.1132812,3.3271484-.0761719.09375-.1943359.1835938-.3544922.2685547s-.3164062.1279297-.4667969.1279297c-.0849609,0-.1611328-.0283203-.2265625-.0849609-.0664062-.0566406-.0996094-.1230469-.0996094-.1982422.0380859-.5576172.0712891-1.0976562.0996094-1.6210938.0283203-.5244141.046875-1.2109375.0566406-2.0605469v-2.6474609ZM4.3036567.8066406c.3496094.1513672.5244141.2744141.5244141.3681641,0,.0380859-.0517578.0664062-.15625.0849609l-.2548828.0283203c-.4150391.5009766-.9414062,1.0244141-1.578125,1.5722656-.6376953.546875-1.2763672,1.0048828-1.9189453,1.3730469l-.1416016-.1845703c.3779297-.3300781.8164062-.7783203,1.3173828-1.3447266.3115234-.3681641.6035156-.7714844.8779297-1.2099609.2734375-.4394531.4667969-.8378906.5800781-1.1972656l.75.5097656Zm7.1220703,7.0234375c.0380859-.0478516.078125-.1044922.1201172-.1699219.0429688-.0664062.0878906-.1230469.1347656-.1699219.046875-.0478516.0898438-.0712891.1279297-.0712891.0566406,0,.1767578.0712891.3603516.2128906.1845703.1416016.3564453.2919922.5166016.453125.1611328.1601562.2412109.2734375.2412109.3388672-.0380859.1513672-.1611328.2265625-.3681641.2265625h-3.1152344v3.2148438c.5859375.1601562,1.3125.2402344,2.1806641.2402344.9248047,0,1.5625-.0048828,1.9111328-.0136719v.1982422c-.1503906.0273438-.2666016.1103516-.3466797.2470703s-.125.3046875-.1347656.5029297h-1.5283203c-.9160156,0-1.6875-.1113281-2.3154297-.3330078s-1.1611328-.6103516-1.5996094-1.1679688c-.4394531-.5566406-.7998047-1.3310547-1.0830078-2.3222656-.4912109,1.8691406-1.2841797,3.2568359-2.3789062,4.1630859l-.1552734-.15625c.7353516-.8779297,1.2685547-2.0859375,1.5996094-3.6240234.1503906-.6132812.2265625-1.3310547.2265625-2.1523438,0-.3115234-.0146484-.5800781-.0429688-.8066406.9814453.1699219,1.4726562.3115234,1.4726562.4248047,0,.0283203-.0380859.0654297-.1132812.1132812l-.2402344.1269531c-.0849609.5576172-.1748047,1.0429688-.2695312,1.4580078.2363281.6992188.5117188,1.2705078.828125,1.7138672s.6914062.7880859,1.1259766,1.0332031v-2.9453125c0-1.1884766-.0615234-2.15625-.1845703-2.9023438.5195312.1513672.8779297.2714844,1.0761719.3613281s.2978516.1679688.2978516.2333984c0,.0283203-.0380859.0712891-.1132812.1279297l-.2128906.1416016v1.7128906h1.6992188l.2832031-.4101562Zm.453125-3.0166016c.0380859-.046875.078125-.1035156.1201172-.1699219.0429688-.0654297.0878906-.1220703.1347656-.1699219.046875-.046875.0898438-.0703125.1279297-.0703125.0566406,0,.1767578.0703125.3603516.2119141.1845703.1416016.3564453.2958984.5166016.4609375.1611328.1650391.2412109.2802734.2412109.3466797-.0283203.1513672-.1464844.2265625-.3544922.2265625h-5.8896484c-.6699219.0097656-1.3779297.0751953-2.1240234.1982422l-.3681641-.7363281c.5195312.0566406,1.1474609.0947266,1.8837891.1132812h1.7978516v-2.1943359h-.9345703c-.5380859.0087891-1.1044922.0751953-1.6992188.1982422l-.3535156-.7363281c.5185547.0566406,1.1464844.09375,1.8828125.1132812h1.1044922c0-.859375-.0419922-1.5761719-.1269531-2.1523438.5.1513672.8486328.2714844,1.046875.3613281s.2978516.1621094.2978516.21875c0,.0478516-.0380859.0947266-.1132812.1416016l-.2128906.1416016v1.2890625h1.7841797l.2832031-.3964844c.0283203-.0380859.0732422-.0966797.1347656-.1777344.0615234-.0800781.1103516-.1386719.1484375-.1767578.0380859-.0371094.0751953-.0566406.1132812-.0566406.0566406,0,.1767578.0712891.3613281.2128906.1835938.1416016.3535156.2919922.5097656.453125.1552734.1601562.2333984.2734375.2333984.3398438-.0380859.1503906-.15625.2265625-.3535156.2265625h-3.2148438v2.1943359h2.3789062l.2832031-.4111328Z"/>
      <path class="cls-1" d="m24.3378364,2.1376953c.0478516-.0566406.0947266-.1181641.1416016-.1835938.0478516-.0664062.0947266-.125.1416016-.1767578s.0898438-.078125.1279297-.078125c.0566406,0,.1816406.0732422.375.2197266.1933594.1455078.375.3037109.5449219.4736328s.2548828.2880859.2548828.3544922c-.0283203.1503906-.1513672.2265625-.3681641.2265625h-3.8505859v1.9394531h3.8085938l.3115234-.4394531c.0371094-.046875.0869141-.1103516.1484375-.1904297s.1132812-.1416016.1552734-.1845703c.0429688-.0419922.0830078-.0634766.1210938-.0634766.0566406,0,.1855469.0751953.3886719.2265625s.3916016.3134766.5664062.4882812.2617188.2949219.2617188.3613281c-.0371094.1513672-.1601562.2265625-.3681641.2265625h-9.6982422c-.6699219.0097656-1.3779297.0751953-2.1240234.1982422l-.3681641-.7363281c.5097656.0566406,1.1240234.0947266,1.8408203.1132812h.8925781v-.5810547c0-1.1884766-.0615234-2.15625-.1845703-2.9023438.5195312.1513672.8779297.2714844,1.0761719.3613281s.296875.1679688.296875.2333984c0,.0283203-.0371094.0712891-.1132812.1279297l-.2265625.1416016v2.6191406h2.3085938v-1.65625c0-1.1894531-.0615234-2.1572266-.1845703-2.9033203.9628906.2646484,1.4443359.4628906,1.4443359.5947266,0,.0478516-.0380859.0947266-.1132812.1416016l-.2402344.15625v1.3164062h2.3359375l.296875-.4248047Zm-5.3662109,4.1484375c.359375.1513672.5380859.2695312.5380859.3544922,0,.046875-.0517578.0800781-.1552734.0986328l-.2548828.0283203c-.4248047.5947266-.9892578,1.1962891-1.6923828,1.8056641-.703125.6083984-1.4414062,1.1113281-2.2158203,1.5078125l-.1269531-.1845703c.5947266-.453125,1.1796875-1.0146484,1.7558594-1.6845703.3017578-.3583984.5800781-.7578125.8349609-1.1962891.2548828-.4394531.4394531-.8476562.5527344-1.2246094l.7636719.4951172Zm5.6357422,2.1943359c.3398438.1611328.5097656.2832031.5097656.3681641,0,.0566406-.0615234.0849609-.1845703.0849609l-.2832031.0146484c-.7929688.9912109-1.6396484,1.7841797-2.5410156,2.3789062s-1.8671875,1.0449219-2.8955078,1.3515625c-1.0292969.3066406-2.2275391.5449219-3.5966797.7148438l-.0566406-.2685547c1.3876953-.2832031,2.5917969-.6279297,3.6103516-1.0332031,1.0195312-.40625,1.9492188-.9628906,2.7900391-1.6708984.3583984-.2929688.7285156-.6865234,1.1113281-1.1826172.3818359-.4951172.6582031-.9228516.828125-1.28125l.7080078.5234375Zm-3.8085938-1.2451172c0-.8027344-.0380859-1.4345703-.1132812-1.8974609.8964844.2646484,1.3447266.4628906,1.3447266.5947266,0,.0380859-.0380859.0800781-.1132812.1269531l-.2119141.1279297v2.9160156c0,.2744141-.0332031.4960938-.0996094.6660156s-.2001953.3115234-.4033203.4248047-.5029297.1884766-.8994141.2265625c-.046875-.3212891-.1464844-.5380859-.296875-.6513672-.2080078-.1601562-.5761719-.2734375-1.1044922-.3398438v-.2128906c.90625.0664062,1.4443359.0996094,1.6142578.0996094.1035156,0,.1767578-.0185547.21875-.0566406.0429688-.0380859.0644531-.1083984.0644531-.2128906v-1.8115234Zm2.5908203-1.0908203c.8300781.2265625,1.5126953.4980469,2.0458984.8144531s.9179688.6347656,1.1542969.9560547c.2353516.3203125.3535156.6083984.3535156.8632812,0,.1416016-.0351562.2548828-.1064453.3398438-.0703125.0849609-.1669922.1269531-.2900391.1269531-.0849609,0-.1835938-.0283203-.296875-.0849609-.2265625-.4619141-.6328125-.9628906-1.2177734-1.5-.5859375-.5380859-1.1757812-.9912109-1.7705078-1.359375l.1279297-.15625Z"/>
      <path class="cls-1" d="m41.3417426,13.7763672c-.3300781-.2460938-.7314453-.6298828-1.203125-1.1542969-.4716797-.5234375-.9248047-1.2783203-1.359375-2.265625-.4335938-.9853516-.6513672-2.1308594-.6513672-3.4326172,0-1.3027344.2177734-2.4472656.6513672-3.4335938.4345703-.9863281.8876953-1.7412109,1.359375-2.265625.4716797-.5234375.8730469-.9082031,1.203125-1.1542969.0566406-.046875.1083984-.0703125.15625-.0703125.0283203,0,.0537109.0097656.078125.0283203.0234375.0185547.0351562.0419922.0351562.0703125,0,.0380859-.0332031.0996094-.0996094.1845703-.0283203.0380859-.2617188.3017578-.7001953.7929688-.4394531.4912109-.8525391,1.2832031-1.2392578,2.3789062-.3867188,1.0947266-.5800781,2.2509766-.5800781,3.46875s.1650391,2.2910156.4951172,3.2207031.6445312,1.6044922.9414062,2.0244141c.2978516.4199219.6582031.8847656,1.0830078,1.3945312.0664062.0849609.0996094.1464844.0996094.1845703,0,.0371094-.0146484.0634766-.0429688.078125-.0283203.0136719-.0517578.0205078-.0703125.0205078-.0478516,0-.0996094-.0234375-.15625-.0703125Z"/>
      <path class="cls-1" d="m54.2118598,8.6650391c.0380859-.046875.0869141-.1113281.1484375-.1914062s.1113281-.1386719.1494141-.1767578c.0371094-.0380859.0751953-.0566406.1132812-.0566406.0566406,0,.1816406.0732422.375.2197266s.3720703.3037109.5380859.4736328c.1650391.1699219.2470703.2880859.2470703.3544922-.0371094.1416016-.1552734.2119141-.3535156.2119141h-5.3095703c.4912109.859375,1.2080078,1.5078125,2.1523438,1.9472656.9433594.4384766,2.1425781.7382812,3.5957031.8984375v.15625c-.1884766.046875-.3466797.1416016-.4736328.2832031-.1279297.1416016-.2148438.3300781-.2626953.5664062-1.4150391-.2832031-2.5458984-.7197266-3.390625-1.3095703s-1.4892578-1.4375-1.9326172-2.5419922h-.2265625c-.1699219.6328125-.4599609,1.1826172-.8710938,1.6494141-.4101562.4677734-1.0400391.890625-1.8896484,1.2675781s-1.9960938.7080078-3.4404297.9912109l-.1132812-.2695312c1.1699219-.3115234,2.1162109-.6464844,2.8388672-1.0048828.7216797-.3583984,1.2744141-.75,1.65625-1.1748047.3828125-.4248047.6533203-.9111328.8144531-1.4589844h-2.8320312c-.6699219.0097656-1.3779297.0761719-2.1240234.1982422l-.3535156-.7216797c.5185547.0566406,1.1464844.0947266,1.8828125.1132812h3.5400391c.0654297-.3300781.0986328-.7177734.0986328-1.1611328,0-.1503906-.0097656-.3398438-.0283203-.5664062.9345703.0849609,1.4023438.1894531,1.4023438.3115234,0,.0380859-.0380859.0800781-.1132812.1279297l-.2265625.1552734c-.0566406.5-.1044922.8779297-.1416016,1.1328125h4.2333984l.296875-.4248047Zm-.1982422-2.2509766c.0283203-.0380859.0712891-.0966797.1279297-.1777344.0566406-.0800781.1054688-.1416016.1484375-.1835938.0419922-.0419922.0820312-.0634766.1201172-.0634766.0566406,0,.1796875.0703125.3681641.2119141s.3632812.2949219.5234375.4599609c.1611328.1660156.2412109.28125.2412109.3476562-.0380859.1503906-.1611328.2265625-.3681641.2265625h-9.1181641c-.6699219.0087891-1.3779297.0751953-2.1240234.1982422l-.3818359-.7226562c.5185547.0566406,1.1464844.0947266,1.8828125.1132812h3.6103516v-1.6845703h-1.6845703c-.6699219.0097656-1.3779297.0751953-2.1240234.1982422l-.3681641-.7363281c.5195312.0566406,1.1474609.0947266,1.8828125.1132812h2.2939453v-1.5859375h-2.3642578c-.6699219.0097656-1.3779297.0761719-2.1240234.1982422l-.3818359-.7363281c.5185547.0566406,1.1464844.0947266,1.8828125.1132812h1.7978516c-.1035156,0-.2167969-.046875-.3398438-.1416016-.0566406-.3115234-.1933594-.6513672-.4101562-1.0195312-.2177734-.3681641-.453125-.6835938-.7080078-.9482422l.15625-.0996094c.6132812.1894531,1.0634766.4345703,1.3515625.7363281.2880859.3027344.4316406.5996094.4316406.8925781,0,.1601562-.0400391.2949219-.1201172.4033203s-.1865234.1679688-.3183594.1767578h2.6621094c.2070312-.3486328.3984375-.7529297.5732422-1.2099609.1738281-.4580078.2988281-.8662109.375-1.2255859.8964844.3310547,1.3447266.5576172,1.3447266.6796875,0,.0380859-.046875.0712891-.1416016.0996094l-.2548828.0703125c-.3300781.4443359-.8261719.9726562-1.4863281,1.5859375h2.3076172l.2832031-.4101562c.0283203-.0380859.0732422-.0966797.1347656-.1777344.0615234-.0800781.1103516-.1386719.1484375-.1767578.0380859-.0371094.0751953-.0566406.1132812-.0566406.0566406,0,.1796875.0712891.3681641.2128906s.3662109.2949219.53125.4599609.2470703.28125.2470703.3466797c-.0283203.1513672-.1503906.2265625-.3671875.2265625h-4.7714844v1.5859375h2.7177734l.2832031-.3828125c.0380859-.046875.0830078-.1054688.1347656-.1767578.0517578-.0703125.0966797-.125.1347656-.1621094.0371094-.0380859.0751953-.0566406.1132812-.0566406.0566406,0,.1738281.0683594.3535156.2050781s.3466797.2832031.5029297.4384766c.1552734.15625.2333984.2666016.2333984.3330078-.0380859.1513672-.1552734.2265625-.3535156.2265625h-4.1201172v1.6845703h3.765625l.2832031-.4101562Z"/>
      <path class="cls-1" d="m62.0839301,3.2988281c.0283203-.0371094.0683594-.0966797.1201172-.1767578s.0966797-.1396484.1347656-.1767578c.0371094-.0380859.0751953-.0566406.1132812-.0566406.0566406,0,.1748047.0703125.3535156.2119141.1796875.1416016.3447266.2929688.4960938.453125.1503906.1611328.2265625.2744141.2265625.3398438-.0380859.1513672-.1611328.2265625-.3681641.2265625h-2.2236328v1.4296875c.7363281.3212891,1.2744141.6777344,1.6142578,1.0693359s.5097656.7529297.5097656,1.0830078c0,.1699219-.0400391.3066406-.1201172.4111328-.0800781.1035156-.1816406.1552734-.3046875.1552734-.1416016,0-.2685547-.0517578-.3818359-.1552734-.0849609-.3398438-.2529297-.7226562-.5029297-1.1474609s-.5214844-.8017578-.8144531-1.1328125v3.8085938c.0195312,1.1708984.0566406,2.2802734.1132812,3.3271484-.0566406.1044922-.1650391.1982422-.3251953.2832031s-.3212891.1279297-.4814453.1279297c-.0849609,0-.1601562-.0283203-.2265625-.0849609s-.0986328-.1230469-.0986328-.1982422c.0371094-.5576172.0703125-1.0976562.0986328-1.6210938.0283203-.5244141.046875-1.2109375.0566406-2.0605469v-2.8457031c-.6328125,1.5009766-1.4677734,2.7851562-2.5058594,3.8515625l-.1845703-.1845703c.5859375-.8212891,1.0878906-1.7597656,1.5078125-2.8173828.4199219-1.0566406.7441406-2.15625.9707031-3.2988281h-.7226562c-.3964844.0097656-.8115234.0751953-1.2460938.1982422l-.3681641-.7363281c.4726562.0566406,1.0478516.0947266,1.7275391.1132812h.8212891v-.4101562c0-1.1894531-.0615234-2.1572266-.1835938-2.9033203.5380859.1611328.9082031.2861328,1.1113281.3759766.2021484.0898438.3037109.171875.3037109.2470703,0,.0478516-.0419922.0947266-.1269531.1416016l-.2412109.15625v2.3925781h.8779297l.2695312-.3964844Zm7.4189453,5.6347656c.3583984.1894531.5380859.3212891.5380859.3964844,0,.0566406-.0566406.0849609-.1699219.0849609l-.2695312.0146484c-.9433594.9814453-2.0009766,1.7929688-3.1708984,2.4355469-1.1708984.6416016-2.4736328,1.1601562-3.9082031,1.5566406l-.0986328-.2402344c1.7558594-.6992188,3.2373047-1.5429688,4.4453125-2.5341797.3583984-.3027344.7226562-.6699219,1.0908203-1.1044922s.6416016-.8261719.8212891-1.1757812l.7216797.5664062Zm-1.1328125-7.8857422c.3583984.1699219.5380859.3017578.5380859.3964844,0,.0380859-.0517578.0664062-.1552734.0849609l-.2548828.0136719c-.7080078.7363281-1.5126953,1.3994141-2.4140625,1.9892578-.9023438.5898438-1.8623047,1.0878906-2.8818359,1.4941406l-.1132812-.2412109c1.0097656-.5849609,1.9257812-1.25,2.7470703-1.9960938.3486328-.3115234.6933594-.6865234,1.0332031-1.125.3398438-.4394531.5947266-.8330078.7646484-1.1826172l.7363281.5664062Zm.5380859,3.5673828c.3486328.1796875.5234375.3115234.5234375.3964844,0,.0566406-.0566406.0849609-.1699219.0849609l-.2685547.0146484c-.7460938.8212891-1.609375,1.5693359-2.5908203,2.2441406-.9824219.6748047-2.0244141,1.2529297-3.1289062,1.734375l-.1132812-.2412109c1.1982422-.7167969,2.2744141-1.5332031,3.2275391-2.4492188.3496094-.3398438.6914062-.7285156,1.0263672-1.1679688.3349609-.4384766.5878906-.8330078.7578125-1.1826172l.7363281.5664062Z"/>
      <path class="cls-1" d="m79.9794379,4.7998047l1.6425781-.0849609c-.6513672-.8583984-1.3876953-1.6425781-2.2089844-2.3505859l.15625-.1269531c.9248047.4433594,1.6796875.9111328,2.265625,1.4013672.5849609.4912109,1.0068359.953125,1.2666016,1.3876953s.3896484.8115234.3896484,1.1328125c0,.1787109-.0380859.3203125-.1132812.4248047-.0751953.1035156-.1796875.1552734-.3115234.1552734-.1132812,0-.2363281-.0419922-.3681641-.1269531-.1601562-.4814453-.4482422-1.0097656-.8632812-1.5859375-2.4355469.3496094-5.4746094.7080078-9.1181641,1.0761719-.1044922.1699219-.2363281.2685547-.3964844.296875l-.3544922-1.2880859c.6796875,0,1.4492188-.0185547,2.3085938-.0566406.4814453-.8398438.8769531-1.5761719,1.1884766-2.2089844.2265625-.4335938.4326172-.8945312.6162109-1.3798828.1845703-.4863281.3183594-.9179688.4033203-1.2958984,1.0097656.3779297,1.515625.6279297,1.515625.75,0,.0380859-.0429688.0761719-.1279297.1132812l-.2685547.0849609c-.3681641.6142578-.8046875,1.2773438-1.3095703,1.9892578-.5058594.7128906-1.0078125,1.3574219-1.5078125,1.9326172,1.3115234-.046875,3.0439453-.1269531,5.1953125-.2402344Zm-5.3515625,7.6738281c.0097656.1220703.0166016.2333984.0214844.3330078.0048828.0986328.0117188.171875.0214844.21875-.0195312.0849609-.1113281.1728516-.2763672.2626953-.1650391.0888672-.3378906.1337891-.5166016.1337891-.0761719,0-.1376953-.0283203-.1845703-.0849609s-.0703125-.1220703-.0703125-.1982422c.046875-.5.0800781-1.1650391.0986328-1.9960938v-1.1464844c0-1.1894531-.0615234-2.1572266-.1835938-2.9023438l1.1611328.5517578h6.3144531l.2265625-.296875c.0283203-.0380859.0634766-.0849609.1054688-.1416016.0429688-.0566406.0800781-.0996094.1132812-.1279297s.0683594-.0419922.1064453-.0419922c.0566406,0,.1767578.0634766.3613281.1904297.1835938.1279297.3535156.2646484.5097656.4111328.1552734.1464844.2333984.2529297.2333984.3183594-.1035156.1318359-.3066406.2265625-.6083984.2832031v1.5859375c.0283203,1.3212891.0605469,2.3457031.0986328,3.0722656-.0566406.0849609-.1796875.1699219-.3681641.2548828s-.3583984.1269531-.5097656.1269531c-.0654297,0-.1152344-.0283203-.1484375-.0849609s-.0498047-.1220703-.0498047-.1982422l.0566406-.453125v-.3818359h-6.5126953v.3115234Zm0-4.4169922v3.6806641h6.5126953v-3.6806641h-6.5126953Z"/>
      <path class="cls-1" d="m87.6815864,6.0742188c.0283203-.0380859.0664062-.0966797.1132812-.1767578s.0869141-.1396484.1201172-.1777344c.0332031-.0371094.0683594-.0566406.1064453-.0566406.0566406,0,.1767578.078125.3613281.234375.1835938.1552734.3564453.3232422.5166016.5019531.1601562.1796875.2402344.3027344.2402344.3681641-.1123047.1328125-.3349609.2177734-.6650391.2548828v3.8085938c.3212891.3779297.6679688.6611328,1.0410156.8496094.3720703.1894531.8115234.3144531,1.3164062.375.5048828.0615234,1.1865234.0927734,2.0458984.0927734,2.5292969,0,4.3466797-.0195312,5.4511719-.0566406v.1982422c-.1894531.0371094-.3427734.1220703-.4599609.2539062-.1181641.1328125-.1865234.3027344-.2060547.5097656h-4.7851562c-.8779297,0-1.5878906-.0517578-2.1308594-.1552734-.5429688-.1044922-1.0048828-.2929688-1.3876953-.5664062-.3818359-.2734375-.7333984-.6796875-1.0546875-1.2177734-.2363281.3027344-.5263672.6376953-.8710938,1.0058594-.34375.3671875-.6435547.6738281-.8984375.9199219.0087891.0185547.0136719.0517578.0136719.0986328,0,.0849609-.046875.1611328-.1416016.2265625l-.6513672-1.1318359c.4345703-.2177734,1.0625-.5859375,1.8837891-1.1044922v-4.2333984h-.5947266c-.3212891.0087891-.6611328.0751953-1.0195312.1982422l-.3261719-.7226562c.3310547.0566406.7275391.0947266,1.1894531.1132812h.5664062l.2265625-.4101562Zm-1.1894531-5.2109375c.8212891.2832031,1.4228516.6357422,1.8056641,1.0556641.3818359.4199219.5732422.8183594.5732422,1.1962891,0,.1787109-.0449219.3232422-.1347656.4316406s-.2001953.1630859-.3320312.1630859c-.1230469,0-.2509766-.0478516-.3828125-.1416016-.0849609-.4160156-.2929688-.8662109-.6230469-1.3525391s-.6796875-.8994141-1.0478516-1.2392578l.1416016-.1132812Zm10.0244141,2.8183594c.0185547-.0283203.0498047-.0761719.0917969-.1416016.0429688-.0664062.0800781-.1162109.1132812-.1494141.0332031-.0322266.0683594-.0488281.1064453-.0488281.0566406,0,.1748047.0683594.3544922.2050781.1787109.1367188.34375.2832031.4951172.4384766.1503906.15625.2265625.2666016.2265625.3330078-.0478516.0566406-.1230469.1113281-.2265625.1630859-.1044922.0517578-.2265625.0917969-.3681641.1201172v5.6494141c0,.2636719-.0263672.4765625-.078125.6367188-.0517578.1611328-.1669922.2929688-.3466797.3964844-.1796875.1044922-.4482422.1748047-.8066406.2128906-.0283203-.3027344-.0947266-.5146484-.1982422-.6376953-.1982422-.1503906-.5048828-.25-.9208984-.296875v-.2265625c.6699219.0566406,1.0810547.0849609,1.2324219.0849609.1035156,0,.1738281-.0195312.2119141-.0566406.0380859-.0380859.0566406-.1083984.0566406-.2128906v-1.5292969h-2.4072266v.8359375l.0146484.4951172c.0087891.3779297.0283203.7412109.0566406,1.0908203-.0478516.0751953-.1416016.1503906-.2832031.2265625-.1416016.0751953-.3066406.1132812-.4960938.1132812-.0566406,0-.1054688-.0283203-.1484375-.0849609-.0419922-.0566406-.0634766-.1230469-.0634766-.1982422.0380859-.40625.0664062-.9257812.0849609-1.5576172v-.9208984h-2.3359375v.8496094l.0136719.5244141c.0097656.3867188.0283203.7548828.0566406,1.1044922-.0371094.09375-.1367188.1835938-.296875.2685547-.1611328.0849609-.3261719.1279297-.4960938.1279297-.0654297,0-.125-.03125-.1767578-.0927734-.0517578-.0605469-.078125-.125-.078125-.1904297.0664062-.9345703.1083984-1.9775391.1279297-3.1289062v-1.7138672c0-1.1894531-.0615234-2.15625-.1845703-2.9023438l1.1044922.5380859h3.1289062l-.0283203-.0283203c-.2636719-.2832031-.625-.5683594-1.0830078-.8564453s-.9882812-.5449219-1.5927734-.7714844l.0712891-.2265625c1.1132812.1601562,1.9628906.3867188,2.5478516.6796875.7363281-.4814453,1.2890625-.8974609,1.6572266-1.2460938h-3.3984375c-.6699219.0097656-1.3779297.0751953-2.1240234.1982422l-.3818359-.7226562c.5185547.0566406,1.1464844.0947266,1.8828125.1132812h4.3046875l.2548828-.2832031c.0283203-.0283203.0820312-.0849609.1621094-.1699219s.1494141-.1269531.2060547-.1269531c.0849609,0,.2666016.1396484.5449219.4179688s.4169922.4697266.4169922.5732422c-.0566406.0566406-.1269531.0917969-.2119141.1064453-.0849609.0136719-.2080078.0253906-.3681641.0351562-.2929688.2070312-.6816406.4248047-1.1679688.6513672s-.984375.4335938-1.4941406.6230469c.40625.2636719.609375.5234375.609375.7783203,0,.0849609-.0332031.1699219-.0996094.2548828h1.5292969l.1982422-.3251953Zm-3.2988281,2.3925781v-1.6572266h-2.3359375v1.6572266h2.3359375Zm-2.3359375.4101562v1.7128906h2.3359375v-1.7128906h-2.3359375Zm5.578125-.4101562v-1.6572266h-2.4072266v1.6572266h2.4072266Zm-2.4072266.4101562v1.7128906h2.4072266v-1.7128906h-2.4072266Z"/>
      <path class="cls-1" d="m107.6591254,3.8652344c.3203125.3017578.5800781.7265625.7783203,1.2744141s.2978516,1.1796875.2978516,1.8974609c0,1.4345703-.3095703,2.6425781-.9277344,3.6240234-.6181641.9824219-1.6347656,1.7041016-3.0507812,2.1660156-.1044922.0380859-.1894531.0566406-.2548828.0566406-.0849609,0-.1279297-.0332031-.1279297-.0986328,0-.0380859.0234375-.0712891.0712891-.0996094,1.2265625-.5185547,2.0878906-1.2929688,2.5839844-2.3212891.4951172-1.0292969.7431641-2.1103516.7431641-3.2421875,0-.8876953-.1181641-1.6445312-.3544922-2.2724609-.2353516-.6279297-.5517578-.9414062-.9482422-.9414062-.3115234,0-.6083984.1904297-.8916016.5732422-.2832031.3818359-.5146484.8300781-.6943359,1.3447266-.1787109.5146484-.2685547.9414062-.2685547,1.28125,0,.1611328.0253906.3144531.078125.4599609.0517578.1464844.1289062.3144531.2333984.5029297.0566406.1132812.1083984.2314453.1552734.3535156.0478516.1230469.0712891.2265625.0712891.3115234,0,.0947266-.03125.1728516-.0917969.234375-.0615234.0615234-.1445312.0917969-.2480469.0917969-.2363281,0-.4443359-.1113281-.6230469-.3330078-.1796875-.2216797-.3144531-.4951172-.4033203-.8212891-.0898438-.3251953-.1347656-.6347656-.1347656-.9267578,0-.3964844.0498047-.8496094.1484375-1.359375.0996094-.5097656.2333984-1.1279297.4033203-1.8544922.0849609-.359375.1611328-.703125.2265625-1.0341797.0664062-.3300781.0996094-.5664062.0996094-.7080078,0-.2167969-.0712891-.4003906-.2128906-.5517578-.046875-.0566406-.1103516-.1201172-.1904297-.1914062-.0810547-.0703125-.1210938-.1298828-.1210938-.1767578s.0332031-.0849609.0996094-.1132812c.0654297-.0283203.1464844-.0429688.2402344-.0429688.2363281,0,.4394531.1064453.609375.3193359.1699219.2119141.2548828.4833984.2548828.8134766,0,.3115234-.0400391.6259766-.1201172.9414062-.0810547.3164062-.2011719.7246094-.3613281,1.2246094l-.1416016.4248047c-.0947266.2832031-.15625.5810547-.1845703.8925781.2929688-.6611328.6162109-1.1845703.9697266-1.5712891.3544922-.3876953.7861328-.5810547,1.2958984-.5810547.3398438,0,.6699219.1513672.9912109.453125Z"/>
      <path class="cls-1" d="m121.5556098,5.2177734c.2685547.3818359.4033203.9130859.4033203,1.5927734,0,.3398438-.0517578.8212891-.15625,1.4433594-.1035156.6230469-.2636719,1.2421875-.4804688,1.8554688-.2177734.6132812-.4863281,1.0810547-.8076172,1.4013672-.1699219.1699219-.3447266.3115234-.5234375.4248047-.1796875.1132812-.3398438.1699219-.4814453.1699219s-.2480469-.046875-.3183594-.1416016c-.0712891-.09375-.1298828-.203125-.1777344-.3251953-.046875-.1230469-.0800781-.203125-.0986328-.2412109-.1044922-.2734375-.3310547-.6318359-.6796875-1.0761719-.1044922-.1220703-.15625-.2070312-.15625-.2548828,0-.0185547.0146484-.0283203.0429688-.0283203.046875,0,.2314453.1044922.5517578.3115234l.2548828.1699219c.1513672.1132812.2744141.1933594.3681641.2412109.0947266.046875.1894531.0703125.2832031.0703125.3212891,0,.6064453-.2548828.8564453-.7646484s.4462891-1.1015625.5878906-1.7763672.2128906-1.2246094.2128906-1.6494141c0-.9912109-.3076172-1.4873047-.9208984-1.4873047-.3964844,0-.9482422.1699219-1.65625.5097656-.4443359,1.9638672-1.1513672,3.7333984-2.1240234,5.3095703-.1230469.2080078-.2548828.3710938-.3964844.4882812-.1416016.1181641-.2783203.1777344-.4101562.1777344-.1044922,0-.1943359-.0380859-.2695312-.1132812-.0751953-.0761719-.1132812-.1699219-.1132812-.2832031,0-.2646484.1845703-.6376953.5527344-1.1191406.9433594-1.2548828,1.5947266-2.6240234,1.953125-4.1054688-.9248047.4052734-1.5.6083984-1.7265625.6083984-.1982422,0-.3994141-.0615234-.6025391-.1835938-.2021484-.1230469-.3701172-.2763672-.5019531-.4599609-.1328125-.1845703-.1982422-.3564453-.1982422-.5175781,0-.0849609.0234375-.1269531.0703125-.1269531.0380859,0,.0966797.0185547.1777344.0566406.0800781.0380859.1435547.0664062.1904297.0849609.2646484.1132812.5380859.1699219.8212891.1699219.3681641-.0097656.6796875-.0498047.9345703-.1201172.2548828-.0712891.5996094-.1865234,1.0332031-.3476562.1328125-.6132812.1982422-1.1279297.1982422-1.5429688,0-.4814453-.0986328-.8398438-.296875-1.0761719-.0664062-.0751953-.1533203-.1699219-.2617188-.2832031-.109375-.1132812-.1630859-.1884766-.1630859-.2265625,0-.0566406.0400391-.0986328.1201172-.1269531s.1816406-.0429688.3046875-.0429688c.1787109,0,.3681641.0283203.5664062.0849609s.3535156.1279297.4667969.2128906c.1513672.1220703.2265625.2734375.2265625.453125,0,.0751953-.0283203.2265625-.0849609.453125-.046875.1884766-.0849609.3730469-.1132812.5517578-.0654297.4912109-.1318359.9199219-.1982422,1.2880859.5664062-.1884766,1.0625-.2832031,1.4873047-.2832031.5664062,0,.9833984.1914062,1.2529297.5742188Zm3.6103516-.2763672c.4667969.2548828.8046875.5517578,1.0117188.8916016.2080078.3398438.3115234.65625.3115234.9492188,0,.3300781-.0917969.6113281-.2753906.8417969-.1845703.2314453-.3759766.3476562-.5732422.3476562-.1132812,0-.2177734-.0361328-.3115234-.1064453-.0947266-.0712891-.1513672-.1113281-.1699219-.1201172-.1328125-.0947266-.3115234-.1611328-.5380859-.1982422-.2265625-.0380859-.4960938-.0761719-.8076172-.1132812-.1318359-.0195312-.1982422-.0478516-.1982422-.0849609,0-.0478516.0566406-.0761719.1699219-.0849609.6132812-.0664062.9345703-.0996094.9628906-.0996094.2548828-.046875.4316406-.1035156.53125-.1699219.0986328-.0654297.1484375-.1748047.1484375-.3251953,0-.453125-.2119141-.8681641-.6367188-1.2460938s-.9111328-.6328125-1.4589844-.7646484c-.0849609-.0185547-.1269531-.046875-.1269531-.0849609s.0566406-.0566406.1699219-.0566406c.7265625.0283203,1.3232422.1699219,1.7910156.4248047Z"/>
      <path class="cls-1" d="m132.378852,12.7285156c0-.0478516.0263672-.0800781.078125-.0996094.0517578-.0185547.1298828-.0371094.2333984-.0566406,1.5009766-.2548828,2.640625-.6601562,3.4199219-1.2167969.7783203-.5576172,1.1679688-1.2695312,1.1679688-2.1386719,0-.5283203-.125-.9433594-.375-1.2451172-.2509766-.3027344-.6074219-.453125-1.0693359-.453125-.4248047,0-.8193359.1699219-1.1826172.5097656-.3632812.3388672-.7714844.8535156-1.2246094,1.5429688-.0849609.1318359-.2099609.2480469-.375.3466797-.1650391.0996094-.2949219.1484375-.3896484.1484375-.8779297,0-1.3164062-.5234375-1.3164062-1.5712891,0-.4433594.0517578-1.2978516.15625-2.5625.0566406-.7363281.0839844-1.1191406.0839844-1.1474609,0-.0566406-.0136719-.1982422-.0419922-.4248047-.0283203-.0849609-.0419922-.1787109-.0419922-.2832031,0-.1787109.0419922-.3222656.1269531-.4316406.0849609-.1083984.2216797-.2470703.4101562-.4169922.1416016-.1230469.3027344-.2314453.4814453-.3261719.1796875-.09375.4111328-.203125.6943359-.3251953.2636719-.1044922.4580078-.1914062.5800781-.2626953.1230469-.0703125.1845703-.1435547.1845703-.21875,0-.0947266-.0810547-.2128906-.2412109-.3544922s-.3300781-.2636719-.5097656-.3681641c-.0283203-.0185547-.0683594-.0400391-.1201172-.0634766s-.078125-.0498047-.078125-.078125.0595703-.0488281.1777344-.0634766c.1171875-.0136719.2099609-.0214844.2753906-.0214844.3681641,0,.6914062.0732422.9697266.2197266s.5126953.3994141.7011719.7578125c.0751953.1318359.1132812.2832031.1132812.453125s-.046875.3134766-.1416016.4316406-.1933594.1767578-.296875.1767578c-.0761719,0-.1445312-.0214844-.2060547-.0634766-.0615234-.0429688-.1015625-.0683594-.1201172-.078125-.1035156-.0751953-.203125-.1318359-.296875-.1699219-.0947266-.0371094-.2177734-.0566406-.3681641-.0566406-.4443359,0-.9160156.1699219-1.4160156.5097656-.1132812.0761719-.1982422.1699219-.2548828.2832031s-.0849609.2265625-.0849609.3398438c0,.0849609.0332031.1835938.0986328.296875.0947266.1894531.1416016.3681641.1416016.5380859,0,.1044922-.0332031.4296875-.0986328.9775391-.1328125,1.1044922-.1982422,1.7744141-.1982422,2.0107422,0,.2548828.0400391.4902344.1201172.7070312.0800781.2177734.1865234.3261719.3183594.3261719.0761719,0,.1679688-.0302734.2763672-.0917969s.2246094-.1347656.3466797-.2197266c.1230469-.0849609.2128906-.1464844.2695312-.1845703.5097656-.3671875.9697266-.6552734,1.3798828-.8632812.4111328-.2070312.8476562-.3115234,1.3095703-.3115234.4248047,0,.8027344.1162109,1.1328125.3466797.3310547.2314453.5878906.53125.7714844.8994141.1845703.3681641.2763672.75.2763672,1.1464844,0,.40625-.0917969.7978516-.2763672,1.1757812-.1835938.3769531-.6748047.7646484-1.4716797,1.1611328-.7978516.3964844-2.0136719.7021484-3.6464844.9199219-.1132812.0185547-.203125.0283203-.2685547.0283203-.1230469,0-.1845703-.0283203-.1845703-.0849609Z"/>
      <path class="cls-1" d="m146.9198676,4.21875c.0185547-.0283203.046875-.0703125.0849609-.1269531.0371094-.0566406.0703125-.0986328.0986328-.1269531s.0615234-.0429688.0996094-.0429688c.0849609,0,.2431641.1201172.4746094.3613281.2304688.2402344.3466797.4130859.3466797.5166016-.1328125.1318359-.3027344.2167969-.5097656.2548828v1.3027344c.0283203,1.0849609.0615234,1.9248047.0986328,2.5195312-.0751953.0761719-.1835938.1494141-.3251953.2197266-.1416016.0712891-.2783203.1064453-.4111328.1064453h-.1552734v-.5664062h-2.3222656v2.8740234l2.0527344-.75c-.2636719-.4345703-.546875-.8310547-.8486328-1.1894531l.1552734-.0996094c.6601562.2929688,1.1445312.6191406,1.4511719.9775391s.4599609.6933594.4599609,1.0048828c0,.1513672-.0351562.2744141-.1054688.3681641-.0712891.0947266-.1679688.1416016-.2910156.1416016-.1132812,0-.2265625-.0419922-.3398438-.1269531-.0849609-.3212891-.1982422-.5947266-.3398438-.8212891-1.1230469.7080078-2.1992188,1.3496094-3.2275391,1.9248047-.0478516.1894531-.1416016.3164062-.2832031.3828125l-.6376953-1.1464844c.1132812-.0283203.3261719-.0947266.6376953-.1982422l.4951172-.1699219v-7.6884766c-.4335938.4345703-.8398438.7880859-1.2177734,1.0615234l-.1552734-.1552734c.5-.5,1.0332031-1.203125,1.5996094-2.109375.2451172-.40625.4697266-.8525391.6728516-1.3378906.203125-.4863281.3369141-.9179688.4033203-1.2958984.8779297.3496094,1.3164062.5849609,1.3164062.7080078,0,.0185547-.0332031.046875-.0986328.0849609l-.1982422.0849609c.7363281.3017578,1.2714844.6230469,1.6074219.9628906.3349609.3398438.5019531.6464844.5019531.9199219,0,.1513672-.0419922.2744141-.1269531.3681641-.0849609.0947266-.1933594.1416016-.3261719.1416016-.1132812,0-.2265625-.0419922-.3398438-.1269531-.1220703-.3027344-.3183594-.6445312-.5869141-1.0273438-.2695312-.3818359-.5791016-.7431641-.9277344-1.0830078-.6132812,1.0390625-1.3076172,1.9589844-2.0810547,2.7607422l.8212891.4248047h.6513672c0-.6884766-.0332031-1.2597656-.0996094-1.7128906.7832031.2548828,1.1748047.4443359,1.1748047.5664062,0,.0283203-.0332031.0664062-.0986328.1132812l-.1845703.1279297v.9052734h.8642578l.1699219-.2832031Zm-.1982422,2.1240234v-1.4296875h-2.3222656v1.4296875h2.3222656Zm-2.3222656.4111328v1.4716797h2.3222656v-1.4716797h-2.3222656Zm8.9482422-5.5507812c.0283203-.0371094.0712891-.0966797.1279297-.1767578s.1054688-.1416016.1484375-.1835938c.0419922-.0429688.0820312-.0644531.1201172-.0644531.0566406,0,.1796875.0732422.3681641.2197266s.3652344.3027344.53125.4677734c.1650391.1650391.2470703.2802734.2470703.3466797-.0371094.1503906-.1552734.2265625-.3535156.2265625h-4.9267578v2.6611328h3.5253906l.2265625-.2685547c.0185547-.0283203.0634766-.0830078.1337891-.1630859.0712891-.0800781.1396484-.1201172.2060547-.1201172.0849609,0,.2587891.125.5234375.375.2636719.25.3964844.4277344.3964844.53125-.0478516.0566406-.1083984.0966797-.1845703.1201172-.0751953.0234375-.1933594.0449219-.3535156.0634766-.3681641,1.9921875-.953125,3.6152344-1.7558594,4.8710938.7744141,1.0380859,1.7275391,1.8496094,2.8603516,2.4345703l-.0429688.1279297c-.1982422.0087891-.375.0732422-.5302734.1914062-.15625.1171875-.28125.2802734-.3759766.4882812-.9716797-.6513672-1.7792969-1.4960938-2.4208984-2.5341797-.8398438,1.0566406-1.9257812,1.8964844-3.2558594,2.5195312l-.1279297-.2119141c1.2558594-.7460938,2.265625-1.7275391,3.0302734-2.9453125-.7080078-1.3398438-1.1894531-3.0292969-1.4443359-5.0683594h-.4101562v.6796875c0,1.0380859-.0615234,1.9912109-.1845703,2.859375-.1230469.8691406-.375,1.71875-.7578125,2.5488281-.3818359.8310547-.9462891,1.5625-1.6914062,2.1943359l-.1982422-.1552734c.7929688-.953125,1.3261719-2.0292969,1.5996094-3.2285156.2734375-1.1982422.4111328-2.5996094.4111328-4.2050781v-2.3212891c0-.9726562-.0478516-1.7705078-.1416016-2.3935547l1.1181641.5380859h3.2988281l.2832031-.4248047Zm-3.015625,3.9082031c.2636719,1.6611328.7832031,3.1103516,1.5576172,4.3466797.6132812-1.2080078,1.0566406-2.6572266,1.3310547-4.3466797h-2.8886719Z"/>
      <path class="cls-1" d="m160.4120551,3.2421875c.2080078-.0087891.5527344-.0332031,1.0341797-.0703125-.3115234-.4628906-.6660156-.8925781-1.0625-1.2890625l.1699219-.1132812c.7841797.3212891,1.3623047.6865234,1.734375,1.0976562.3730469.4101562.5595703.7861328.5595703,1.1259766,0,.1601562-.0400391.2900391-.1201172.3886719-.0800781.0996094-.1816406.1484375-.3046875.1484375s-.2451172-.0419922-.3681641-.1269531c-.0751953-.2646484-.2167969-.5751953-.4248047-.9345703-1.5859375.3310547-3.0439453.6181641-4.375.8632812-.046875.1611328-.1601562.2597656-.3398438.2978516l-.4248047-1.1464844c.40625,0,.9628906-.0283203,1.6708984-.0849609.0380859-.1132812.0615234-.1982422.0712891-.2548828.1503906-.4628906.2753906-.9580078.375-1.4873047.0986328-.5283203.1533203-.9814453.1630859-1.359375.5664062.1328125.9599609.2412109,1.1816406.3261719s.3330078.1552734.3330078.2119141c0,.0380859-.0380859.0712891-.1132812.0996094l-.2412109.1132812c-.3955078.8115234-.8398438,1.5859375-1.3300781,2.3222656.5664062-.0283203,1.1699219-.0712891,1.8115234-.1279297Zm-2.0810547,7.7304688c.0185547.859375.046875,1.5244141.0849609,1.9960938-.046875.0947266-.1484375.1845703-.3046875.2695312-.1552734.0849609-.3183594.1269531-.4882812.1269531-.0654297,0-.1269531-.0302734-.1835938-.0917969s-.0849609-.125-.0849609-.1914062c.0371094-.5185547.0683594-1.0283203.0917969-1.5283203.0234375-.5009766.0400391-1.1376953.0498047-1.9121094v-1.8681641c0-1.1894531-.0615234-2.1572266-.1845703-2.9033203l1.0908203.5244141h2.5908203l.1835938-.2832031c.0283203-.0380859.0712891-.0966797.1279297-.1767578s.1132812-.1210938.1699219-.1210938.1767578.0615234.3613281.1845703c.1835938.1230469.3535156.2568359.5087891.4033203.15625.1464844.234375.2529297.234375.3183594-.0478516.0566406-.1259766.1113281-.234375.1630859s-.2236328.0878906-.3466797.1064453v6.0742188c0,.2822266-.0253906.5087891-.0771484.6787109-.0527344.1699219-.1679688.3095703-.3476562.4179688-.1787109.1083984-.4482422.1816406-.8066406.2197266-.0195312-.3115234-.0898438-.5380859-.2128906-.6796875-.1787109-.1611328-.4667969-.2734375-.8632812-.3398438v-.2265625c.6416016.0566406,1.0380859.0849609,1.1894531.0849609.09375,0,.1601562-.0185547.1982422-.0566406.0371094-.0371094.0566406-.1083984.0566406-.2119141v-2.0253906h-2.8037109v1.0478516Zm2.8037109-3.5390625v-1.6142578h-2.8037109v1.6142578h2.8037109Zm-2.8037109.4101562v1.6708984h2.8037109v-1.6708984h-2.8037109Zm6.1308594,2.0244141c.3769531-.1884766.6933594-.3583984.9482422-.5097656.4248047-.2548828.8261719-.5498047,1.2041016-.8847656.3769531-.3349609.6699219-.6630859.8779297-.9833984.7451172.5283203,1.1181641.8486328,1.1181641.9619141,0,.0566406-.0615234.0849609-.1845703.0849609h-.3251953c-.453125.2929688-1.0097656.5908203-1.6708984.8925781-.6601562.3017578-1.3164062.5478516-1.9677734.7363281v1.8261719c0,.1230469.0332031.203125.0986328.2412109.0664062.0371094.2216797.0566406.4677734.0566406h1.3447266c.6982422,0,1.1142578-.0048828,1.2460938-.0146484s.2167969-.0664062.2548828-.1699219c.046875-.0849609.1083984-.2851562.1845703-.6015625.0751953-.3164062.1503906-.6533203.2255859-1.0126953h.15625l.0566406,1.6572266c.1503906.0654297.2519531.1269531.3046875.1835938.0517578.0566406.0771484.1318359.0771484.2265625,0,.1503906-.0683594.2666016-.2050781.3466797s-.3867188.1396484-.75.1767578c-.3632812.0380859-.8945312.0566406-1.5927734.0566406h-1.4589844c-.3583984,0-.6298828-.0283203-.8134766-.0849609-.1845703-.0566406-.3095703-.1533203-.375-.2900391-.0664062-.1367188-.0996094-.3330078-.0996094-.5869141v-2.6054688c0-1.0664062-.0566406-1.9541016-.1699219-2.6621094.90625.2646484,1.359375.4628906,1.359375.5947266,0,.0380859-.0332031.0800781-.0996094.1279297l-.2119141.1416016v2.0947266Zm0-6.5126953c.4052734-.1982422.6796875-.3349609.8212891-.4101562.4248047-.2363281.8378906-.5126953,1.2382812-.8291016.4013672-.3154297.7197266-.625.9560547-.9267578.6699219.5195312,1.0048828.8398438,1.0048828.9628906,0,.046875-.0615234.0703125-.1835938.0703125h-.3251953c-.4628906.2548828-1.015625.5146484-1.6572266.7792969-.6416016.2636719-1.2597656.4765625-1.8544922.6367188v1.7275391c0,.1230469.0302734.203125.0917969.2402344.0615234.0380859.2148438.0566406.4599609.0566406h1.2890625c.6982422,0,1.0996094-.0087891,1.203125-.0283203.0849609-.0087891.1464844-.0234375.1845703-.0419922.0371094-.0185547.0654297-.0517578.0849609-.0996094.1035156-.1884766.2304688-.6835938.3818359-1.4863281h.1835938l.0429688,1.5292969c.1416016.046875.2402344.0986328.296875.1552734s.0849609.1279297.0849609.2128906c0,.1503906-.0654297.2666016-.1982422.3466797-.1318359.0800781-.3769531.1396484-.7353516.1767578-.359375.0380859-.8828125.0566406-1.5722656.0566406h-1.4160156c-.3583984,0-.625-.0283203-.7998047-.0849609s-.2949219-.1484375-.3603516-.2763672c-.0664062-.1269531-.0996094-.3134766-.0996094-.5585938v-2.5058594c0-1.0761719-.0517578-1.9306641-.1552734-2.5634766.5.1513672.8466797.2744141,1.0400391.3681641.1933594.0947266.2900391.1699219.2900391.2265625,0,.0380859-.0332031.0810547-.0986328.1279297l-.1982422.1416016v1.9960938Z"/>
      <path class="cls-1" d="m171.5546332,8.9482422c.1230469.6044922.1845703,1.1230469.1845703,1.5576172,0,.5751953-.0830078,1.0029297-.2480469,1.28125s-.3466797.4179688-.5449219.4179688c-.1044922,0-.1894531-.0332031-.2548828-.0996094-.0664062-.0654297-.0996094-.1552734-.0996094-.2685547,0-.1044922.0429688-.2265625.1279297-.3681641.1884766-.2363281.3369141-.5712891.4462891-1.0058594.1083984-.4335938.1669922-.9384766.1767578-1.5146484h.2119141Zm3.9082031-3.9785156c.0185547-.0283203.0517578-.0751953.0986328-.1416016.0478516-.0664062.0898438-.1152344.1279297-.1484375.0371094-.0332031.0751953-.0498047.1132812-.0498047.09375,0,.2734375.1201172.5380859.3613281.2636719.2402344.3964844.4130859.3964844.5166016-.0380859.1513672-.1513672.2265625-.3398438.2265625h-2.0390625v1.5576172h1.1894531l.2119141-.2548828c.0283203-.0283203.0732422-.0800781.1347656-.15625.0615234-.0751953.1201172-.1132812.1767578-.1132812.0947266,0,.2714844.1113281.53125.3330078s.3896484.3847656.3896484.4882812c-.0849609.1044922-.2597656.1748047-.5244141.2128906-.1318359,2.6425781-.4765625,4.2138672-1.0332031,4.7138672-.3027344.2744141-.7080078.4111328-1.2177734.4111328,0-.2744141-.0566406-.4677734-.1699219-.5810547-.1230469-.1035156-.4101562-.2021484-.8632812-.296875v-.2402344l.4101562.0283203c.453125.0371094.7451172.0566406.8779297.0566406.1132812,0,.2001953-.0097656.2617188-.0283203.0615234-.0195312.125-.0517578.1914062-.0996094.3583984-.3300781.6083984-1.6845703.75-4.0634766h-3.4121094v.453125c0,.046875-.0664062.1083984-.1982422.1835938-.1318359.0761719-.2880859.1132812-.4667969.1132812-.0664062,0-.125-.0302734-.1767578-.0917969-.0527344-.0615234-.078125-.125-.078125-.1914062.0654297-.8300781.1083984-1.7548828.1269531-2.7744141v-1.5429688c0-1.1894531-.0615234-2.1572266-.1835938-2.9033203l1.1464844.4960938h2.8886719l.2685547-.3681641c.0283203-.0283203.0683594-.0800781.1210938-.15625.0517578-.0751953.0966797-.1289062.1337891-.1621094.0380859-.0332031.0761719-.0498047.1132812-.0498047.0566406,0,.1728516.0634766.3466797.1914062.1748047.1269531.3349609.2666016.4814453.4169922.1464844.1513672.2197266.2597656.2197266.3261719-.0380859.1513672-.1552734.2265625-.3535156.2265625h-2.2939453v1.5009766h.9345703l.2119141-.3398438c.0283203-.0478516.0664062-.1015625.1132812-.1630859.0478516-.0615234.0849609-.1083984.1132812-.1416016s.0615234-.0498047.0996094-.0498047c.09375,0,.2763672.1201172.5449219.3613281.2685547.2402344.4033203.4130859.4033203.5166016-.0283203.1513672-.1416016.2265625-.3398438.2265625h-2.0810547v1.5292969h.8779297l.2265625-.3398438Zm-3.1005859,3.8369141c.2353516.3300781.4101562.65625.5234375.9765625.1132812.3212891.1699219.6181641.1699219.8925781,0,.2734375-.046875.4951172-.1416016.6650391s-.2080078.2548828-.3398438.2548828c-.0947266,0-.1933594-.0566406-.296875-.1699219.046875-.3017578.0703125-.5947266.0703125-.8779297,0-.5947266-.0664062-1.15625-.1982422-1.6845703l.2128906-.0566406Zm1.2177734-5.4365234v-1.5009766h-1.3173828v1.5009766h1.3173828Zm-1.3173828,1.9394531h1.3173828v-1.5292969h-1.3173828v1.5292969Zm1.3173828.4248047h-1.3173828v1.5576172h1.3173828v-1.5576172Zm-.4248047,2.8310547c.3769531.3115234.6552734.6230469.8349609.9345703s.2685547.5908203.2685547.8359375c0,.1699219-.0332031.3066406-.0986328.4101562-.0664062.1044922-.1513672.15625-.2548828.15625-.0947266,0-.1933594-.0517578-.296875-.15625,0-.3017578-.0644531-.6464844-.1914062-1.0332031-.1279297-.3867188-.2714844-.7412109-.4316406-1.0625l.1699219-.0849609Zm.8632812-.3115234c.4433594.1611328.7695312.359375.9765625.5947266.2080078.2363281.3115234.4628906.3115234.6796875,0,.1328125-.0332031.2392578-.0986328.3193359-.0664062.0800781-.1464844.1201172-.2412109.1201172-.0751953,0-.1650391-.0380859-.2685547-.1132812-.0380859-.2363281-.1416016-.4960938-.3115234-.7792969s-.3496094-.5185547-.5380859-.7080078l.1699219-.1132812Zm7.8154297-7.0927734c.0283203-.0380859.0751953-.1015625.1416016-.1914062s.1279297-.1347656.1845703-.1347656.1699219.0664062.3388672.1982422c.1699219.1328125.3261719.2744141.4677734.4248047.1416016.1513672.2119141.2597656.2119141.3261719-.0371094.0566406-.1083984.1103516-.2119141.1621094-.1044922.0527344-.2216797.0878906-.3544922.1064453v1.6142578c.0195312,1.1044922.0566406,2.1474609.1132812,3.1289062-.0654297.0849609-.1884766.1679688-.3681641.2480469-.1787109.0800781-.3349609.1201172-.4667969.1201172-.0566406,0-.1015625-.0283203-.1347656-.0849609s-.0488281-.1220703-.0488281-.1982422c.0087891-.0087891.0283203-.0898438.0566406-.2402344v-.2695312h-2.1523438c.3115234,1.4072266.7851562,2.6474609,1.4228516,3.7236328.6367188,1.0761719,1.4228516,1.8505859,2.3574219,2.3222656l-.0283203.1552734c-.1796875.0380859-.3349609.1279297-.4677734.2695312-.1318359.1416016-.2314453.3251953-.296875.5517578-.90625-.6699219-1.6142578-1.5830078-2.1240234-2.7392578s-.8867188-2.5839844-1.1328125-4.2832031h-.8496094c-.0371094,1.4824219-.2216797,2.8105469-.5517578,3.9853516-.3300781,1.1757812-.953125,2.1923828-1.8691406,3.0517578l-.2119141-.1416016c.7167969-.9628906,1.1914062-2.0478516,1.4228516-3.2568359.2314453-1.2080078.3466797-2.6328125.3466797-4.2753906v-2.3642578c0-1.0195312-.0517578-1.8271484-.1552734-2.421875l1.1748047.5244141h2.9736328l.2119141-.3115234Zm-3.3417969.7216797v4.0634766h3.2714844V1.8828125h-3.2714844Z"/>
      <path class="cls-1" d="m195.8505317,9.4433594c-.7460938-.3583984-1.3730469-.6982422-1.8828125-1.0195312-.5097656-.3203125-1.0224609-.7001953-1.5361328-1.1396484-.5146484-.4384766-1.1494141-1.0351562-1.9042969-1.7910156-.2177734-.2167969-.4111328-.3251953-.5810547-.3251953-.1787109,0-.3916016.1269531-.6367188.3818359l-.7509766.7646484c-.4238281.4248047-.703125.7128906-.8349609.8642578-.3212891.3583984-.5849609.6201172-.7929688.7851562s-.4433594.2480469-.7080078.2480469c-.1884766,0-.3681641-.0517578-.5380859-.1552734-.1699219-.1044922-.3085938-.2294922-.4169922-.3759766-.109375-.1455078-.1630859-.2705078-.1630859-.375,0-.0371094.0117188-.0732422.0351562-.1064453.0234375-.0322266.0585938-.0488281.1064453-.0488281.0371094,0,.1015625.0048828.1914062.0136719.0888672.0097656.1904297.0146484.3037109.0146484.1699219,0,.3398438-.0263672.5097656-.078125s.3916016-.1767578.6660156-.375c.2832031-.1982422.6435547-.4697266,1.0830078-.8144531.4384766-.3447266.8183594-.6533203,1.1396484-.9277344.2636719-.2353516.5185547-.3535156.7646484-.3535156.2451172,0,.5097656.1132812.7929688.3398438l.2548828.2119141c.7548828.6425781,1.5644531,1.2460938,2.4277344,1.8125.8642578.5664062,1.8339844,1.0107422,2.9101562,1.3310547.2919922.0849609.5.1982422.6220703.3398438.1230469.1416016.1845703.2880859.1845703.4384766,0,.1416016-.0517578.2626953-.15625.3613281-.1035156.0996094-.25.1484375-.4384766.1484375s-.40625-.0566406-.6513672-.1699219Z"/>
      <path class="cls-1" d="m199.1776801,13.5634766c.0283203-.0371094.2617188-.3017578.7011719-.7929688.4384766-.4902344.8515625-1.2832031,1.2382812-2.3779297s.5810547-2.2509766.5810547-3.46875-.1660156-2.2919922-.4960938-3.2216797-.6445312-1.6044922-.9414062-2.0244141-.6582031-.8847656-1.0830078-1.3945312c-.0664062-.0849609-.0996094-.1464844-.0996094-.1845703,0-.0283203.0117188-.0517578.0361328-.0703125.0234375-.0185547.0488281-.0283203.0771484-.0283203.0478516,0,.0996094.0234375.15625.0703125.3300781.2460938.7314453.6308594,1.203125,1.1542969.4716797.5244141.9248047,1.2792969,1.359375,2.265625s.6513672,2.1308594.6513672,3.4335938c0,1.3017578-.2167969,2.4472656-.6513672,3.4326172-.4345703.9873047-.8876953,1.7421875-1.359375,2.265625-.4716797.5244141-.8730469.9082031-1.203125,1.1542969-.0566406.046875-.1083984.0703125-.15625.0703125-.0185547,0-.0419922-.0068359-.0703125-.0205078-.0283203-.0146484-.0429688-.0410156-.0429688-.078125,0-.0380859.0332031-.0996094.0996094-.1845703Z"/>
    </g>
    <line class="cls-4" y1="25.540026" x2="386.8888889" y2="25.540026"/>
    <g>
      <line class="cls-3" x1="170.4953511" y1="101.8139868" x2="170.4953511" y2="315.1863488"/>
      <circle class="cls-3" cx="170.7369751" cy="314.3706577" r="6.5540565"/>
      <g>
        <path class="cls-1" d="m111.9423286,312.0766602c-.3457031.2890625-.7167969.5634766-1.1142578.8232422-.0048828.0048828-.0146484.0068359-.0283203.0068359-.0810547,0-.1210938-.0449219-.1210938-.1347656,0-.0185547.0078125-.0351562.0214844-.0498047.9082031-.7753906,1.7197266-1.8164062,2.4335938-3.1210938.2597656-.4873047.4306641-.9111328.5107422-1.2705078.8330078.2792969,1.2490234.4775391,1.2490234.5957031,0,.0996094-.1796875.1826172-.5390625.2490234,1.5419922.6005859,2.3125,1.2060547,2.3125,1.8164062,0,.1416016-.0419922.2646484-.1279297.3681641-.0703125.0859375-.1533203.1279297-.2480469.1279297-.0996094,0-.1845703-.0351562-.2548828-.1064453-.0576172-.0664062-.1376953-.1962891-.2412109-.3896484-.3457031-.6152344-.8681641-1.1523438-1.5683594-1.6113281-.3359375.5400391-.6669922,1.0029297-.9931641,1.390625-.3076172.3974609-.7148438.8144531-1.2207031,1.2490234.3359375.1328125.6367188.2841797.9013672.4541016h.7587891v-.8017578c0-.2695312-.0185547-.5791016-.0566406-.9296875.8515625.0996094,1.2773438.2158203,1.2773438.3476562,0,.1142578-.1445312.234375-.4326172.3623047v1.0214844h.84375c.2607422-.2832031.4238281-.4257812.4902344-.4257812.0849609,0,.2597656.1162109.5244141.3476562.15625.1464844.234375.2529297.234375.3193359,0,.0898438-.1162109.2128906-.3476562.3691406v1.1923828l.0429688,2.6669922c0,.2509766-.1708984.3759766-.5117188.3759766-.1464844,0-.2412109-.0234375-.2832031-.0703125-.0429688-.0429688-.0644531-.1210938-.0644531-.234375v-.3339844h-2.5751953v2.9804688c.8466797-.2080078,1.6035156-.4355469,2.2705078-.6816406-.1660156-.4248047-.4472656-.8369141-.8447266-1.234375-.0087891-.0087891-.0136719-.0205078-.0136719-.0351562,0-.0566406.0302734-.0849609.0917969-.0849609.0097656,0,.0195312.0019531.0283203.0068359.5488281.2597656.9863281.5820312,1.3134766.9648438.2734375.3222656.4111328.6220703.4111328.9013672,0,.359375-.1542969.5390625-.4609375.5390625-.1464844,0-.2744141-.2080078-.3837891-.6240234l-.0419922-.15625c-1.1074219.5908203-2.2568359,1.109375-3.4482422,1.5537109-.0615234.3544922-.1591797.5322266-.2910156.5322266-.0712891,0-.1396484-.078125-.2060547-.234375-.0703125-.1611328-.1962891-.5224609-.3759766-1.0859375.2558594-.0185547.5917969-.0654297,1.0078125-.1416016l.1279297-.0351562v-4.5693359c0-1.5703125-.0195312-2.6367188-.0566406-3.2001953Zm3.4472656,2.2705078v-1.5107422h-2.5751953v1.5107422h2.5751953Zm-2.5751953.3623047v1.6103516h2.5751953v-1.6103516h-2.5751953Zm5.7050781-1.3271484c-.0664062,1.6796875-.2509766,3.0791016-.5537109,4.2001953-.3740234,1.3769531-1.1523438,2.6298828-2.3349609,3.7607422-.0087891.0087891-.0234375.0136719-.0419922.0136719-.0947266,0-.1416016-.0371094-.1416016-.1132812,0-.0136719.0039062-.0263672.0136719-.0351562.9365234-1.2539062,1.5419922-2.5615234,1.8164062-3.9238281.2597656-1.234375.390625-3.1357422.390625-5.7041016,0-1.0791016-.03125-1.9296875-.0927734-2.5546875.4208984.1845703.796875.3828125,1.1279297.5957031h3.7539062c.40625-.4824219.6523438-.7236328.7373047-.7236328.0712891,0,.3271484.1845703.7666016.5537109.2226562.1894531.3339844.3242188.3339844.4042969,0,.0849609-.0664062.1279297-.1992188.1279297h-5.5341797v1.3193359c0,.4501953-.0097656,1.0224609-.0283203,1.7177734h3.7744141c.2978516-.3408203.4775391-.5117188.5390625-.5117188.0664062,0,.2773438.1660156.6318359.4970703.1367188.1230469.2060547.2294922.2060547.3193359s-.1445312.2011719-.4326172.3330078c-.4169922,1.8076172-1.0644531,3.3095703-1.9443359,4.5058594.0380859.0380859.0966797.1044922.1767578.1982422.7949219.9462891,1.7792969,1.6298828,2.9521484,2.0507812.0332031.0097656.0498047.03125.0498047.0634766,0,.0527344-.03125.0898438-.0927734.1142578-.2363281.0615234-.4257812.2578125-.5673828.5888672-.0380859.1181641-.1015625.1767578-.1914062.1767578-.0849609,0-.2578125-.0917969-.5185547-.2763672-.875-.6152344-1.6318359-1.3925781-2.2695312-2.3339844-1.0224609,1.1494141-2.3681641,2.0693359-4.0371094,2.7597656h-.0214844c-.0712891,0-.1064453-.0449219-.1064453-.1347656,0-.0283203.0087891-.0478516.0283203-.0566406,1.5800781-.9414062,2.8164062-2.0273438,3.7109375-3.2568359-.2509766-.4443359-.5019531-1.0546875-.7529297-1.8300781-.2265625-.7763672-.4248047-1.7246094-.5957031-2.8457031h-.5527344Zm2.3056641,4.0800781c.7041016-1.1640625,1.2080078-2.5234375,1.5107422-4.0800781h-2.9296875c.2978516,1.6464844.7705078,3.0058594,1.4189453,4.0800781Z"/>
        <path class="cls-1" d="m130.9628364,311.6508789c-1.2626953.3408203-2.7998047.59375-4.6113281.7597656-.0898438.2792969-.1914062.4179688-.3046875.4179688-.0664062,0-.1210938-.0683594-.1640625-.2050781-.0419922-.1230469-.1269531-.4755859-.2548828-1.0576172.3779297.0380859.8134766.0566406,1.3056641.0566406.3730469-.8134766.6591797-1.5673828.8583984-2.2626953.1132812-.3691406.1767578-.6699219.1914062-.9013672.6103516.1748047,1.0048828.3046875,1.1845703.390625.15625.0703125.234375.1435547.234375.2197266,0,.0751953-.0400391.1318359-.1201172.1699219-.0761719.0332031-.2275391.0732422-.4541016.1210938-.4121094.7802734-.9111328,1.5341797-1.4970703,2.2626953.9785156-.0087891,2.1445312-.0917969,3.4970703-.2480469-.2832031-.5537109-.6054688-1.0097656-.9648438-1.3691406-.0136719-.0146484-.0205078-.0283203-.0205078-.0429688,0-.0517578.0302734-.078125.0917969-.078125.0097656,0,.0185547.0029297.0283203.0078125.6435547.2880859,1.1591797.6621094,1.546875,1.1201172.3310547.3886719.4960938.7529297.4960938,1.0927734,0,.1660156-.046875.3007812-.1416016.4042969-.0751953.0908203-.1679688.1357422-.2763672.1357422-.1279297,0-.2226562-.0478516-.2841797-.1425781-.0517578-.0800781-.1279297-.2597656-.2265625-.5390625-.0195312-.0712891-.0566406-.1748047-.1142578-.3125Zm-.5390625,6.1943359h-3.0927734v3.2001953c0,.2695312-.1806641.4042969-.5400391.4042969-.2314453,0-.3476562-.1113281-.3476562-.3339844l.0712891-3.6181641c0-2.3554688-.0234375-3.8339844-.0712891-4.4345703.3837891.1416016.7216797.3125,1.0146484.5107422h2.8388672c.2695312-.2880859.4414062-.4326172.5175781-.4326172.0751953,0,.2646484.1298828.5673828.390625.1660156.1416016.2480469.2431641.2480469.3046875,0,.0947266-.1298828.2294922-.3896484.4042969v1.9228516l.0419922,4.1083984c0,.4296875-.1601562.7402344-.4824219.9296875-.2167969.1269531-.4492188.1914062-.6953125.1914062-.0947266,0-.1533203-.078125-.1767578-.234375-.0332031-.1845703-.1210938-.3212891-.2626953-.4111328-.1513672-.0996094-.4208984-.1943359-.8085938-.2841797-.0380859-.0097656-.0566406-.0380859-.0566406-.0849609,0-.0615234.0234375-.0927734.0703125-.0927734.6005859.0429688,1.0361328.0644531,1.3056641.0644531.1660156,0,.2480469-.0878906.2480469-.2626953v-2.2421875Zm0-2.3203125v-1.5888672h-3.0927734v1.5888672h3.0927734Zm0,1.9580078v-1.5957031h-3.0927734v1.5957031h3.0927734Zm3.2070312.2626953c.8613281-.3828125,1.6650391-.8486328,2.4121094-1.3974609.4833984-.3496094.8164062-.6601562,1.0009766-.9296875.6806641.4492188,1.0214844.7568359,1.0214844.9228516,0,.0947266-.0800781.1416016-.2412109.1416016-.1044922,0-.2480469-.0185547-.4326172-.0566406-1.0976562.7138672-2.3505859,1.2558594-3.7607422,1.625v1.6533203c0,.3066406.1142578.4941406.3408203.5605469.2226562.0703125.7236328.1054688,1.5039062.1054688.671875,0,1.1113281-.015625,1.3203125-.0488281.1982422-.0283203.359375-.0898438.4824219-.1845703.2363281-.1894531.4912109-.7333984.765625-1.6318359.0146484-.0332031.0429688-.0498047.0859375-.0498047.0605469,0,.0917969.0283203.0917969.0849609-.0048828.0898438-.0234375.3427734-.0566406.7587891-.0195312.2460938-.0283203.4091797-.0283203.4902344,0,.1083984.0566406.1914062.1699219.2480469.15625.0664062.234375.1826172.234375.3476562,0,.2597656-.2363281.4541016-.7099609.5820312-.4677734.1279297-1.234375.1914062-2.2988281.1914062-1.2392578,0-2.0263672-.0996094-2.3623047-.2978516-.2841797-.1708984-.4257812-.5107422-.4257812-1.0214844l.0283203-2.3134766c0-1.2861328-.0185547-2.1523438-.0566406-2.5966797.6484375.0800781,1.0576172.1445312,1.2275391.1914062.1230469.0380859.1845703.0898438.1845703.15625,0,.1279297-.1660156.2578125-.4970703.390625v2.078125Zm.0361328-6.3076172c.9169922-.4541016,1.7216797-.953125,2.4121094-1.4970703.4628906-.3828125.7636719-.6875.9013672-.9150391.6757812.4355469,1.0136719.7353516,1.0136719.9013672,0,.1132812-.1015625.1699219-.3046875.1699219-.0996094,0-.2197266-.0136719-.3613281-.0419922-.9941406.6855469-2.2138672,1.2529297-3.6611328,1.7021484v1.2207031c0,.2880859.1132812.4658203.3398438.5322266.2324219.0664062.7568359.0996094,1.5751953.0996094.6435547,0,1.1025391-.03125,1.3769531-.0927734.2167969-.046875.3779297-.1279297.4824219-.2412109.203125-.2216797.40625-.6669922.6103516-1.3339844.0136719-.0371094.0419922-.0566406.0849609-.0566406.0517578,0,.078125.0234375.078125.0712891-.0283203.6386719-.0429688.9833984-.0429688,1.0361328v.0488281c0,.1230469.0634766.2011719.1914062.234375.1513672.0517578.2275391.1699219.2275391.3544922,0,.2558594-.2324219.4472656-.6953125.5751953-.5019531.1279297-1.2587891.1914062-2.2705078.1914062-1.2910156,0-2.1025391-.0966797-2.4335938-.2910156-.2744141-.15625-.4121094-.4892578-.4121094-1l.0146484-2.1923828c0-1.1640625-.0234375-1.9726562-.0712891-2.4267578.6669922.0800781,1.0830078.1464844,1.2490234.1982422.1279297.0429688.1914062.1064453.1914062.1923828,0,.1181641-.1650391.2431641-.4960938.3759766v2.1845703Z"/>
        <path class="cls-1" d="m140.7753364,317.2915039c0-.046875.0283203-.0703125.0849609-.0703125.0517578,0,.0830078.0205078.0927734.0634766.046875.2558594.0703125.5419922.0703125.8583984,0,.5722656-.0947266,1.0361328-.2832031,1.390625-.15625.2978516-.34375.4472656-.5605469.4472656-.1230469,0-.2246094-.046875-.3056641-.1416016-.0664062-.0810547-.0986328-.1777344-.0986328-.2910156,0-.1796875.078125-.3408203.2333984-.4824219.4736328-.4404297.7285156-1.03125.7666016-1.7744141Zm.8867188-1.234375v.15625c0,.2460938-.1650391.3691406-.4960938.3691406-.2412109,0-.3623047-.1015625-.3623047-.3056641l.0712891-4.2851562c0-1.4472656-.0283203-2.5-.0849609-3.1572266.3164062.1230469.640625.2880859.9716797.4970703h3.0439453c.3164062-.3886719.5107422-.5820312.5820312-.5820312.0849609,0,.3261719.1748047.7236328.5244141.1367188.1142578.2050781.2109375.2050781.2910156,0,.0859375-.0683594.1279297-.2050781.1279297h-2.2070312v1.7597656h.7871094c.2607422-.359375.4287109-.5390625.5039062-.5390625.0761719,0,.2890625.15625.6386719.4677734.1279297.1142578.1914062.2109375.1914062.2910156,0,.0947266-.0634766.1416016-.1914062.1416016h-1.9296875v1.7177734h.7587891c.2841797-.3505859.4619141-.5253906.5322266-.5253906.0664062,0,.2744141.15625.625.46875.1269531.0986328.1914062.1914062.1914062.2763672,0,.0947266-.0644531.1416016-.1914062.1416016h-1.9160156v1.8027344h.9863281c.2597656-.3027344.4208984-.4541016.4824219-.4541016.0751953,0,.2695312.1416016.5820312.4257812.15625.1318359.2333984.2431641.2333984.3330078,0,.0664062-.1269531.1777344-.3828125.3330078-.1132812,1.6943359-.3125,2.9404297-.5957031,3.7392578-.1464844.4121094-.3310547.7216797-.5537109.9296875-.2597656.2597656-.5742188.390625-.9433594.390625-.0947266,0-.1542969-.0117188-.1777344-.0361328-.0234375-.0234375-.0419922-.0800781-.0566406-.1699219-.0332031-.1796875-.125-.3173828-.2763672-.4111328-.15625-.0996094-.4541016-.2177734-.8945312-.3554688-.0332031-.0136719-.0498047-.0419922-.0498047-.0849609,0-.0703125.0292969-.1015625.0859375-.0917969.6855469.0898438,1.1748047.1347656,1.46875.1347656.1748047,0,.3095703-.0615234.4042969-.1845703.0898438-.1181641.1796875-.3291016.2695312-.6318359.2314453-.7568359.4013672-1.9248047.5107422-3.5048828h-3.3349609Zm-.1279297,1.234375v-.0205078c0-.0429688.0244141-.0644531.0712891-.0644531.0234375,0,.0449219.0097656.0634766.0283203.4736328.4873047.7099609,1.0263672.7099609,1.6181641,0,.203125-.0546875.3613281-.1630859.4746094-.0810547.0908203-.1777344.1357422-.2910156.1357422-.1748047,0-.2626953-.1162109-.2626953-.3476562l.0361328-.8017578c0-.3925781-.0546875-.7333984-.1640625-1.0224609Zm.1279297-5.8388672h1.4550781v-1.7597656h-1.4550781v1.7597656Zm0,.3613281v1.7177734h1.4550781v-1.7177734h-1.4550781Zm0,2.0791016v1.8027344h1.4550781v-1.8027344h-1.4550781Zm.7451172,3.171875c-.0097656-.0146484-.0136719-.0263672-.0136719-.0361328,0-.046875.0283203-.0703125.0849609-.0703125.0283203,0,.0517578.0068359.0703125.0214844.6582031.4775391.9863281.9414062.9863281,1.390625,0,.3779297-.1162109.5673828-.3476562.5673828-.1132812,0-.1894531-.0332031-.2265625-.0996094-.0380859-.0517578-.0644531-.1533203-.078125-.3046875-.0566406-.5722656-.2158203-1.0625-.4755859-1.46875Zm.8369141-.2626953c-.0087891-.0146484-.0136719-.0283203-.0136719-.0429688,0-.0419922.0253906-.0634766.078125-.0634766.0087891,0,.0185547.0029297.0283203.0068359.3447266.1142578.6289062.2792969.8515625.4970703.1982422.1943359.2978516.3896484.2978516.5888672,0,.2695312-.1015625.4042969-.3056641.4042969-.1230469,0-.2148438-.1113281-.2763672-.3330078-.1367188-.4355469-.3574219-.7880859-.6601562-1.0576172Zm6.421875-2.7314453c.2880859,1.7402344.7919922,3.1259766,1.5107422,4.1572266.6816406.9794922,1.4238281,1.6865234,2.2275391,2.1220703.0283203.0136719.0429688.0380859.0429688.0703125,0,.0478516-.0283203.0761719-.0849609.0859375-.1708984.0322266-.3007812.0966797-.390625.1914062-.0800781.0898438-.1582031.2363281-.234375.4394531-.0371094.0947266-.1064453.1416016-.2050781.1416016-.0664062,0-.1591797-.0585938-.2773438-.1767578-.7421875-.7431641-1.3378906-1.5751953-1.7871094-2.4980469-.5869141-1.2294922-.9746094-2.7402344-1.1640625-4.5332031h-1.4189453c-.0517578,1.6738281-.2128906,2.9775391-.4824219,3.9091797-.3876953,1.4472656-1.0859375,2.6445312-2.0927734,3.5898438-.0097656.0097656-.0244141.0146484-.0429688.0146484-.0849609,0-.1279297-.0332031-.1279297-.0996094,0-.0136719.0048828-.0263672.0146484-.0351562.6708984-.9365234,1.1611328-2.0742188,1.46875-3.4130859.2695312-1.1826172.4042969-3.0527344.4042969-5.6123047,0-1.7734375-.0283203-2.9746094-.0849609-3.6044922.3779297.1660156.7402344.3505859,1.0849609.5537109h3.3134766c.2890625-.2978516.4609375-.4472656.5185547-.4472656.0849609,0,.2832031.1308594.5957031.390625.15625.1328125.234375.2441406.234375.3339844s-.1259766.2197266-.3759766.3896484v1.5117188l.0566406,2.9726562c0,.2597656-.1845703.3896484-.5537109.3896484-.2509766,0-.3759766-.1201172-.3759766-.3613281v-.4824219h-1.7734375Zm1.7734375-.3623047v-3.9726562h-3.5263672v2.0214844c0,.9228516-.0048828,1.5732422-.0146484,1.9511719h3.5410156Z"/>
      </g>
      <circle class="cls-3" cx="170.7369751" cy="106.3517241" r="6.5540565"/>
      <g>
        <g>
          <path class="cls-1" d="m190.8876411,320.5595703l4.3017578-14.7763672c-1.4296875,1.0429688-2.9130859,1.8828125-4.4492188,2.5214844l-.0546875-.7558594c2.7871094-1.2939453,4.8769531-2.7724609,6.2705078-4.4355469h.8896484l-5.1064453,17.4462891h-1.8515625Z"/>
          <path class="cls-1" d="m206.0624457,311.7822266c-1.2763672-1.4736328-1.9150391-2.8847656-1.9150391-4.2333984,0-.6738281.2451172-1.3857422.7353516-2.1367188.4892578-.75,1.1074219-1.3212891,1.8535156-1.7119141.7460938-.3916016,1.6044922-.5869141,2.5751953-.5869141,1.1142578,0,1.9677734.2724609,2.5615234.8164062.5927734.5439453.8896484,1.2246094.8896484,2.0419922,0,.5039062-.1171875.9707031-.3505859,1.4023438-.3417969.6474609-.7998047,1.2128906-1.375,1.6982422s-1.5732422,1.1914062-2.9931641,2.1171875c.8535156.9794922,1.4511719,1.8398438,1.7929688,2.5820312.3417969.7412109.5126953,1.4853516.5126953,2.2314453,0,1.3925781-.4902344,2.5634766-1.4697266,3.5117188s-2.2333984,1.4228516-3.7617188,1.4228516c-1.2763672,0-2.296875-.3417969-3.0605469-1.0253906-.7636719-.6826172-1.1455078-1.4560547-1.1455078-2.3183594,0-.5751953.1660156-1.1552734.4990234-1.7392578.4394531-.7636719,1.0732422-1.5009766,1.9003906-2.2109375.5576172-.4677734,1.4746094-1.0878906,2.7509766-1.8613281Zm.4306641.4589844c-.9433594.65625-1.6083984,1.2001953-1.9951172,1.6308594-.5664062.6201172-1.0019531,1.3017578-1.3076172,2.0429688s-.4580078,1.4580078-.4580078,2.1503906c0,.6650391.2265625,1.2128906.6806641,1.6445312.453125.4316406,1.0576172.6474609,1.8134766.6474609.9433594,0,1.75-.3457031,2.4199219-1.0380859.6689453-.6923828,1.0039062-1.5595703,1.0039062-2.6025391,0-.6376953-.1542969-1.2958984-.4648438-1.9746094s-.8740234-1.5126953-1.6923828-2.5009766Zm1.1191406-1.5234375c1.3837891-1.0341797,2.3193359-1.9238281,2.8046875-2.6699219s.7275391-1.5185547.7275391-2.3183594c0-.6386719-.1904297-1.1464844-.5722656-1.5234375-.3828125-.3779297-.8964844-.5664062-1.5439453-.5664062-.5302734,0-1.0380859.1484375-1.5234375.4443359-.4853516.296875-.8681641.7333984-1.1464844,1.3076172-.2783203.5761719-.4179688,1.1513672-.4179688,1.7265625,0,.5117188.1171875,1.0380859.3505859,1.5771484s.6748047,1.2128906,1.3212891,2.0224609Z"/>
        </g>
        <g>
          <path class="cls-1" d="m217.9804145,316.6171875l-.0771484-.0224609c-.0664062,0-.1689453.0527344-.3085938.1591797-.2529297.1904297-.4707031.4033203-.6542969.6367188-.0371094.0478516-.0732422.0917969-.1103516.1318359-.0693359-.0068359-.1386719-.015625-.2089844-.0273438.1132812-.1865234.2275391-.3378906.3408203-.4550781.2636719-.2714844.4462891-.4453125.5488281-.5224609.2050781-.1572266.3974609-.2744141.5771484-.3515625.0908203-.0400391.1826172-.0595703.2744141-.0595703.0800781,0,.1474609.0234375.2001953.0712891.0527344.046875.0800781.0986328.0800781.1533203,0,.1279297-.2148438.6113281-.6425781,1.4501953-.1210938.2412109-.2001953.40625-.2363281.4941406.2011719-.2128906.4589844-.5039062.7744141-.8730469.2226562-.2636719.5234375-.5644531.9003906-.9013672.1464844-.1279297.3125-.2265625.5-.2958984.1865234-.0693359.3398438-.1044922.4609375-.1044922.0986328,0,.1845703.0332031.2578125.0986328.0478516.0439453.0712891.1083984.0712891.1923828,0,.3144531-.2099609.8623047-.6308594,1.6416016l-.2529297.4833984-.0332031.0878906.5605469-.6640625c.171875-.1904297.2890625-.3183594.3515625-.3847656.1171875-.1132812.2011719-.2011719.2519531-.2636719.3115234-.3730469.6328125-.6601562.9638672-.8623047.3310547-.2011719.5927734-.3017578.7832031-.3017578.0800781,0,.1513672.0322266.2138672.0966797.0625.0634766.0927734.1503906.0927734.2607422,0,.0732422-.0068359.1425781-.0214844.2080078-.0292969.1210938-.0878906.2841797-.1757812.4892578-.0078125.0185547-.1669922.3105469-.4775391.8779297-.1796875.3261719-.3173828.5683594-.4121094.7255859l-.2744141.4335938c-.1357422.234375-.2382812.3867188-.3076172.4560547-.2119141.2119141-.3183594.3837891-.3183594.515625,0,.0185547.0126953.0371094.0380859.0546875.0185547,0,.0859375-.0361328.203125-.109375.2382812-.1464844.53125-.3789062.8789062-.6972656l.1699219.0439453c-.1757812.296875-.4619141.5751953-.859375.8369141s-.7548828.3925781-1.0732422.3925781c-.0771484,0-.1425781-.0292969-.1982422-.0878906,0-.046875.0078125-.0869141.0224609-.1171875.0146484-.03125.0732422-.1308594.1757812-.2998047l.9111328-1.4775391c.4912109-.7939453.7841797-1.2988281.8789062-1.515625.1386719-.3183594.2089844-.5048828.2089844-.5595703,0-.0400391-.0126953-.0742188-.0390625-.1015625-.0253906-.0273438-.0566406-.0410156-.0927734-.0410156-.0517578,0-.1171875.0214844-.1982422.0654297-.2119141.1171875-.4589844.3242188-.7412109.6210938-.5566406.5927734-.9804688,1.0634766-1.2734375,1.4111328-.4648438.5595703-.8623047,1.140625-1.1923828,1.7402344-.0761719.1435547-.1621094.2587891-.2568359.3466797-.0800781.0107422-.1591797.015625-.2353516.015625-.1171875,0-.2138672-.0107422-.2900391-.0322266.0107422-.0664062.0625-.1738281.1533203-.3242188.1757812-.2822266.4570312-.7783203.8447266-1.4882812s.6416016-1.1923828.7626953-1.4472656c.1201172-.2539062.1972656-.4414062.2304688-.5625.0107422-.0400391.015625-.0820312.015625-.1259766,0-.0625-.0175781-.1152344-.0546875-.1591797-.0214844-.0332031-.0488281-.0498047-.0820312-.0498047-.0585938,0-.1445312.0332031-.2578125.0986328-.1689453.0878906-.4052734.2949219-.7089844.6210938-.5273438.5595703-.8232422.8818359-.8896484.9658203-.4501953.5791016-.7851562,1.0458984-1.0048828,1.4003906-.0107422.0224609-.0810547.1435547-.2109375.3652344s-.2167969.3740234-.2607422.4589844c-.0556641.0859375-.1269531.1660156-.2148438.2412109-.0947266.0107422-.1757812.0166016-.2412109.0166016-.0478516,0-.0957031-.0068359-.1425781-.0205078l-.0224609-.078125c0-.0546875.0273438-.1279297.0830078-.2197266.0214844-.0371094.3222656-.6113281.9013672-1.7236328l.9785156-1.9160156c.0107422-.0253906.0185547-.0644531.0224609-.1162109Z"/>
          <path class="cls-1" d="m224.7704536,316.5292969c-.0761719,0-.1337891.0048828-.1699219.015625-.171875.0917969-.2988281.1708984-.3789062.2363281-.1650391.1289062-.3203125.2783203-.4667969.4501953l-.3183594.0712891c.2822266-.3798828.5947266-.6787109.9394531-.8945312s.6152344-.3242188.8134766-.3242188c.0839844,0,.1474609.0214844.1894531.0634766s.0625.0957031.0625.1621094c0,.1796875-.1025391.4775391-.3066406.8955078-.0263672.0507812-.0869141.1826172-.1816406.3955078-.2197266.4794922-.4541016.9326172-.7041016,1.3613281-.0800781.1386719-.1679688.3037109-.2636719.4941406-.0507812.1025391-.0966797.1884766-.1367188.2578125-.1142578.1904297-.1708984.3310547-.1708984.4228516,0,.0253906.0107422.0488281.0302734.0683594.0205078.0205078.0449219.0302734.0742188.0302734.0400391,0,.1015625-.0214844.1835938-.0654297.1376953-.0732422.3017578-.1953125.4931641-.3652344.1904297-.1699219.3583984-.3652344.5039062-.5849609h.2421875c-.1113281.1972656-.2753906.4248047-.4912109.6806641-.2167969.2568359-.4628906.4619141-.7382812.6152344-.2070312.1171875-.390625.1757812-.5507812.1757812-.1230469,0-.2128906-.0244141-.2705078-.0742188s-.0859375-.1142578-.0859375-.1953125c0-.28125.2070312-.8125.6210938-1.5917969l.8837891-1.6699219c.0917969-.171875.1552734-.3076172.1923828-.40625.0214844-.0625.0322266-.1044922.0322266-.1259766,0-.0185547-.0087891-.0517578-.0273438-.0986328Zm.3134766-2.4658203c0-.1279297.0488281-.2421875.1484375-.34375.0986328-.1005859.2138672-.1503906.3457031-.1503906.1240234,0,.2304688.0439453.3183594.1318359s.1318359.1884766.1318359.3017578c0,.1464844-.0546875.2802734-.1650391.4003906-.0654297.0703125-.1865234.1044922-.3623047.1044922-.1171875,0-.2158203-.0400391-.2958984-.1201172-.0810547-.0810547-.1210938-.1884766-.1210938-.3242188Z"/>
          <path class="cls-1" d="m227.3134223,316.7539062c-.0078125-.0292969-.0175781-.0488281-.0302734-.0605469-.0136719-.0107422-.0283203-.0166016-.046875-.0166016-.1904297,0-.4873047.3007812-.8896484.9013672-.0400391.0029297-.0693359.0048828-.0878906.0048828-.0224609,0-.0585938-.0019531-.1103516-.0048828.0771484-.1542969.2021484-.3476562.3759766-.5820312s.3583984-.4296875.5546875-.5849609c.1953125-.15625.3808594-.2724609.5566406-.3486328.0585938-.0263672.1113281-.0390625.1591797-.0390625.0185547,0,.0458984.0019531.0820312.0058594.0664062.0654297.0986328.1328125.0986328.2021484,0,.0439453-.0039062.0878906-.0136719.1318359-.0087891.0439453-.0283203.1123047-.0576172.203125-.109375.3154297-.1894531.5371094-.2412109.6650391l-.3125.8125c-.0732422.1875-.1445312.3847656-.2138672.59375.0292969-.0371094.0546875-.0712891.0771484-.1044922.3398438-.4980469.7080078-.9746094,1.1015625-1.4306641.3935547-.4550781.71875-.7607422.9755859-.9140625.1826172-.1132812.3564453-.1699219.5214844-.1699219.125,0,.2216797.0332031.2910156.1015625.0703125.0673828.1044922.1542969.1044922.2607422,0,.0664062-.0068359.1298828-.0214844.1923828-.0253906.1396484-.0830078.3330078-.1708984.5820312s-.3183594.7890625-.6923828,1.6201172l-.5498047,1.2675781-.0214844.0722656c0,.0214844.0126953.0546875.0380859.0986328.2050781-.0439453.5126953-.3701172.9228516-.9775391l.2246094.0048828c-.1132812.2050781-.2998047.46875-.5595703.7910156-.2011719.2451172-.4169922.4355469-.6484375.5712891-.1279297.0771484-.2646484.1152344-.4111328.1152344-.0878906,0-.1542969-.0185547-.1982422-.0546875-.0439453-.0371094-.0654297-.0771484-.0654297-.1210938,0-.1943359.0927734-.4941406.2792969-.9003906l.796875-1.7412109.3076172-.7294922c.0693359-.1611328.1113281-.2734375.1259766-.3349609.0146484-.0625.0224609-.125.0224609-.1875,0-.046875-.0136719-.0849609-.0390625-.1123047s-.0585938-.0410156-.0986328-.0410156c-.0585938,0-.1269531.0234375-.203125.0712891-.2714844.1611328-.5693359.4375-.8955078.8291016-.46875.5634766-.7802734.96875-.9345703,1.2138672-.3837891.6074219-.71875,1.2285156-1.0039062,1.8613281-.0439453.1025391-.0966797.1777344-.1591797.2255859-.0761719.0107422-.1347656.015625-.1757812.015625-.046875,0-.1201172-.0087891-.2197266-.0273438-.0146484-.0292969-.0214844-.0527344-.0214844-.0712891,0-.0292969.0185547-.0947266.0546875-.1972656.0810547-.2382812.2783203-.7392578.5927734-1.5048828l.1269531-.296875.703125-1.8613281Z"/>
        </g>
      </g>
      <g>
        <g>
          <path class="cls-2" d="m200.3513211,104.8263803h1.4494415c.4741808,0,1.0743731.0814556,1.0743731.6327376v4.9637686s-1.6276645.5897085-4.5761382.5897085c-2.9450941,0-6.8937962-1.5973169-6.8937962-6.0242691,0-4.4124085,4.1106478-6.1434523,7.1540956-6.1434523,1.3636406,0,3.0757956.0811798,3.0757956.8369033v1.4784096c-1.157484-.9298176-1.6239401-1.0948577-3.3808577-1.0948577-1.7562969,0-4.8984433,1.1386547-4.8984433,4.8192543,0,3.6850323,4.2174161,5.873713,7.7182157,4.4888981v-2.8218507c0-.5913546-.0343479-1.7252503-.7226861-1.7252503Z"/>
          <path class="cls-2" d="m222.3902809,110.7172581h3.7254385c-1.0318865-.3782411-1.4545454-1.5956616-1.792369-2.4830522-.3495489-.88408-3.0434477-7.3232142-3.3458199-8.2159846-.2974062-.8800106-.72779-.8800106-1.0683035-.8800106h-2.1421938c1.0325072.3374098.4697685,1.0557507.300372,1.5558649-.17105.5099082-3.7708929,9.2664245-3.7708929,9.2664245-1.2443884-.334444-4.362255-4.8462408-4.362255-4.8462408,4.1578227-1.1787274,3.5122471-5.9760486-.5479116-5.9760486h-4.6666981c.9376021.2037426.8526978,1.1796929.8526978,1.931761v7.9677553c0,1.0952025-.3438242,1.3851598-.8927704,1.6795312h3.4158953c-.9376021-.4183137-.6893727-1.3888843-.6893727-1.8458911v-8.5948465h1.8458912c.981675,0,1.7087753,1.1807275,1.7087753,1.9842485,0,1.2969449-1.0265067,1.8058092-2.053979,2.1866806-1.0245065.3741718-.468801,1.2178343,0,1.8967233.4795606.6712331,1.8448566,2.5649125,2.6567921,3.4910744.816348.923049,1.5323438.8820108,1.9283796.8820108h3.0825547c-1.1952097-.3782411-.5590851-1.3019799-.3923785-1.7613317.1711171-.4735601.947672-2.4477479.947672-2.4477479h4.615864s.5580505,1.4289661,1.0709934,2.6952186c.515219,1.2683216.1295979,1.4323365-.4263814,1.5138611Zm-4.7940219-5.5551232l1.7623663-4.5108219,1.8738247,4.5108219h-3.636191Z"/>
          <path class="cls-2" d="m259.863327,110.7172581h3.7311622c-1.028159-.3782411-1.4568904-1.5956616-1.7919552-2.4830522-.3432005-.88408-3.0424821-7.3232142-3.3405091-8.2159846-.3020963-.8800106-.72779-.8800106-1.0716142-.8800106h-2.1378457c1.0291937.3374098.4694879,1.0557507.3014066,1.5558649-.1765016.5099082-3.7678609,9.2664245-3.7678609,9.2664245-.2411253.5462563-.5927433.5593609-.8065557.7567581h3.0737263c-1.1985912-.3782411-.5523258-1.3019799-.3869316-1.7613317.1649804-.4735601.940292-2.4477479.940292-2.4477479h4.6282808s.5583953,1.4289661,1.0685794,2.6952186c.5061837,1.2683216.1232525,1.4323365-.4401748,1.5138611Zm-4.7825017-5.5551232l1.7485002-4.5108219,1.8893433,4.5108219h-3.6378435Z"/>
          <path class="cls-2" d="m246.6964087,110.9364503c.4290733-.3865867.8160049-.678889.8160049-2.027365v-7.9596764c0-.6315054-.0329659-1.3468115-.8160049-1.6074558h3.301747c-.3404446.2990615-.7469641.6762681-.7469641,1.5205513v8.0465808c0,.7169706-.156221,1.7721005.7991757,2.027365h-3.3539586Z"/>
          <path class="cls-2" d="m228.976254,101.8334199s-.0420728,6.3582993-.0420728,7.0756654c0,.7169706.0942844,1.7721005,1.0325762,2.027365h-3.1290417c.4314183-.3865867.7746218-.678889.7746218-2.027365,0-1.3440435.0801452-7.332999.0801452-7.9596764,0-.6315054-.0801452-1.3468115-.854767-1.6074558h2.4009068l7.1857535,8.8922527v-7.2461038c0-.4627315.0899415-1.3470874-.893736-1.6842213h3.2091179c-.3866533.2987167-.9503618.4192793-.9503618,1.6455282v10.4518421s-.886425.1622905-2.3446949-1.5660037c-1.457856-1.7242939-6.4684472-8.0018273-6.4684472-8.0018273Z"/>
          <path class="cls-2" d="m249.4276903,119.8977437c-9.4132653-7.8061544-13.0103494-16.9964341-.1380815-29.5426725.4003837-.3856307.786347-.1552651.468801.2044323-5.6474074,6.3435394-11.931976,16.503355-.1313912,28.9479291.1859479.1990525.1118032.600813-.1993284.3903112Z"/>
        </g>
        <path class="cls-2" d="m266.1724828,110.8177562c-.8723831,0-1.5821201-.709737-1.5821201-1.5821201s.709737-1.5821201,1.5821201-1.5821201,1.5821201.709737,1.5821201,1.5821201-.709737,1.5821201-1.5821201,1.5821201Zm0-2.9633361c-.7616307,0-1.381216.6195852-1.381216,1.381216s.6195852,1.381216,1.381216,1.381216,1.381216-.6195852,1.381216-1.381216-.6195852-1.381216-1.381216-1.381216Z"/>
        <path class="cls-2" d="m266.5540829,110.0939911c-.0349228-.0325684-.0559157-.058172-.0559157-.1815789v-.2049261c0-.1210526-.037179-.2793823-.218856-.2793823h-.4353577v.6658874h-.3143051v-1.6996412h.8008698c.3166595,0,.5239399.1956069.5239399.4609612,0,.1118314-.0372771.2142454-.1047684.2910559-.065235.0745543-.1211507.1047684-.2654524.1373368.1652947.0233473.3259787.0721999.3259787.3912137v.1722596c0,.1700034.0628806.2142454.109379.2468139h-.3655121Zm-.2654524-1.4341887h-.444677v.5028489h.39347c.174614,0,.2817367-.0907404.2817367-.2653543,0-.1537191-.0908385-.2374946-.2305297-.2374946Z"/>
      </g>
      <g>
        <path class="cls-1" d="m187.1737739,178.453125c-.3125.9833984-.8564453,1.7734375-1.6318359,2.3701172-1.0791016.8652344-2.6230469,1.4375-4.6328125,1.7167969-.0615234.0087891-.0927734-.0400391-.0927734-.1494141,0-.0517578.0166016-.0800781.0498047-.0849609,1.9912109-.4921875,3.4433594-1.2373047,4.3564453-2.2353516.4345703-.4775391.7636719-1.0449219.9863281-1.7021484h-4.0654297c-.4072266,0-.7568359.0283203-1.0507812.0849609l-.1269531-.546875c.3925781.0664062.7851562.0996094,1.1777344.0996094h4.1855469c.0527344-.25.0878906-.4345703.1064453-.5537109.0429688-.2646484.0644531-.5078125.0644531-.7304688v-.15625c.6523438.0947266,1.0517578.1630859,1.1982422.2060547.1474609.046875.2207031.1113281.2207031.1914062,0,.1416016-.1630859.2675781-.4902344.3759766-.0283203.1425781-.0703125.3505859-.1269531.625l-.0146484.0419922h4.5478516c.4121094-.4921875.6533203-.7373047.7236328-.7373047.0810547,0,.3623047.1933594.8447266.5810547.203125.1660156.3046875.2958984.3046875.390625,0,.0849609-.0634766.1279297-.1914062.1279297h-6.0595703c.7382812,1.0263672,1.7197266,1.7900391,2.9453125,2.2910156,1.0634766.4355469,2.2558594.6699219,3.5751953.703125.0429688,0,.0644531.0205078.0644531.0634766,0,.0478516-.0214844.078125-.0644531.0927734-.2080078.0566406-.3642578.1386719-.4677734.2480469-.0947266.1035156-.1875.2666016-.2773438.4892578-.0322266.1181641-.1152344.1777344-.2480469.1777344-.1611328,0-.3974609-.0429688-.7089844-.1279297-.8427734-.2177734-1.6679688-.5673828-2.4765625-1.0498047-1.0830078-.6289062-1.9580078-1.5634766-2.625-2.8027344Zm-.4609375-2.5400391v-1.8095703h-3.1865234c-.3876953,0-.7158203.0283203-.9853516.0849609l-.1425781-.5605469c.3876953.0761719.7597656.1142578,1.1142578.1142578h3.2001953v-1.6816406h-4.0087891c-.3925781,0-.7285156.0283203-1.0078125.0849609l-.1416016-.5673828c.359375.0800781.7373047.1201172,1.1347656.1201172h5.6191406c.2939453-.4208984.5839844-.9501953.8730469-1.5888672.1367188-.3076172.2294922-.5488281.2763672-.7236328.8515625.3447266,1.2773438.5820312,1.2773438.7089844,0,.1328125-.1982422.2109375-.5957031.234375-.4355469.5205078-.8994141.9765625-1.390625,1.3691406h2.6884766c.4121094-.4677734.6533203-.7021484.7236328-.7021484.0712891,0,.3242188.1748047.7597656.5253906.2216797.1796875.3330078.3115234.3330078.3964844,0,.0947266-.0634766.1425781-.1914062.1425781h-5.4492188v1.6816406h2.9238281c.3828125-.4453125.6142578-.6669922.6953125-.6669922.0654297,0,.3164062.1699219.7519531.5107422.203125.15625.3046875.28125.3046875.3759766s-.0615234.1416016-.1845703.1416016h-4.4912109v1.8095703h4.2285156c.4121094-.4775391.6582031-.7167969.7382812-.7167969.0712891,0,.3339844.1845703.7880859.5537109.2119141.1796875.3183594.3115234.3183594.3974609,0,.0849609-.0683594.1269531-.2050781.1269531h-11.359375c-.4023438,0-.7617188.0283203-1.078125.0859375l-.1425781-.546875c.3554688.0664062.7568359.0996094,1.2060547.0996094h4.6054688Zm-2.6259766-6.3076172c-.0185547-.0146484-.0283203-.0302734-.0283203-.0498047,0-.0566406.0332031-.0849609.0996094-.0849609.0097656,0,.0185547.0019531.0283203.0068359.5917969.1796875,1.0458984.4208984,1.3623047.7236328.2646484.2509766.3974609.5068359.3974609.7666016,0,.3779297-.1728516.5673828-.5175781.5673828-.2177734,0-.3642578-.1298828-.4404297-.3896484-.1982422-.6630859-.4990234-1.1757812-.9013672-1.5400391Z"/>
        <path class="cls-1" d="m184.2645942,187.6748047v1.2490234c.7138672.2744141,1.2539062.5917969,1.6181641.9511719.3066406.3076172.4609375.6142578.4609375.921875,0,.15625-.0478516.2861328-.1425781.390625-.0800781.0898438-.1767578.1347656-.2900391.1347656-.2177734,0-.3642578-.125-.4404297-.3759766-.2412109-.6953125-.6435547-1.2724609-1.2060547-1.7314453v.9863281l.0429688,6.5126953c0,.2792969-.1894531.4189453-.5683594.4189453-.2783203,0-.4179688-.1201172-.4179688-.3613281,0-.0332031.0214844-.9462891.0634766-2.7392578.0429688-1.7265625.0732422-3.1757812.0927734-4.3496094-.7666016,1.7363281-1.6914062,3.1464844-2.7744141,4.2294922-.0097656.0087891-.0234375.0136719-.0429688.0136719-.0947266,0-.1416016-.0380859-.1416016-.1132812,0-.0146484.0048828-.0263672.0136719-.0351562,1.2724609-1.75,2.1835938-3.7841797,2.7324219-6.1025391h-1.3837891c-.1943359,0-.4658203.0283203-.8164062.0859375l-.1552734-.5322266c.3017578.0566406.6210938.0849609.9570312.0849609h1.5253906v-1.1640625c0-1.078125-.0234375-1.7998047-.0703125-2.1640625.6386719.0664062,1.0517578.1308594,1.2412109.1923828.1416016.046875.2128906.1132812.2128906.1982422,0,.1230469-.1699219.2558594-.5107422.3974609v2.5400391h.8300781c.3310547-.4160156.5390625-.6240234.6240234-.6240234.0712891,0,.2988281.1699219.6816406.5107422.1748047.1464844.2626953.2617188.2626953.3476562,0,.0849609-.0644531.1269531-.1914062.1269531h-2.2070312Zm1.1923828,9.1884766c-.0761719.0146484-.1142578-.0332031-.1142578-.1416016,0-.0332031.0146484-.0546875.0429688-.0644531,2.3554688-.8134766,4.3662109-2.0244141,6.03125-3.6328125.5722656-.5576172,1.0019531-1.0664062,1.2910156-1.5253906.7470703.4921875,1.1210938.8095703,1.1210938.9511719,0,.1132812-.1328125.1699219-.3974609.1699219-.0712891,0-.1582031-.0039062-.2626953-.0136719-1.1728516,1.1962891-2.4101562,2.1357422-3.7109375,2.8164062-1.1396484.6005859-2.4736328,1.0810547-4.0009766,1.4404297Zm.5673828-4.3212891h-.0214844c-.0712891,0-.1064453-.0488281-.1064453-.1484375,0-.0283203.0117188-.046875.0351562-.0566406.984375-.4121094,1.9589844-.9462891,2.9238281-1.6035156.8134766-.5585938,1.5107422-1.1308594,2.0927734-1.7167969.4638672-.4501953.8183594-.875,1.0644531-1.2773438.7285156.515625,1.0927734.8398438,1.0927734.9716797,0,.1044922-.109375.15625-.3271484.15625-.0898438,0-.2050781-.0097656-.3476562-.0283203-1.8154297,1.7880859-3.9511719,3.0224609-6.40625,3.703125Zm.2910156-4.0078125h-.0214844c-.0712891,0-.1064453-.0498047-.1064453-.1494141,0-.0283203.0117188-.046875.0351562-.0566406,1.5185547-.7050781,2.890625-1.6933594,4.1152344-2.9658203.5253906-.5390625.8447266-.9414062.9580078-1.2060547.7666016.4677734,1.1494141.7734375,1.1494141.9150391,0,.1181641-.125.1777344-.3759766.1777344-.0800781,0-.1777344-.0048828-.2910156-.0146484-.9179688.9033203-1.7978516,1.5986328-2.6396484,2.0859375-.7705078.4541016-1.7119141.8583984-2.8232422,1.2138672Z"/>
        <path class="cls-1" d="m191.3739692,203.2988281c-1.3525391.265625-2.7578125.4658203-4.2148438.6035156-1.0830078.1035156-2.7050781.2226562-4.8671875.3544922-.0898438.2929688-.1982422.4404297-.3261719.4404297-.0849609,0-.1611328-.109375-.2265625-.3271484-.0615234-.2128906-.1347656-.5927734-.2207031-1.1416016.46875.046875,1.2226562.0703125,2.2636719.0703125.6005859-.9697266,1.1396484-2.078125,1.6171875-3.3271484.2177734-.6054688.3525391-1.1044922.4052734-1.4970703.6523438.1894531,1.0664062.3261719,1.2412109.4111328.1699219.0761719.2558594.1611328.2558594.2558594,0,.15625-.1943359.2666016-.5820312.3330078-.7666016,1.6035156-1.5898438,2.8789062-2.46875,3.8242188h.0986328c2.0390625-.0136719,4.3115234-.1152344,6.8183594-.3046875-.5771484-.7998047-1.3291016-1.5253906-2.2558594-2.1787109-.0195312-.0136719-.0283203-.0302734-.0283203-.0488281,0-.0859375.0400391-.1279297.1201172-.1279297h.0214844c1.1777344.4677734,2.1328125,1.0449219,2.8662109,1.7304688.6201172.5771484.9296875,1.0957031.9296875,1.5546875,0,.1699219-.0517578.3076172-.15625.4111328-.0947266.0947266-.2128906.1416016-.3544922.1416016-.1181641,0-.2275391-.0585938-.3261719-.1767578-.0996094-.1230469-.2460938-.359375-.4404297-.7099609l-.1699219-.2910156Zm-.8447266,7.1660156h-6.3779297v.7382812c0,.2744141-.1943359.4111328-.5820312.4111328-.2509766,0-.3759766-.1152344-.3759766-.3476562l.0566406-3.1855469c0-1.2207031-.0234375-2.0927734-.0712891-2.6181641.3505859.1279297.7216797.3125,1.1142578.5537109h6.1230469c.3027344-.359375.4892578-.5390625.5605469-.5390625.0664062,0,.2744141.15625.6240234.4677734.1660156.1513672.2490234.2626953.2490234.3339844,0,.1083984-.1347656.2480469-.4042969.4179688v1.2490234l.0566406,3.1787109c0,.2695312-.1992188.4042969-.5966797.4042969-.25,0-.3759766-.1132812-.3759766-.3408203v-.7236328Zm0-.3613281v-3.7255859h-6.3779297v3.7255859h6.3779297Z"/>
        <path class="cls-1" d="m193.9852973,224.4736328c.0517578-.0097656.078125.0185547.078125.0849609,0,.0419922-.0175781.0732422-.0498047.0917969-.1992188.0996094-.3271484.1914062-.3837891.2773438-.046875.0751953-.078125.2050781-.0917969.3896484-.0146484.1376953-.0927734.2197266-.234375.2490234-.828125.1035156-1.8779297.1552734-3.1503906.1552734-1.6699219,0-2.9345703-.0820312-3.7958984-.2480469-.6240234-.1181641-1.1279297-.3027344-1.5107422-.5537109-.671875-.4296875-1.1894531-1.0546875-1.5537109-1.8730469-.4306641.6435547-.9775391,1.3125-1.6396484,2.0078125,0,.0615234-.0019531.1064453-.0068359.1347656,0,.3457031-.0634766.5185547-.1914062.5185547-.0712891,0-.1542969-.078125-.2480469-.234375-.0996094-.1611328-.2958984-.5224609-.5888672-1.0859375.2646484-.0654297.4863281-.1484375.6669922-.2480469.4824219-.2695312.9570312-.6142578,1.4257812-1.0361328v-3.7460938h-.9150391c-.4589844,0-.8134766.0332031-1.0644531.0996094l-.1416016-.5537109c.3115234.0566406.7138672.0859375,1.2060547.0859375h.8300781c.3076172-.3271484.4892578-.4902344.5458984-.4902344s.2509766.1396484.5820312.4189453c.1650391.1416016.2480469.2480469.2480469.3193359,0,.0898438-.1347656.2148438-.4042969.3759766v3.4482422c.3828125.6103516.8779297,1.0449219,1.4833984,1.3056641.8173828.3398438,2.2509766.5107422,4.2988281.5107422,1.5185547,0,3.0537109-.1347656,4.6054688-.4042969Zm-12.4521484-10.8417969c-.0097656-.0136719-.0146484-.0283203-.0146484-.0419922,0-.0576172.03125-.0859375.0927734-.0859375.0087891,0,.0185547.0029297.0283203.0078125.7470703.3076172,1.3007812.6552734,1.6601562,1.0429688.2841797.3027344.4257812.6005859.4257812.8935547,0,.2275391-.0566406.4023438-.1699219.5253906-.0947266.1035156-.2128906.15625-.3554688.15625-.1464844,0-.2529297-.0478516-.3193359-.1425781-.0566406-.0751953-.1083984-.2128906-.15625-.4111328-.1796875-.6953125-.5771484-1.34375-1.1914062-1.9443359Zm7.8330078,7.3076172c.0048828.5117188.0136719,1.0957031.0283203,1.7529297.0097656.4589844.0136719.7333984.0136719.8232422,0,.2509766-.1835938.3759766-.5527344.3759766-.2324219,0-.3476562-.1015625-.3476562-.3056641l.0419922-2.6464844h-2.46875v2.6894531c0,.2607422-.1796875.390625-.5390625.390625-.2412109,0-.3623047-.1064453-.3623047-.3193359l.0566406-4.4775391c0-1.7021484-.0185547-2.78125-.0566406-3.2353516.3642578.1611328.7070312.3359375,1.0292969.5253906h2.7529297c-.0283203-.0283203-.0693359-.0927734-.1210938-.1914062-.2695312-.5439453-.7421875-1.0712891-1.4189453-1.5820312-.0136719-.0146484-.0214844-.0292969-.0214844-.0429688,0-.0517578.03125-.078125.0927734-.078125h.0136719c.9697266.2841797,1.6230469.6337891,1.9589844,1.0498047.7041016-.5859375,1.28125-1.1533203,1.7304688-1.7021484h-4.9375c-.4306641,0-.8095703.0332031-1.1357422.0986328l-.1484375-.5458984c.40625.0566406.8339844.0849609,1.2841797.0849609h5.0722656c.2978516-.2978516.4873047-.4472656.5683594-.4472656.0654297,0,.2783203.1679688.6376953.5039062.1757812.1748047.2626953.2958984.2626953.3623047,0,.1464844-.2333984.234375-.7021484.2626953-.7714844.6289062-1.5986328,1.1777344-2.4833984,1.6455078.0283203.0566406.0429688.1259766.0429688.2060547,0,.15625-.0498047.28125-.1494141.3759766h2.4199219c.2646484-.3125.4326172-.46875.5029297-.46875.0761719,0,.2744141.1376953.5966797.4121094.1748047.1464844.2626953.2529297.2626953.3193359,0,.0751953-.1396484.1962891-.4189453.3613281v1.8662109l.0429688,4.015625c0,.3642578-.1894531.6455078-.5683594.8447266-.1699219.0849609-.3564453.1279297-.5605469.1279297-.1035156,0-.1679688-.0927734-.1914062-.2773438-.0234375-.1601562-.1201172-.2861328-.2910156-.3759766-.15625-.0751953-.4160156-.1484375-.7802734-.2197266-.0419922-.0048828-.0634766-.0332031-.0634766-.0849609,0-.0566406.0214844-.0849609.0634766-.0849609.5341797.0371094.953125.0566406,1.2558594.0566406.1660156,0,.2480469-.078125.2480469-.234375v-1.8310547h-2.6601562Zm-.8164062-4.0654297h-2.46875v1.6533203h2.46875v-1.6533203Zm0,3.7041016v-1.6884766h-2.46875v1.6884766h2.46875Zm.8164062-3.7041016v1.6533203h2.6601562v-1.6533203h-2.6601562Zm0,3.7041016h2.6601562v-1.6884766h-2.6601562v1.6884766Z"/>
        <path class="cls-1" d="m185.3358832,234.4394531c.0664062-.2314453.1582031-.5224609.2763672-.8730469.1474609-.4160156.234375-.6708984.2626953-.765625.4355469-1.2392578.8662109-2.1220703,1.2919922-2.6464844.3164062-.3974609.640625-.5966797.9716797-.5966797.6435547,0,1.1660156.421875,1.5683594,1.2636719.3496094.7333984.5244141,1.6240234.5244141,2.6748047,0,1.7919922-.4707031,3.2685547-1.4121094,4.4267578-.7939453.9746094-1.8916016,1.6933594-3.2919922,2.1572266-.1464844.046875-.2480469.0712891-.3046875.0712891-.0996094,0-.1494141-.0693359-.1494141-.2060547,0-.0615234.0732422-.1230469.2207031-.1845703,1.3613281-.5722656,2.3955078-1.4335938,3.0996094-2.5830078.6337891-1.0351562.9511719-2.2441406.9511719-3.625,0-1.1875-.1416016-2.1025391-.4257812-2.7460938-.2265625-.5205078-.5107422-.7802734-.8515625-.7802734-.2314453,0-.4628906.1845703-.6953125.5537109-.4589844.6904297-.8847656,1.7099609-1.2763672,3.0576172-.1845703.6484375-.2773438,1.1660156-.2773438,1.5537109,0,.0849609.0097656.2128906.0283203.3828125.0283203.1474609.0429688.2675781.0429688.3623047,0,.2412109-.1113281.3623047-.3339844.3623047-.1416016,0-.2832031-.0947266-.4257812-.2841797-.1269531-.1660156-.2265625-.3759766-.2978516-.6318359-.1279297-.4580078-.1914062-1.0595703-.1914062-1.8017578,0-.7714844.1015625-1.6669922.3056641-2.6894531.1464844-.6953125.2197266-1.1992188.2197266-1.5107422,0-.4306641-.0996094-.75-.2978516-.9580078-.0576172-.0566406-.0859375-.125-.0859375-.2060547,0-.0751953.0595703-.1132812.1777344-.1132812.0996094,0,.2431641.0830078.4326172.2480469.1748047.1474609.3173828.3105469.4257812.4902344.1748047.2880859.2626953.5888672.2626953.9003906,0,.1425781-.0332031.2744141-.0996094.3974609-.0898438.1376953-.1679688.2910156-.234375.4609375-.3681641.9130859-.5527344,1.9111328-.5527344,2.9941406,0,.3271484.0283203.6083984.0849609.8447266h.0566406Z"/>
      </g>
    </g>
  </g>
</svg>