<?xml version="1.0" encoding="UTF-8"?>
<svg id="_レイヤー_2" data-name="レイヤー 2" xmlns="http://www.w3.org/2000/svg" viewBox="0 0 131.5659594 35.1788518">
  <defs>
    <style>
      .cls-1 {
        stroke-width: 0px;
      }
    </style>
  </defs>
  <g id="_フッター" data-name="フッター">
    <g>
      <g>
        <g>
          <polygon class="cls-1" points="55.8882299 0 49.4441096 0 40.9990472 12.2437049 40.9990472 21.6193853 44.0595901 17.1496235 44.0595901 35.1788518 49.569587 35.1788518 49.569587 9.1926247 55.8882299 0"/>
          <polygon class="cls-1" points="69.986348 22.1284283 82.999286 22.1284283 84.44609 16.8656008 69.986348 16.8656008 69.986348 10.7918173 83.0096203 10.7918173 84.4113602 5.6363186 69.986348 5.6363186 69.986348 .0011923 64.4208209 .0011923 64.4208209 5.6363186 53.9391945 5.6363186 52.4923905 10.7918173 64.3794836 10.7918173 64.3794836 16.8656008 52.575065 16.8656008 51.128261 22.1284283 64.4208209 22.1284283 64.4208209 29.5148013 52.4493621 29.5148013 50.9030218 35.1691737 83.0199546 35.1691737 84.5494331 29.5148013 69.986348 29.5148013 69.986348 22.1284283"/>
        </g>
        <polygon class="cls-1" points="102.9372857 9.8213254 98.5948938 9.8213254 98.5948938 .0292737 92.9982988 .0292737 92.9982988 9.8213254 90.208034 9.8213254 88.7198928 15.4523342 92.9982988 15.4523342 92.9982988 35.15776 98.5948938 35.15776 98.5948938 15.4523342 101.4310992 15.4523342 102.9372857 9.8213254"/>
        <path class="cls-1" d="m119.3094628,16.0620329l.0083,2.0233652h-1.2795355l-1.0277871,4.2853294h2.2919357v7.1577715h-1.6604002l-1.5104983,5.6234999h2.4230874c3.4477652-.1792652,5.1735876-1.9612152,5.3547676-4.3753857v-8.4058856h3.2487501l-.0077252,7.1643193-1.7673951.0028806-1.5228393,5.621102h2.7511183c3.435553-.1792652,4.7728779-1.9330928,4.9547182-4.3472634v-12.7315181l-7.5624944.0051502v-2.0246858l-4.6940023.0013206Z"/>
        <path class="cls-1" d="m104.2577613,16.0620329l.0083,2.0233652h-1.4862218l-1.0277871,4.2853294h2.498622v7.1577715h-1.9910983l-1.5104983,5.6234999h2.7537855c3.4477652-.1792652,5.1735876-1.9612152,5.3547676-4.3753857v-8.4058856h3.2487501l-.0077252,7.1643193-1.7673951.0028806-1.5228393,5.621102h2.7511183c3.435553-.1792652,4.7728779-1.9330928,4.9547182-4.3472634v-12.7315181l-7.5624944.0051502v-2.0246858l-4.6940023.0013206Z"/>
        <path class="cls-1" d="m119.3228529,9.8165478h5.9820154v-2.0864808h-7.1330461v1.4712388c0,4.0619148-3.7406595,5.9244543-6.7242809,5.9244543h-7.2507416l.0038956-5.3329803h8.453469v-2.0627128h-9.7389857l1.2709011-4.9346191h8.4680847V.0060643h5.5089406v2.7893836l11.8527073.0193461v8.2138942c-.1753664,2.5882196-1.3927882,4.0867841-4.7109439,4.1009801h-5.9923157l.0103003-5.3131206Z"/>
      </g>
      <g>
        <polygon class="cls-1" points="11.7990193 2.0559972 11.7990193 15.8358043 23.6133412 15.8358043 23.6133412 29.6308357 31.4847542 21.7479869 31.4847542 2.0559972 11.7990193 2.0559972"/>
        <polygon class="cls-1" points="19.6857349 33.5819356 19.6857349 19.8021285 7.871413 19.8021285 7.8714131 6.0070972 0 13.8899459 0 33.5819356 19.6857349 33.5819356"/>
      </g>
    </g>
  </g>
</svg>