<?xml version="1.0" encoding="UTF-8"?>
<svg id="_レイヤー_2" data-name="レイヤー 2" xmlns="http://www.w3.org/2000/svg" viewBox="0 0 76.3494016 29.8017608">
  <defs>
    <style>
      .cls-1 {
        fill: #fff;
        stroke-width: 0px;
      }
    </style>
  </defs>
  <g id="slide">
    <g>
      <g>
        <path class="cls-1" d="m8.9461199,14.6710426h1.4494415c.4741808,0,1.0743731.0814556,1.0743731.6327376v4.9637686s-1.6276645.5897085-4.5761382.5897085c-2.9450941,0-6.8937962-1.5973169-6.8937962-6.0242691,0-4.4124085,4.1106478-6.1434523,7.1540956-6.1434523,1.3636406,0,3.0757956.0811798,3.0757956.8369033v1.4784096c-1.157484-.9298176-1.6239401-1.0948577-3.3808577-1.0948577-1.7562969,0-4.8984433,1.1386547-4.8984433,4.8192543,0,3.6850323,4.2174161,5.873713,7.7182157,4.4888981v-2.8218507c0-.5913546-.0343479-1.7252503-.7226861-1.7252503Z"/>
        <path class="cls-1" d="m30.9850797,20.5619203h3.7254385c-1.0318865-.3782411-1.4545454-1.5956616-1.792369-2.4830522-.3495489-.88408-3.0434477-7.3232142-3.3458199-8.2159846-.2974062-.8800106-.72779-.8800106-1.0683035-.8800106h-2.1421938c1.0325072.3374098.4697685,1.0557507.300372,1.5558649-.17105.5099082-3.7708929,9.2664245-3.7708929,9.2664245-1.2443884-.334444-4.362255-4.8462408-4.362255-4.8462408,4.1578227-1.1787274,3.5122471-5.9760486-.5479116-5.9760486h-4.6666981c.9376021.2037426.8526978,1.1796929.8526978,1.931761v7.9677553c0,1.0952025-.3438242,1.3851598-.8927704,1.6795312h3.4158953c-.9376021-.4183137-.6893727-1.3888843-.6893727-1.8458911v-8.5948465h1.8458912c.981675,0,1.7087753,1.1807275,1.7087753,1.9842485,0,1.2969449-1.0265067,1.8058092-2.053979,2.1866806-1.0245065.3741718-.468801,1.2178343,0,1.8967233.4795606.6712331,1.8448566,2.5649125,2.6567921,3.4910744.816348.923049,1.5323438.8820108,1.9283796.8820108h3.0825547c-1.1952097-.3782411-.5590851-1.3019799-.3923785-1.7613317.1711171-.4735601.947672-2.4477479.947672-2.4477479h4.615864s.5580505,1.4289661,1.0709934,2.6952186c.515219,1.2683216.1295979,1.4323365-.4263814,1.5138611Zm-4.7940219-5.5551232l1.7623663-4.5108219,1.8738247,4.5108219h-3.636191Z"/>
        <path class="cls-1" d="m68.4581257,20.5619203h3.7311622c-1.028159-.3782411-1.4568904-1.5956616-1.7919552-2.4830522-.3432005-.88408-3.0424821-7.3232142-3.3405091-8.2159846-.3020963-.8800106-.72779-.8800106-1.0716142-.8800106h-2.1378457c1.0291937.3374098.4694879,1.0557507.3014066,1.5558649-.1765016.5099082-3.7678609,9.2664245-3.7678609,9.2664245-.2411253.5462563-.5927433.5593609-.8065557.7567581h3.0737263c-1.1985912-.3782411-.5523258-1.3019799-.3869316-1.7613317.1649804-.4735601.940292-2.4477479.940292-2.4477479h4.6282808s.5583953,1.4289661,1.0685794,2.6952186c.5061837,1.2683216.1232525,1.4323365-.4401748,1.5138611Zm-4.7825017-5.5551232l1.7485002-4.5108219,1.8893433,4.5108219h-3.6378435Z"/>
        <path class="cls-1" d="m55.2912075,20.7811126c.4290733-.3865867.8160049-.678889.8160049-2.027365v-7.9596764c0-.6315054-.0329659-1.3468115-.8160049-1.6074558h3.301747c-.3404446.2990615-.7469641.6762681-.7469641,1.5205513v8.0465808c0,.7169706-.156221,1.7721005.7991757,2.027365h-3.3539586Z"/>
        <path class="cls-1" d="m37.5710528,11.6780822s-.0420728,6.3582993-.0420728,7.0756654c0,.7169706.0942844,1.7721005,1.0325762,2.027365h-3.1290417c.4314183-.3865867.7746218-.678889.7746218-2.027365,0-1.3440435.0801452-7.332999.0801452-7.9596764,0-.6315054-.0801452-1.3468115-.854767-1.6074558h2.4009068l7.1857535,8.8922527v-7.2461038c0-.4627315.0899415-1.3470874-.893736-1.6842213h3.2091179c-.3866533.2987167-.9503618.4192793-.9503618,1.6455282v10.4518421s-.886425.1622905-2.3446949-1.5660037c-1.457856-1.7242939-6.4684472-8.0018273-6.4684472-8.0018273Z"/>
        <path class="cls-1" d="m58.0224891,29.742406c-9.4132653-7.8061544-13.0103494-16.9964341-.1380815-29.5426725.4003837-.3856307.786347-.1552651.468801.2044323-5.6474074,6.3435394-11.931976,16.503355-.1313912,28.9479291.1859479.1990525.1118032.600813-.1993284.3903112Z"/>
      </g>
      <path class="cls-1" d="m74.7672815,20.6624184c-.8723831,0-1.5821201-.709737-1.5821201-1.5821201s.709737-1.5821201,1.5821201-1.5821201,1.5821201.709737,1.5821201,1.5821201-.709737,1.5821201-1.5821201,1.5821201Zm0-2.9633361c-.7616307,0-1.381216.6195852-1.381216,1.381216s.6195852,1.381216,1.381216,1.381216,1.381216-.6195852,1.381216-1.381216-.6195852-1.381216-1.381216-1.381216Z"/>
      <path class="cls-1" d="m75.1488817,19.9386534c-.0349228-.0325684-.0559157-.058172-.0559157-.1815789v-.2049261c0-.1210526-.037179-.2793823-.218856-.2793823h-.4353577v.6658874h-.3143051v-1.6996412h.8008698c.3166595,0,.5239399.1956069.5239399.4609612,0,.1118314-.0372771.2142454-.1047684.2910559-.065235.0745543-.1211507.1047684-.2654524.1373368.1652947.0233473.3259787.0721999.3259787.3912137v.1722596c0,.1700034.0628806.2142454.109379.2468139h-.3655121Zm-.2654524-1.4341887h-.444677v.5028489h.39347c.174614,0,.2817367-.0907404.2817367-.2653543,0-.1537191-.0908385-.2374946-.2305297-.2374946Z"/>
    </g>
  </g>
</svg>