<?xml version="1.0" encoding="UTF-8"?>
<svg id="_レイヤー_2" data-name="レイヤー 2" xmlns="http://www.w3.org/2000/svg" viewBox="0 0 62.2660851 238.4493903">
  <defs>
    <style>
      .cls-1 {
        stroke-width: 0px;
      }
    </style>
  </defs>
  <g id="_ヘッダー" data-name="ヘッダー">
    <g>
      <path class="cls-1" d="m1.7575846,57.1966256c4.3635039-.7173831,10.9121393-2.4590671,14.0531031-3.9910901,9.1813884-4.4782697,11.6172661-10.2119395,13.0787846-14.0718745,4.3721362,7.1227089,8.1333282,10.2121635,13.0659989,12.95219,3.6045876,2.0651538,7.2299825,3.5621383,10.8771212,4.4899763,1.4544741.3794378,1.814428.399451,2.4685749.399451.5473823,0,.7409593-.4067193,1.1698907-.7904937,1.3784115-1.2331473,2.6112941-1.9073075,3.4126801-2.0120361.1264725-.04249.1897087-.1581109.1897087-.3478197,0-.2114525-.0632362-.3162015-.1897087-.3162015-5.6500131-.1472187-10.8247569-1.2440192-15.5252085-3.2884268-2.6145516-1.1590595-4.8279013-2.4030788-6.6400898-3.7311008-2.4248429-1.8339323-5.4919022-4.3854309-7.4943287-7.2736737l-.2114118-.3560041h23.6025484c1.7074598,0,3.1303362.1264725,4.2686699.3794378l.5691261-2.4347172c-1.4545149.2954553-3.0671.442674-4.837796.442674h-24.4324375c.1672727-.8860606.9703688-5.2297752,1.0886975-7.5699434h20.9359989c1.623457,0,3.1095696.1264725,4.4583379.3794378l.5691261-2.4347172c-1.4544741.2954553-3.1302955.442674-5.027464.442674h-20.7466159c-.1643409-1.1037838-.2491988-2.292507-.2593378-3.5614664,1.8913457-.5785729,3.604384-1.1850788,5.1753952-1.7945776,3.5084913-1.3616557,6.2932474-2.4585784,8.693374-2.5460627,1.5762232.0139258,2.903492.1385049,3.9752098.3766689l.5691668-2.4347172c-1.4545149.2954553-3.0671.442674-4.837796.442674h-13.5806026v-1.6198941c3.8215372-1.1086904,6.9553752-2.3430389,9.6503464-3.4048824,3.0791527-1.2132766,5.450369-2.1529027,7.5743411-2.4058069h1.0039618c1.833973,0,3.299319.1264725,4.3951423.3794378l.5691261-2.4347172c-1.3067465.2954553-2.9613533.442674-4.9642685.442674H9.7280785c-2.0029151,0-3.6574813-.1472187-4.9642685-.442674l.5691261,2.4347172c1.0958233-.2529653,2.5612101-.3794378,4.3951423-.3794378h18.6526536c.1347791.9431279.202983,2.0360806.202983,3.2824615v1.9126213c-3.4592623.9342309-7.4629752,1.7461019-12.180203,2.2355007h-3.0392076c-1.770696,0-3.3832404-.1472187-4.8377553-.442674l.5691261,2.4347172c1.1383337-.2529653,2.5612101-.3794378,4.2686292-.3794378h15.2194106v3.9593294c-5.006616,1.68311-11.2318223,3.2961226-19.2856675,3.9455461h-2.3524857c-1.8971685,0-3.5729898-.1472187-5.0275047-.442674l.5691261,2.4347172c1.3487682-.2529653,2.8349216-.3794378,4.4583786-.3794378h21.4158695c-.0620554.7554145-.1397875,1.7213245-.2214286,2.9735079-.1059502,1.6241492-.407269,3.1603866-.8427155,4.5964355H7.0310713c-1.770696,0-3.3833219-.1472187-4.837796-.442674l.5691668,2.4347172c1.1382522-.2529653,2.5611286-.3794378,4.2686292-.3794378h19.7055186c-1.7139748,4.3854513-4.5906331,7.6678517-6.597498,9.3993152-3.2775345,2.8276533-9.1712901,5.9542433-18.467424,8.4423022-.1477277.0632362-.257709.1828069-.2213472.3478197.0449128.2038788.0330636.189159.3072638.1476666ZM30.1963002,14.3987647c0-1.164862.0701991-2.2544146.1978932-3.2824615h12.9078065c-1.1882549.4106283-2.4560335.90982-3.8312689,1.4516849-2.6018474,1.0251152-5.6184561,2.212576-9.2744308,3.2885489v-1.4577724Zm-2.2553307,4.148122h-4.4843572c1.8316927-.3522173,3.5374831-.7480851,5.1271028-1.1711123v1.1711123h-.6427456Zm2.2553307,1.6126055h9.1017425c-1.3206316.4411878-2.7429786.9914815-4.2916353,1.5923275-1.4666083.5691058-3.0611957,1.1870944-4.8101072,1.8090328v-3.4013603Zm-1.6214211,4.8208977c-.0266301,1.1768943-.1190209,2.2057149-.2783535,3.0839779H10.4030734c7.5028389-.5930077,13.3840124-1.7373881,18.1718058-3.0839779Z"/>
      <path class="cls-1" d="m18.3114711,3.0613586c1.5245104-.0952615,3.5895217.3739407,6.3307494.9481771,1.0709849.2243604,2.5978162.6835458,4.3110174,1.2528756l.2763175.0913525.2763989-.0913525c1.7131604-.5693297,3.2399918-1.0285152,4.3109767-1.2528756,2.7412277-.5742363,4.8062797-1.0434386,6.3307087-.9481771,1.2863464.0804196,3.0549658.0804196,3.0549658.0804196l.5326014-3.1417782s-8.530214,3.041101-14.5056514,3.6134847c-5.9753967-.5723836-14.50557-3.6134847-14.50557-3.6134847l.5325607,3.1417782s1.7686194,0,3.054925-.0804196Z"/>
      <path class="cls-1" d="m14.0642601,141.5354816c0,1.7074598-.2024537,3.1303362-.607361,4.2686495l3.8974776.5691465c-.4729484-1.4544945-.7086286-3.0671-.7086286-4.837796l.0025246-28.95619c3.8108688,3.8891914,7.0666595,8.550268,9.6107677,12.8683704.0653536.0905789.1681685.1215455.3097883.0932663.4721748-.0941621.6389588-.3213525.501533-.6817542-2.5243596-5.2616172-5.493816-9.4585814-8.7968404-13.3250517-.5431476-.6349276-1.0824675-1.2438971-1.6250043-1.8350724l.0003258-3.4341796h4.7379129c1.7074598,0,3.1303362.1264928,4.2686292.3794378l.5691261-2.4346969c-1.4544741.295435-3.0671.442674-4.8377553.442674h-4.7377907l.0008551-9.7009801c0-1.7074394.2024537-3.1303158.607361-4.2686292l-3.8974776-.5691465c.4729484,1.4544945.7086286,3.0671.7086286,4.8377756l-.0008144,9.7009801h-7.7781384c-1.770696,0-3.3832811-.147239-4.837796-.442674l.5691261,2.4346969c1.1383337-.2529449,2.5612101-.3794378,4.2686699-.3794378h6.9215786c-1.8895541,10.8265078-6.9124983,23.9435273-13.1476807,33.4005003-.0425104.0763884-.063277.1408462-.063277.1909913,0,.3569203.1897494.5347798.5691668.5347798.0840028,0,.150578-.0213366.1897494-.0763884,6.5768128-9.245439,10.2448403-17.3601384,13.3079498-28.2291158l-.002606,29.4498439Z"/>
      <path class="cls-1" d="m61.5536552,123.5941032c-1.6012246,2.3413084-3.6752347,4.6594071-6.2231297,6.954235-6.7977936,6.0957818-14.824968,10.6618818-24.0732165,13.7090092,16.8879025-8.2457934,22.4234959-23.9983347,25.4071632-31.9396944.154772-.1480534.3110099-.2961679.4617508-.4440177.3643108-1.4860312-.4626466-2.7397415-1.1301085-3.5714629-1.2226215,2.3525468-3.7522338,4.8821184-5.3261768,6.2874246-2.5724892,2.2968842-5.5439815,4.3621601-8.7036352,6.1518108,7.0789566-7.6670373,11.9024196-22.5225647,12.4273659-24.1859464.0541152-.0571691.1084748-.1106532.1625493-.1681685.3036805-1.4996109-.5957155-3.1484968-1.2964039-3.952448-.5909107,1.328022-1.9416334,3.6503555-3.7963322,5.5258005-5.9444912,6.0709433-12.1715299,9.7049299-18.9385808,12.3392301-.0845321.04249-.1265132.1264928-.1265132.2529653,0,.4219278.1581109.6007646.4742921.5375284,4.7004516-1.3695144,8.8954613-3.1827005,12.5850696-5.4385606,3.1383985-1.9217016,6.2396208-4.4044466,9.3047255-7.4329655-1.8961505,5.386746-7.4488458,19.6682813-14.5067916,24.4576424-2.2243438,1.0655693-4.4984458,1.9969906-6.7596401,2.7731105-.0861609.0390289-.1315216.1212401-.1366522.2476108-.0171019.4215817.1335575.6066892.4520597.5563404,4.7522052-1.1776069,8.9560915-3.1566609,12.8347163-5.0693432,2.9561821-1.4577927,7.0415361-4.3871004,10.5248225-7.4892796-2.8481145,8.3274956-8.1343055,22.8461974-23.9156757,30.5630948-.916335.3018685-1.8403251.5941071-2.7806842.8660473-.1275719.0391714-.1935363.1422306-.1979339.3111321-.0104647.4000618.1320509.5836831.4284835.5489093,6.9560674-1.5262817,12.8392769-3.5125428,17.6477553-5.9598422,5.598341-2.8269611,10.5490094-6.6045423,15.8367477-12.0333304.0718279-1.1344654.2972062-2.7663308-.636027-4.3968322Z"/>
      <path class="cls-1" d="m44.1642197,213.9694951c-13.779473.8252471-25.6929274.0871381-30.4706632-.2992625.0911286-.3877648.1989926-.7537043.3282747-1.0916293l-4.2183822-.5727094c.5119163,1.4635748.7669786,3.0862174.7669786,4.8679482l-.0043976,16.7076202c0,1.7180874-.2191484,3.1498405-.6574044,4.2952389l4.2184229.572689c-.2902433-.8298687-.4949773-1.7127532-.620391-2.6449075,4.6035817-.2725103,15.7678109-.678232,32.1954692.3599946-.1095742.7191544-.2745259,1.3663384-.4956695,1.9406154l4.0501323.0153103c-.5119163-1.4544945-.5987287-2.5132434-.5987287-4.2839394l.0043976-16.6041742c.1015526-1.3289993.7403892-1.9192177,1.3893648-2.5563035l-3.1028917-2.4077614c-.859573.9688826-1.7070119,1.4767473-2.7845118,1.7012706Zm-30.7924229,20.2617369c-.0076958-.2142214-.011727-.4307231-.011727-.6497696l.0043976-16.7076202c0-.5803034.0271187-1.1251408.0771213-1.640111,3.1885233.260315,9.683695.6897758,17.848906.6897758,4.4471402,0,9.3906421-.129221,14.5595631-.48097.0087545.0643764.0191378.1277144.0181606.1984429l-.0043162,18.1954838c0,.2589917-.0068.5091677-.0168576.7550683-16.5512398-1.047877-27.8280971-.6362103-32.4752479-.3603Z"/>
      <path class="cls-1" d="m53.3222355,200.2656368c-3.3641026-2.9421748-6.5119886-5.3271541-12.4782643-8.5967891-.0222732-.0190564-.0554182-.0300708-.0995167-.0321475-.2467964-.0115845-.3752234.1016951-.3863803.3389837-.0025653.0548075.0177534.0926963.0620554.112791,3.7310601,2.3001214,7.1822194,5.291912,10.3546995,8.9754125-15.8413897,1.2389905-33.5380075.9028367-37.9647476.5717525-1.6344918-.1222581-3.63928-.294702-5.4723165-.468225,5.0120723-2.6502009,8.0145109-4.6163063,11.1598723-6.7342927,4.1862144-2.8188377,9.4437394-7.5699638,11.3172503-11.4255622.0773249-1.5411237-1.2888709-2.9598875-2.2633931-3.5930031-.4472956,1.4368226-2.3833098,5.3499973-5.1564203,8.5728465-4.527519,5.2616987-11.0994049,10.6089067-16.1386366,13.0755678-1.8393072-.181565-3.3649984-.3533167-3.9375856-.4573531.1958572.8036662.9282656,2.7114827,3.0130254,3.7518266,9.8754397.0615057,19.2611141-.0445056,25.0838969-.2103735,6.8794754-.1891794,14.8732197-1.5004253,21.1229794-2.1407074.1912967.228758.4236787.5238469.699304.8844726.4224164.5512709.665711.8829253.7277664.9957162,1.3023489,1.8923637,1.8608474,2.9806947,1.8608474,2.9806947,0,0,1.7671942-1.4280884,1.5881946-2.426492-.2540851-1.4175219-.2455748-1.6967711-3.0926306-4.1751185Z"/>
    </g>
  </g>
</svg>