<?xml version="1.0" encoding="UTF-8"?>
<svg id="_レイヤー_2" data-name="レイヤー 2" xmlns="http://www.w3.org/2000/svg" xmlns:xlink="http://www.w3.org/1999/xlink" viewBox="0 0 140.5 36">
  <defs>
    <style>
      .cls-1 {
        fill: none;
      }

      .cls-1, .cls-2 {
        stroke-width: 0px;
      }

      .cls-2 {
        fill: #fff;
      }

      .cls-3 {
        clip-path: url(#clippath);
      }
    </style>
    <clipPath id="clippath">
      <rect class="cls-1" width="140.5" height="36"/>
    </clipPath>
  </defs>
  <g id="slide">
    <g class="cls-3">
      <g>
        <g>
          <g>
            <path class="cls-2" d="m3.4316406,5.7519531c.0068359-.0585938.0097656-.15625.0097656-.2929688v-1.4101562H1.2246094c-.1914062,0-.4228516.0195312-.6933594.0585938l-.0976562-.3671875c.2480469.0390625.5078125.0585938.78125.0585938h6.8027344c.3027344-.34375.4814453-.5175781.5371094-.5175781.0546875,0,.2421875.1347656.5605469.4003906.1533203.1308594.2304688.2226562.2304688.2792969,0,.0585938-.0449219.0878906-.1328125.0878906h-3.3496094v1.703125h1.9335938c.2119141-.2265625.3378906-.3417969.3769531-.3417969.0546875,0,.1953125.0957031.4199219.2832031.1132812.0878906.1699219.1679688.1699219.2402344,0,.0683594-.0888672.1582031-.2675781.2675781v1.6015625c0,1.2382812.015625,2.390625.0488281,3.4570312,0,.1796875-.1337891.2695312-.4003906.2695312-.1796875,0-.2695312-.0703125-.2695312-.2109375v-.5078125H1.6933594v.46875c0,.1835938-.1328125.2734375-.4003906.2734375-.1787109,0-.2675781-.0722656-.2675781-.21875.0390625-1.3320312.0585938-2.4589844.0585938-3.3789062,0-1.3222656-.0195312-2.1835938-.0585938-2.5839844.25.0957031.4960938.2226562.7363281.3808594h1.6699219Zm4.4433594,4.8105469v-4.5605469h-2.0117188v1.9667969c0,.15625.0361328.2597656.1074219.3085938.0654297.0410156.1894531.0625.3710938.0625.21875,0,.3671875-.015625.4453125-.0488281.0683594-.0292969.1230469-.0859375.1660156-.1699219.0976562-.1796875.1855469-.4433594.2636719-.7910156.0029297-.0273438.0205078-.0390625.0527344-.0390625.0429688,0,.0644531.015625.0644531.0488281,0,.2539062.0029297.4414062.0097656.5605469.0097656.1738281.0566406.2714844.140625.2988281.1269531.0410156.1914062.1191406.1914062.234375,0,.1679688-.1269531.2871094-.3808594.3554688-.2441406.0761719-.5507812.1132812-.9179688.1132812-.4492188,0-.7480469-.0605469-.8945312-.1816406-.1396484-.1171875-.2089844-.3261719-.2089844-.6289062l.0195312-1.2695312v-.8203125h-1.2597656c-.0429688.9492188-.2314453,1.6757812-.5664062,2.1777344-.3027344.4511719-.7978516.8476562-1.484375,1.1855469-.0068359.0039062-.0136719.0058594-.0195312.0058594-.0458984,0-.0683594-.0292969-.0683594-.0878906,0-.0175781.0058594-.0292969.0195312-.0390625.5820312-.4433594.9794922-.9160156,1.1914062-1.421875.1855469-.4394531.2939453-1.046875.3261719-1.8203125h-1.7382812v4.5605469h6.1816406Zm-3.8417969-4.8105469h1.2597656v-1.703125h-1.25v.9570312c0,.2070312-.0019531.3867188-.0058594.5371094,0,.09375-.0009766.1640625-.0039062.2089844Z"/>
            <path class="cls-2" d="m15.9511719,5.484375c-.0126953-.3027344-.0253906-.7675781-.0390625-1.3925781,0-.4453125-.015625-.8027344-.0488281-1.0683594.4560547.0546875.7460938.1015625.8691406.140625.0878906.0292969.1328125.0722656.1328125.1269531,0,.078125-.1113281.1699219-.3320312.2734375v.5332031c0,.5175781.0097656.9785156.0292969,1.3867188h1.4003906c.2705078-.3203125.4335938-.4785156.4882812-.4785156.0585938,0,.2363281.1269531.5332031.3808594.1464844.1191406.21875.2070312.21875.2578125,0,.0585938-.0429688.0878906-.1308594.0878906h-2.5c.0546875.9160156.171875,1.7382812.3515625,2.4707031.2666016,1.0253906.7363281,1.859375,1.4101562,2.5.1269531.1269531.2167969.1914062.2695312.1914062.0644531,0,.2441406-.3789062.5371094-1.1386719.0097656-.0214844.0234375-.0332031.0429688-.0332031.0097656,0,.0195312.0019531.0292969.0039062.0292969.0097656.0429688.0292969.0390625.0585938-.0253906.2773438-.0546875.5761719-.0878906.8984375-.0195312.1894531-.0292969.2910156-.0292969.3085938,0,.0878906.0361328.1796875.1074219.2773438.0683594.0976562.1035156.1855469.1035156.2636719,0,.21875-.1142578.328125-.3417969.328125-.1923828,0-.4287109-.1035156-.7089844-.3085938-.9335938-.6933594-1.5722656-1.7070312-1.9140625-3.0410156-.2148438-.8300781-.3515625-1.7558594-.4101562-2.7792969h-4.7167969c-.1884766,0-.4228516.0195312-.703125.0585938l-.0976562-.3554688c.2578125.03125.5214844.0488281.7910156.0488281h4.7070312Zm-2.0253906,4.7753906c.7353516-.1601562,1.3867188-.3222656,1.953125-.4882812h.0136719c.0429688,0,.0644531.03125.0644531.0976562,0,.0214844-.0097656.0371094-.0292969.0429688-.7558594.3320312-1.5722656.6210938-2.4511719.8652344-.6123047.1679688-1.4228516.359375-2.4316406.5703125-.0683594.2226562-.1425781.3320312-.2207031.3320312-.09375,0-.2080078-.3125-.3417969-.9375.2412109,0,.4951172-.0136719.7617188-.0429688l.2890625-.0292969v-2.3789062c-.0097656-.7089844-.0292969-1.1757812-.0585938-1.4003906.4257812.0488281.7060547.0976562.8398438.1464844.09375.03125.140625.0761719.140625.1308594,0,.078125-.1132812.1660156-.3417969.2636719v3.1601562c.4238281-.0625.8300781-.1328125,1.2207031-.2109375v-2.71875c0-.7207031-.0126953-1.203125-.0390625-1.4511719.4199219.0429688.6972656.0898438.8300781.1425781.0947266.03125.1425781.078125.1425781.1367188,0,.078125-.1142578.1601562-.3417969.2480469v1.1523438h.8007812c.2470703-.2851562.3964844-.4296875.4492188-.4296875.0322266,0,.1884766.1152344.46875.3417969.1201172.1015625.1796875.1816406.1796875.2402344,0,.0644531-.0419922.0976562-.1269531.0976562h-1.7714844v2.1191406Zm-2.5644531-5.9082031l-.0976562-.3769531c.2705078.046875.5166016.0683594.7382812.0683594h1.9042969c.2597656-.3125.4160156-.46875.46875-.46875.0546875,0,.2246094.1171875.5078125.3515625.1464844.1152344.21875.203125.21875.2695312,0,.0644531-.0419922.0976562-.1269531.0976562h-2.9628906c-.2148438,0-.4316406.0195312-.6503906.0585938Zm5.7519531-.71875c-.0058594-.0058594-.0097656-.0136719-.0097656-.0234375,0-.0390625.0253906-.0585938.0742188-.0585938h.0097656c.3769531.078125.6875.2246094.9316406.4394531.2089844.1816406.3125.3632812.3125.5410156,0,.1054688-.0302734.1933594-.0917969.2636719-.0527344.0664062-.1171875.0976562-.1953125.0976562-.0878906,0-.15625-.0273438-.2050781-.0820312-.0429688-.0488281-.0878906-.1347656-.1367188-.2597656-.1240234-.3222656-.3535156-.6269531-.6894531-.9179688Z"/>
            <path class="cls-2" d="m23.0507812,5.4941406c.0097656-.0175781.0263672-.0253906.0488281-.0253906.0488281,0,.0742188.0214844.0742188.0644531,0,.0019531-.0019531.0078125-.0058594.0136719-.5302734,1.5527344-.9697266,2.7695312-1.3183594,3.6484375-.0742188.171875-.1113281.34375-.1113281.5175781,0,.1484375.0527344.4296875.1601562.8398438.0654297.265625.0976562.4667969.0976562.5996094,0,.4082031-.1591797.6113281-.4785156.6113281-.234375,0-.3515625-.1777344-.3515625-.5332031,0-.09375.0097656-.2167969.0292969-.3710938.0292969-.2597656.0449219-.4726562.0449219-.6386719,0-.2929688-.0683594-.4980469-.2050781-.6152344-.1074219-.0957031-.3183594-.1835938-.6308594-.2636719-.0253906-.0097656-.0390625-.0332031-.0390625-.0683594,0-.0566406.0185547-.0800781.0546875-.0742188.2109375.0292969.3818359.0449219.5117188.0449219.1923828,0,.3554688-.1210938.4882812-.3613281.453125-.8203125.9960938-1.9511719,1.6308594-3.3886719Zm-2.5488281.0292969c-.015625-.0097656-.0234375-.0253906-.0234375-.0449219,0-.0546875.0234375-.078125.0722656-.0683594.453125.0683594.8291016.2148438,1.1289062.4394531.2568359.1933594.3847656.3886719.3847656.5917969,0,.265625-.1103516.4003906-.3320312.4003906-.1171875,0-.2246094-.0996094-.3222656-.2988281-.1953125-.4121094-.4980469-.7539062-.9082031-1.0195312Zm.6503906-2.3203125c-.0166016-.0097656-.0253906-.0234375-.0253906-.0429688,0-.0527344.0253906-.0761719.0742188-.0683594.4814453.0800781.8632812.2285156,1.1464844.4433594.2441406.1894531.3671875.3945312.3671875.6152344,0,.125-.0380859.2226562-.1132812.2988281-.0644531.0605469-.1376953.0917969-.21875.0917969-.1142578,0-.2216797-.1015625-.3222656-.3066406-.2050781-.4335938-.5078125-.7773438-.9082031-1.03125Zm3.3046875,3.6972656v3.3496094c0,.2304688.0292969.3925781.0878906.4882812.0683594.1171875.2109375.1972656.4257812.2441406.2080078.0449219.546875.0683594,1.015625.0683594.9238281,0,1.5556641-.0292969,1.8945312-.0878906.2148438-.0371094.3710938-.0996094.46875-.1914062.1953125-.1953125.3867188-.6445312.5761719-1.3476562.0126953-.03125.0400391-.0429688.0820312-.0332031.0361328.0097656.0527344.0273438.0488281.0527344-.0546875.6328125-.0820312.9882812-.0820312,1.0703125,0,.1230469.046875.2070312.140625.2480469.078125.0371094.1171875.1132812.1171875.2304688,0,.1816406-.1933594.3320312-.5800781.4492188-.3847656.1132812-1.2763672.1699219-2.6757812.1699219-.9248047,0-1.5253906-.1035156-1.8027344-.3125-.2246094-.1660156-.3359375-.4746094-.3359375-.9277344l.0292969-3.2617188-.2109375.0742188c-.1914062.0644531-.3945312.1542969-.609375.2675781l-.2207031-.3222656c.2705078-.0449219.5244141-.1074219.7617188-.1855469l.2792969-.1015625c0-1.3378906-.0195312-2.2324219-.0585938-2.6816406.4453125.0527344.7255859.0957031.8398438.1328125.0908203.0292969.1367188.0703125.1367188.1269531,0,.0742188-.109375.1582031-.328125.2539062v1.9667969l1.3964844-.4882812v-.21875c0-1.6484375-.0195312-2.6523438-.0585938-3.0136719.4169922.0488281.6904297.09375.8203125.1328125.1074219.0351562.1621094.0820312.1621094.140625,0,.0664062-.1113281.1445312-.3320312.2402344v2.5195312l1.5625-.5429688c.171875-.265625.2871094-.4003906.3457031-.4003906.0625,0,.21875.1015625.46875.3027344.1074219.0859375.1621094.1523438.1621094.2011719,0,.0605469-.09375.1484375-.2792969.2578125-.0322266,1.25-.1083984,2.140625-.2285156,2.671875-.0625.2832031-.1503906.4960938-.2636719.6386719-.1601562.1933594-.3457031.2890625-.5566406.2890625-.0917969,0-.1455078-.046875-.1621094-.1425781-.0126953-.1230469-.0683594-.21875-.1660156-.2871094-.1074219-.0761719-.2988281-.1464844-.5761719-.2148438-.0253906-.0078125-.0390625-.0273438-.0390625-.0644531,0-.0449219.0166016-.0644531.0488281-.0585938.390625.0390625.6513672.0585938.78125.0585938.1210938,0,.2050781-.0390625.2539062-.1171875.0488281-.0742188.0947266-.2226562.1367188-.4433594.0917969-.453125.1484375-1.2734375.171875-2.4609375l-1.6601562.5703125c.0029297.984375.0107422,1.8457031.0234375,2.5878906,0,.0175781.0039062.2148438.0097656.5957031.0039062.1152344.0058594.1933594.0058594.2402344,0,.1914062-.1337891.2871094-.4003906.2871094-.1796875,0-.2695312-.0800781-.2695312-.2382812l.0390625-3.2617188-1.3964844.4785156Z"/>
            <path class="cls-2" d="m34.6289062,8.3007812c-.4042969.4042969-.8173828.7382812-1.2402344,1.0019531v1.6894531c.6376953-.0820312,1.3730469-.21875,2.2070312-.4101562.0419922-.0078125.0625.0195312.0625.078125,0,.0253906-.0107422.0429688-.0332031.0527344-1.1787109.4726562-2.3789062.8183594-3.5996094,1.0410156-.0712891.2050781-.140625.3066406-.2089844.3066406-.0527344,0-.1015625-.0664062-.1464844-.1992188-.0458984-.125-.109375-.3691406-.1914062-.7382812.1601562.0136719.2900391.0195312.390625.0195312.0654297,0,.1357422-.0019531.2109375-.0039062.3320312-.0292969.5703125-.0566406.7167969-.078125v-1.40625c-.71875.3671875-1.5664062.65625-2.5429688.8691406-.0527344.0097656-.078125-.0253906-.078125-.1035156,0-.0253906.0097656-.0410156.0292969-.0488281,1.5878906-.5527344,2.7861328-1.2421875,3.59375-2.0703125h-2.6816406c-.2177734,0-.4404297.0195312-.6679688.0585938l-.09375-.375c.234375.0449219.4853516.0683594.7519531.0683594h3.21875v-.5429688c0-.2363281-.0136719-.4726562-.0390625-.7070312.4326172.0546875.7109375.1035156.8339844.1464844.0917969.03125.1367188.0761719.1367188.1308594,0,.0878906-.1074219.1757812-.3222656.2636719v.7089844h2.9550781c.25-.2929688.4033203-.4394531.4589844-.4394531.0517578,0,.2382812.1132812.5605469.3417969.1660156.1269531.25.2128906.25.2578125,0,.0585938-.0478516.0878906-.1425781.0878906h-4.1308594c.2900391.59375.6533203,1.0820312,1.0898438,1.4707031.2988281-.2324219.5625-.4707031.7910156-.71875.1855469-.1953125.3125-.3652344.3808594-.5117188.5009766.2832031.7519531.4707031.7519531.5605469,0,.0722656-.0976562.1074219-.2929688.1074219-.0458984,0-.0996094-.0019531-.1621094-.0097656-.4326172.2910156-.8691406.5273438-1.3085938.7128906.2285156.1796875.4453125.3320312.6503906.4589844.7158203.4394531,1.5566406.7070312,2.5234375.8007812.0263672.0039062.0390625.0195312.0390625.0488281,0,.0371094-.015625.0566406-.0488281.0585938-.1425781.0292969-.2451172.0742188-.3066406.1328125-.0625.0585938-.1210938.1582031-.1757812.296875-.0390625.1074219-.1064453.1621094-.2011719.1621094-.0488281,0-.1767578-.0351562-.3847656-.1035156-.6347656-.2148438-1.2568359-.5566406-1.8652344-1.0253906-.4003906-.3222656-.7314453-.6699219-.9921875-1.0449219-.2666016-.3769531-.5087891-.8417969-.7265625-1.3964844h-.0195312Zm-2.3984375-3.5976562c.3164062.0644531.4746094.1445312.4746094.2382812,0,.0683594-.0976562.1425781-.2929688.2207031v.609375l.0136719,1.5332031c0,.1933594-.1269531.2890625-.3808594.2890625-.1660156,0-.2480469-.0742188-.2480469-.2207031,0-.0410156.0039062-.2285156.0136719-.5605469.0097656-.3027344.0185547-.640625.0253906-1.0117188l.0039062-.7617188c-.484375.3789062-.9970703.6914062-1.5371094.9375-.0068359.0039062-.0136719.0058594-.0195312.0058594-.0458984,0-.0683594-.0292969-.0683594-.0878906,0-.0175781.0058594-.0292969.0195312-.0390625.796875-.5410156,1.4775391-1.1992188,2.0410156-1.9726562.2373047-.3398438.4101562-.6386719.5175781-.8984375.5566406.2070312.8339844.3613281.8339844.4589844,0,.0878906-.140625.140625-.4238281.1601562-.2929688.4179688-.6171875.7832031-.9726562,1.0996094Zm2.6816406.1171875c-.1044922-.28125-.1972656-.6171875-.2792969-1.0117188-.0644531-.2890625-.140625-.5566406-.2285156-.8007812.4550781.046875.7519531.0898438.8886719.1328125.09375.0292969.140625.0683594.140625.1171875,0,.0800781-.0908203.1679688-.2734375.2636719.0878906.4804688.1992188.890625.3320312,1.2304688l2.2226562-.2734375c.2275391-.3515625.3671875-.5273438.4199219-.5273438.0517578,0,.2519531.1054688.5996094.3164062.1464844.0878906.2207031.1640625.2207031.2304688,0,.0507812-.0410156.0820312-.1230469.0917969l-3.2421875.390625c.1337891.2636719.2988281.5136719.4941406.7480469.3671875.4316406.9179688.7558594,1.6503906.9707031.2304688.0585938.4208984.0878906.5703125.0878906.1113281,0,.2929688-.3066406.546875-.921875.0097656-.0234375.0263672-.0351562.0488281-.0351562.0097656,0,.0195312.0019531.0292969.0058594.0332031.0097656.0478516.0292969.0449219.0585938-.0585938.484375-.0878906.7441406-.0878906.7753906,0,.0859375.0449219.1542969.1367188.2109375.09375.0585938.140625.1484375.140625.2734375,0,.0976562-.0498047.1738281-.1503906.2285156-.0878906.0527344-.2011719.078125-.3378906.078125-.2402344,0-.484375-.0253906-.7324219-.078125-.9238281-.1914062-1.6582031-.5878906-2.2011719-1.1914062-.3095703-.3515625-.5556641-.7285156-.7382812-1.1328125l-1.171875.1425781c-.2050781.015625-.3984375.0585938-.5800781.1269531l-.1621094-.3574219c.1074219.0078125.2119141.0097656.3125.0097656.1503906,0,.2832031-.0058594.4003906-.0195312l1.109375-.140625Zm.9902344-1.5292969c-.0126953-.0058594-.0195312-.0175781-.0195312-.0332031,0-.0429688.0195312-.0644531.0585938-.0644531.453125.0175781.8066406.1054688,1.0605469.2636719.2148438.1367188.3222656.3027344.3222656.4980469,0,.1992188-.0917969.2988281-.2734375.2988281-.0976562,0-.1875-.0644531-.2695312-.1914062-.2148438-.3417969-.5078125-.5976562-.8789062-.7714844Z"/>
            <path class="cls-2" d="m40.3417969,11.1816406c-.0097656.0136719-.0253906.0195312-.0449219.0195312-.0517578,0-.078125-.0214844-.078125-.0625,0-.0078125.0019531-.0136719.0058594-.0195312.2441406-.59375.4257812-1.1855469.546875-1.7773438.0878906-.46875.1308594-.7929688.1308594-.9726562.3876953.1269531.6191406.2089844.6933594.2441406.0751953.0371094.1132812.0820312.1132812.1367188,0,.0722656-.0996094.1289062-.2988281.171875-.1464844.5292969-.3007812.9648438-.4628906,1.3027344-.15625.3164062-.3583984.6347656-.6054688.9570312Zm3.0175781-3.9589844c-.3457031.0839844-.6386719.1503906-.8789062.1992188v2.1484375l.0292969,2.1347656c0,.1855469-.1210938.2773438-.3613281.2773438-.1796875,0-.2695312-.0761719-.2695312-.2285156l.0488281-1.9726562v-2.2617188c-.2636719.046875-.6328125.0996094-1.1074219.1621094-.0585938.1777344-.1259766.2675781-.2011719.2675781-.0517578,0-.09375-.0585938-.1269531-.1757812-.0351562-.1132812-.0810547-.3339844-.1367188-.6640625.1923828.0195312.3671875.0292969.5234375.0292969.2050781,0,.3574219-.0019531.4589844-.0097656.4589844-.6367188.859375-1.3222656,1.2011719-2.0546875.15625-.3222656.2636719-.6113281.3222656-.8652344.3544922.1796875.5791016.3007812.6738281.3613281.0908203.0625.1367188.1152344.1367188.1621094,0,.0996094-.1210938.1503906-.3613281.1503906-.625.9765625-1.1904297,1.7265625-1.6953125,2.2460938.6875-.0214844,1.2490234-.0605469,1.6855469-.1171875-.0849609-.2792969-.2148438-.5488281-.390625-.8105469-.0068359-.0058594-.0097656-.0136719-.0097656-.0234375,0-.0371094.0205078-.0546875.0625-.0546875.0136719,0,.0253906.0039062.0351562.0097656.3085938.1933594.5566406.4316406.7421875.71875.1523438.2363281.2285156.453125.2285156.6484375,0,.1210938-.0302734.2207031-.0917969.2988281-.0527344.0683594-.1171875.1015625-.1953125.1015625-.1464844,0-.2382812-.1367188-.2734375-.4101562-.0068359-.0585938-.0234375-.1484375-.0488281-.2675781Zm-2.0859375-2.4707031c.2089844-.4433594.3652344-.8222656.46875-1.1386719.0976562-.2949219.1650391-.5585938.2011719-.7910156.3710938.140625.609375.2421875.7167969.3027344.0917969.0488281.1367188.0976562.1367188.1464844,0,.0976562-.1181641.1542969-.3554688.171875-.3095703.5292969-.6435547,1.0097656-1.0019531,1.4394531.2871094.2441406.4296875.4863281.4296875.7285156,0,.1191406-.0302734.2148438-.0917969.2832031-.0527344.0585938-.1142578.0878906-.1855469.0878906-.0849609,0-.1464844-.0234375-.1855469-.0683594-.0429688-.046875-.0849609-.1347656-.1269531-.2636719-.140625-.4492188-.3964844-.8378906-.7675781-1.1679688-.0097656-.0058594-.0136719-.015625-.0136719-.0292969,0-.0410156.0195312-.0625.0585938-.0625.0058594,0,.0107422.0019531.0136719.0039062.2509766.0917969.4853516.2109375.703125.3574219Zm1.5488281,3.6425781c-.0039062-.0078125-.0058594-.015625-.0058594-.0253906,0-.03125.0234375-.0488281.0683594-.0488281.0136719,0,.0263672.0039062.0390625.0097656.2607422.1855469.46875.421875.625.7089844.1269531.234375.1914062.4511719.1914062.6542969,0,.3046875-.1064453.4589844-.3183594.4589844-.1396484,0-.21875-.1445312-.2382812-.4296875-.0332031-.5058594-.1533203-.9472656-.3613281-1.328125Zm.78125-.2246094c.2304688.0488281.4628906.0722656.6972656.0722656h.6503906c.1591797-.1816406.2666016-.2734375.3222656-.2734375.0419922,0,.1669922.0917969.375.2734375.1210938.1054688.1816406.1835938.1816406.2402344,0,.0546875-.0898438.1113281-.2695312.1699219-.2470703.6816406-.5800781,1.2460938-1,1.6953125-.3613281.390625-.8359375.75-1.421875,1.078125-.0058594.0039062-.0126953.0058594-.0195312.0058594-.0517578,0-.078125-.0332031-.078125-.0976562,0-.0175781.0058594-.0292969.015625-.0390625.9794922-.765625,1.6210938-1.6992188,1.9238281-2.8027344h-.6699219c-.1660156,0-.3691406.0195312-.609375.0585938l-.0976562-.3808594Zm2.9726562-.7871094l.0195312,1.0507812c.0097656.46875.0263672,1.1074219.0488281,1.9179688.0097656.4570312.015625.7421875.015625.859375,0,.2519531-.0996094.4394531-.2988281.5664062-.1298828.0957031-.2841797.1425781-.4628906.1425781-.0849609,0-.1337891-.0507812-.1464844-.1523438-.0234375-.1269531-.1074219-.2265625-.2539062-.3027344-.1367188-.0644531-.3769531-.1308594-.71875-.1992188-.0253906-.0078125-.0390625-.0292969-.0390625-.0683594,0-.0488281.0166016-.0742188.0488281-.0742188.5703125.0429688.9394531.0644531,1.109375.0644531.1132812,0,.1699219-.0566406.1699219-.1660156v-4.0097656h-1.0683594v.171875c0,.1582031-.1210938.2382812-.3613281.2382812-.1601562,0-.2402344-.0664062-.2402344-.1992188l.0390625-1.9589844c0-.7871094-.0195312-1.3398438-.0585938-1.6542969.2441406.09375.4804688.2148438.7089844.3613281h.703125c.09375-.2539062.1669922-.4980469.21875-.7324219.0332031-.1601562.0527344-.3066406.0585938-.4394531.3847656.1035156.6337891.1816406.7480469.234375.09375.0410156.140625.0878906.140625.1367188,0,.09375-.1269531.1582031-.3808594.1894531-.1396484.1894531-.3125.3925781-.5175781.6113281h1.6308594c.1992188-.2148438.3183594-.3222656.3574219-.3222656.0449219,0,.1689453.0859375.3710938.2578125.1132812.1015625.1699219.1796875.1699219.234375,0,.0625-.0820312.1484375-.2480469.2597656v.7910156l.0292969,1.9335938c0,.1660156-.1171875.2480469-.3515625.2480469-.1660156,0-.25-.0703125-.25-.2089844v-.1523438h-1.1171875c.1914062.7988281.4375,1.4277344.7363281,1.890625.2509766-.2246094.4804688-.4882812.6894531-.7910156.2011719-.28125.3349609-.5058594.4003906-.6796875.4814453.2929688.7226562.484375.7226562.5722656,0,.0839844-.078125.1269531-.234375.1269531-.0429688,0-.0917969-.0039062-.1464844-.0097656-.4921875.4160156-.9316406.7304688-1.3183594.9414062.0878906.125.1933594.2539062.3164062.390625.5732422.6035156,1.1513672,1.0234375,1.734375,1.2597656.0126953.0078125.0195312.0175781.0195312.0351562,0,.0351562-.0166016.0566406-.0488281.0625-.1699219.0527344-.296875.1933594-.3808594.4199219-.0332031.0878906-.0800781.1328125-.1425781.1328125-.0546875,0-.1503906-.0546875-.2871094-.1621094-.4199219-.3222656-.8242188-.7890625-1.2109375-1.4003906-.4072266-.6386719-.7148438-1.4433594-.9238281-2.4179688Zm1.1914062-2.0703125v-1.09375h-2.7675781v1.09375h2.7675781Zm0,1.4511719v-1.2011719h-2.7675781v1.2011719h2.7675781Z"/>
            <path class="cls-2" d="m1.8378906,23.7773438c-.4277344.3574219-.8886719.6972656-1.3808594,1.0195312-.0058594.0058594-.0175781.0097656-.0351562.0097656-.0996094,0-.1484375-.0566406-.1484375-.1679688,0-.0234375.0078125-.0429688.0253906-.0605469,1.125-.9609375,2.1308594-2.25,3.015625-3.8671875.3222656-.6035156.5332031-1.1289062.6328125-1.5742188,1.03125.3457031,1.546875.5917969,1.546875.7382812,0,.1230469-.2226562.2265625-.6679688.3085938,1.9101562.7441406,2.8652344,1.4941406,2.8652344,2.25,0,.1757812-.0527344.328125-.1582031.4570312-.0878906.1054688-.1914062.1582031-.3085938.1582031-.1230469,0-.2285156-.0449219-.3164062-.1328125-.0703125-.0820312-.1699219-.2421875-.2988281-.4824219-.4277344-.7617188-1.0742188-1.4277344-1.9414062-1.9960938-.4160156.6679688-.8261719,1.2421875-1.2304688,1.7226562-.3808594.4921875-.8847656,1.0078125-1.5117188,1.546875.4160156.1640625.7871094.3515625,1.1152344.5625h.9414062v-.9921875c0-.3339844-.0234375-.71875-.0703125-1.1523438,1.0546875.1230469,1.5820312.2675781,1.5820312.4316406,0,.140625-.1796875.2890625-.5371094.4472656v1.265625h1.046875c.3222656-.3515625.5234375-.5273438.6054688-.5273438.1054688,0,.3222656.1445312.6503906.4316406.1933594.1816406.2910156.3125.2910156.3945312,0,.1113281-.1445312.2636719-.4316406.4570312v1.4765625l.0527344,3.3046875c0,.3105469-.2109375.4667969-.6328125.4667969-.1816406,0-.2988281-.0292969-.3515625-.0878906-.0527344-.0527344-.078125-.1503906-.078125-.2910156v-.4121094h-3.1914062v3.6914062c1.0488281-.2578125,1.9863281-.5390625,2.8125-.84375-.2050781-.5273438-.5527344-1.0371094-1.0449219-1.5292969-.0117188-.0117188-.0175781-.0273438-.0175781-.0449219,0-.0703125.0371094-.1054688.1132812-.1054688.0117188,0,.0234375.0039062.0351562.0097656.6796875.3222656,1.2226562.7207031,1.6269531,1.1953125.3398438.3984375.5097656.7695312.5097656,1.1152344,0,.4453125-.1914062.6679688-.5722656.6679688-.1816406,0-.3398438-.2578125-.4746094-.7734375l-.0527344-.1933594c-1.3710938.7324219-2.7949219,1.375-4.2714844,1.9257812-.0761719.4394531-.1953125.6582031-.359375.6582031-.0878906,0-.1738281-.0957031-.2558594-.2890625-.0878906-.1992188-.2421875-.6484375-.4648438-1.3457031.3164062-.0234375.7324219-.0820312,1.2480469-.1757812l.1582031-.0429688v-5.6601562c0-1.9453125-.0234375-3.2675781-.0703125-3.9648438Zm4.2714844,2.8125v-1.8710938h-3.1914062v1.8710938h3.1914062Zm-3.1914062.4492188v1.9941406h3.1914062v-1.9941406h-3.1914062Zm7.0664062-1.6445312c-.0820312,2.0800781-.3105469,3.8144531-.6855469,5.203125-.4628906,1.7050781-1.4257812,3.2578125-2.890625,4.6582031-.0117188.0117188-.0292969.0175781-.0527344.0175781-.1171875,0-.1757812-.046875-.1757812-.140625,0-.0175781.0058594-.03125.0175781-.0429688,1.1601562-1.5527344,1.9101562-3.1738281,2.25-4.8613281.3222656-1.5292969.4824219-3.8847656.4824219-7.0664062,0-1.3359375-.0371094-2.390625-.1132812-3.1640625.5214844.2285156.9863281.4746094,1.3964844.7382812h4.6503906c.5039062-.5976562.8085938-.8964844.9140625-.8964844.0878906,0,.4042969.2285156.9492188.6855469.2753906.234375.4121094.4023438.4121094.5019531,0,.1054688-.0820312.1582031-.2460938.1582031h-6.8554688v1.6347656c0,.5566406-.0117188,1.265625-.0351562,2.1269531h4.6757812c.3691406-.421875.5917969-.6328125.6679688-.6328125.0820312,0,.34375.2050781.7832031.6152344.1699219.1523438.2539062.2832031.2539062.3945312s-.1777344.25-.5351562.4140625c-.515625,2.2382812-1.3183594,4.0976562-2.4082031,5.5800781.046875.046875.1191406.1289062.21875.2460938.984375,1.171875,2.203125,2.0195312,3.65625,2.5410156.0410156.0117188.0625.0371094.0625.078125,0,.0644531-.0390625.1113281-.1152344.140625-.2929688.0761719-.5273438.3203125-.703125.7304688-.046875.1464844-.125.21875-.2363281.21875-.1054688,0-.3203125-.1132812-.6425781-.3417969-1.0839844-.7617188-2.0214844-1.7265625-2.8125-2.8925781-1.265625,1.4238281-2.9316406,2.5644531-5,3.4199219h-.0273438c-.0878906,0-.1308594-.0566406-.1308594-.1679688,0-.0351562.0117188-.0585938.0351562-.0703125,1.9570312-1.1660156,3.4882812-2.5097656,4.5957031-4.0332031-.3105469-.5507812-.6210938-1.3066406-.9316406-2.2675781-.28125-.9609375-.5273438-2.1367188-.7382812-3.5253906h-.6855469Zm2.8574219,5.0546875c.8730469-1.4414062,1.4960938-3.1269531,1.8710938-5.0546875h-3.6289062c.3691406,2.0390625.9550781,3.7246094,1.7578125,5.0546875Z"/>
            <path class="cls-2" d="m27.9208984,23.25c-1.5644531.421875-3.46875.7363281-5.7128906.9414062-.1113281.3457031-.2373047.5175781-.3779297.5175781-.0820312,0-.1494141-.0839844-.2021484-.2539062-.0527344-.1523438-.1582031-.5898438-.3164062-1.3105469.46875.046875,1.0078125.0703125,1.6171875.0703125.4628906-1.0078125.8173828-1.9414062,1.0634766-2.8027344.140625-.4570312.2197266-.8300781.2373047-1.1171875.7558594.2167969,1.2451172.3789062,1.4677734.484375.1933594.0878906.2900391.1777344.2900391.2714844s-.0498047.1640625-.1494141.2109375c-.09375.0410156-.28125.0917969-.5625.1503906-.5097656.9667969-1.1279297,1.9003906-1.8544922,2.8027344,1.2128906-.0117188,2.6572266-.1132812,4.3330078-.3066406-.3515625-.6855469-.75-1.2519531-1.1953125-1.6972656-.0175781-.0175781-.0263672-.0351562-.0263672-.0527344,0-.0644531.0380859-.0957031.1142578-.0957031.0117188,0,.0234375.0019531.0351562.0078125.796875.3574219,1.4355469.8203125,1.9160156,1.3886719.4101562.4804688.6152344.9316406.6152344,1.3535156,0,.2050781-.0585938.3730469-.1757812.5019531-.09375.1113281-.2080078.1660156-.3427734.1660156-.1582031,0-.2753906-.0585938-.3515625-.1757812-.0644531-.0996094-.1582031-.3222656-.28125-.6679688-.0234375-.0878906-.0703125-.2167969-.140625-.3867188Zm-.6679688,7.6738281h-3.8320312v3.9628906c0,.3339844-.2226562.5019531-.6679688.5019531-.2871094,0-.4306641-.1386719-.4306641-.4140625l.0878906-4.4824219c0-2.9179688-.0292969-4.7480469-.0878906-5.4921875.4746094.1757812.8935547.3867188,1.2568359.6328125h3.515625c.3339844-.3574219.5478516-.5371094.6416016-.5371094s.328125.1621094.703125.484375c.2050781.1757812.3076172.3007812.3076172.3769531,0,.1171875-.1611328.2851562-.4833984.5019531v2.3808594l.0527344,5.0898438c0,.5332031-.1992188.9160156-.5976562,1.1503906-.2695312.1582031-.5566406.2382812-.8613281.2382812-.1171875,0-.1904297-.0976562-.2197266-.2910156-.0410156-.2285156-.1494141-.3984375-.3251953-.5097656-.1875-.1230469-.5214844-.2402344-1.0019531-.3515625-.046875-.0117188-.0703125-.046875-.0703125-.1054688,0-.0761719.0292969-.1132812.0878906-.1132812.7441406.0527344,1.2832031.078125,1.6171875.078125.2050781,0,.3076172-.1074219.3076172-.3242188v-2.7773438Zm0-2.875v-1.96875h-3.8320312v1.96875h3.8320312Zm0,2.4257812v-1.9765625h-3.8320312v1.9765625h3.8320312Zm3.9726562.3261719c1.0664062-.4746094,2.0625-1.0527344,2.9882812-1.7324219.5976562-.4335938,1.0107422-.8164062,1.2392578-1.1503906.84375.5566406,1.265625.9375,1.265625,1.1425781,0,.1171875-.0996094.1757812-.2988281.1757812-.1289062,0-.3076172-.0234375-.5361328-.0703125-1.359375.8847656-2.9121094,1.5546875-4.6582031,2.0117188v2.0488281c0,.3808594.140625.6113281.421875.6933594.2753906.0878906.8964844.1328125,1.8632812.1328125.8320312,0,1.3769531-.0214844,1.6347656-.0625.2460938-.0351562.4453125-.1113281.5976562-.2285156.2929688-.234375.609375-.9082031.9492188-2.0214844.0175781-.0410156.0527344-.0605469.1054688-.0605469.0761719,0,.1142578.0351562.1142578.1054688-.0058594.1113281-.0292969.4238281-.0703125.9394531-.0234375.3046875-.0351562.5078125-.0351562.6074219,0,.1347656.0703125.2363281.2109375.3066406.1933594.0820312.2900391.2265625.2900391.4316406,0,.3222656-.2929688.5625-.8789062.7207031-.5800781.1582031-1.5292969.2363281-2.8476562.2363281-1.5351562,0-2.5107422-.1230469-2.9267578-.3691406-.3515625-.2109375-.5273438-.6328125-.5273438-1.265625l.0351562-2.8652344c0-1.59375-.0234375-2.6660156-.0703125-3.2167969.8027344.0996094,1.3095703.1796875,1.5205078.2382812.1523438.046875.2285156.1113281.2285156.1933594,0,.1582031-.2050781.3183594-.6152344.4824219v2.5761719Zm.0439453-7.8144531c1.1367188-.5625,2.1328125-1.1796875,2.9882812-1.8535156.5742188-.4746094.9462891-.8535156,1.1162109-1.1347656.8378906.5390625,1.2568359.9121094,1.2568359,1.1171875,0,.140625-.1259766.2109375-.3779297.2109375-.1230469,0-.2724609-.0175781-.4482422-.0527344-1.2304688.8496094-2.7421875,1.5527344-4.5351562,2.109375v1.5117188c0,.3574219.140625.5761719.421875.6582031.2871094.0820312.9375.1230469,1.9511719.1230469.796875,0,1.3652344-.0371094,1.7050781-.1132812.2695312-.0585938.46875-.1582031.5976562-.2988281.2519531-.2753906.5039062-.8261719.7558594-1.6523438.0175781-.046875.0527344-.0703125.1054688-.0703125.0644531,0,.0966797.0292969.0966797.0878906-.0351562.7910156-.0527344,1.21875-.0527344,1.2832031v.0605469c0,.1523438.0791016.25.2373047.2910156.1875.0644531.28125.2109375.28125.4394531,0,.3164062-.2871094.5527344-.8613281.7109375-.6210938.1582031-1.5585938.2382812-2.8125.2382812-1.5996094,0-2.6044922-.1210938-3.0146484-.3613281-.3398438-.1933594-.5097656-.6054688-.5097656-1.2382812l.0175781-2.7167969c0-1.4414062-.0292969-2.4433594-.0878906-3.0058594.8261719.0996094,1.3417969.1816406,1.546875.2460938.1582031.0527344.2373047.1328125.2373047.2382812,0,.1464844-.2050781.3007812-.6152344.4648438v2.7070312Z"/>
            <path class="cls-2" d="m42.5957031,30.2382812c0-.0585938.0351562-.0878906.1054688-.0878906.0644531,0,.1035156.0253906.1152344.078125.0585938.3164062.0878906.671875.0878906,1.0644531,0,.7089844-.1171875,1.2832031-.3515625,1.7226562-.1933594.3691406-.4257812.5527344-.6953125.5527344-.1523438,0-.2773438-.0585938-.3769531-.1757812-.0820312-.0996094-.1230469-.21875-.1230469-.359375,0-.2226562.0957031-.421875.2890625-.5976562.5859375-.5449219.9023438-1.2773438.9492188-2.1972656Zm1.0996094-1.5292969v.1933594c0,.3046875-.2050781.4570312-.6152344.4570312-.2988281,0-.4492188-.1269531-.4492188-.3789062l.0878906-5.3085938c0-1.7929688-.0351562-3.0957031-.1054688-3.9101562.3925781.1523438.7949219.3574219,1.2050781.6152344h3.7695312c.3925781-.4804688.6328125-.7207031.7207031-.7207031.1054688,0,.4042969.2167969.8964844.6503906.1699219.140625.2558594.2597656.2558594.359375,0,.1054688-.0859375.1582031-.2558594.1582031h-2.7324219v2.1796875h.9746094c.3222656-.4453125.53125-.6679688.625-.6679688s.3574219.1933594.7910156.5800781c.1582031.140625.2363281.2617188.2363281.3613281,0,.1171875-.078125.1757812-.2363281.1757812h-2.390625v2.1269531h.9394531c.3515625-.4335938.5722656-.6503906.6601562-.6503906.0820312,0,.3398438.1933594.7734375.5800781.1582031.1230469.2363281.2363281.2363281.3417969,0,.1171875-.078125.1757812-.2363281.1757812h-2.3730469v2.2324219h1.2207031c.3222656-.375.5214844-.5625.5976562-.5625.09375,0,.3339844.1757812.7207031.5273438.1933594.1640625.2910156.3027344.2910156.4140625,0,.0820312-.1582031.21875-.4746094.4121094-.140625,2.0976562-.3867188,3.6425781-.7382812,4.6328125-.1816406.5097656-.4101562.8925781-.6855469,1.1503906-.3222656.3222656-.7128906.484375-1.1699219.484375-.1171875,0-.1894531-.015625-.21875-.0449219s-.0527344-.0996094-.0703125-.2109375c-.0410156-.2226562-.15625-.3925781-.34375-.5097656-.1933594-.1230469-.5625-.2695312-1.1074219-.4394531-.0410156-.0175781-.0605469-.0527344-.0605469-.1054688,0-.0878906.0351562-.125.1054688-.1132812.8496094.1113281,1.4550781.1660156,1.8183594.1660156.2167969,0,.3847656-.0761719.5019531-.2285156.1113281-.1464844.2226562-.40625.3339844-.78125.2871094-.9375.4980469-2.3847656.6328125-4.3417969h-4.1308594Zm-.1582031,1.5292969v-.0273438c0-.0527344.0292969-.078125.0878906-.078125.0292969,0,.0546875.0117188.078125.0351562.5859375.6035156.8789062,1.2714844.8789062,2.0039062,0,.2519531-.0664062.4472656-.2011719.5878906-.0996094.1113281-.2207031.1679688-.3613281.1679688-.2167969,0-.3242188-.1445312-.3242188-.4316406l.0429688-.9921875c0-.4863281-.0664062-.9082031-.2011719-1.265625Zm.1582031-7.234375h1.8007812v-2.1796875h-1.8007812v2.1796875Zm0,.4492188v2.1269531h1.8007812v-2.1269531h-1.8007812Zm0,2.5742188v2.2324219h1.8007812v-2.2324219h-1.8007812Zm.921875,3.9296875c-.0117188-.0175781-.0175781-.0332031-.0175781-.0449219,0-.0585938.0351562-.0878906.1054688-.0878906.0351562,0,.0644531.0097656.0878906.0273438.8144531.5917969,1.2226562,1.1660156,1.2226562,1.7226562,0,.46875-.1445312.703125-.4316406.703125-.140625,0-.234375-.0410156-.28125-.1230469-.046875-.0644531-.078125-.1914062-.0957031-.3789062-.0703125-.7089844-.2675781-1.3144531-.5898438-1.8183594Zm1.0371094-.3261719c-.0117188-.0175781-.0175781-.0351562-.0175781-.0527344,0-.0527344.0332031-.078125.0976562-.078125.0117188,0,.0234375.0019531.0351562.0078125.4277344.140625.7792969.3457031,1.0546875.6152344.2460938.2402344.3691406.484375.3691406.7304688,0,.3339844-.1269531.5-.3789062.5-.1523438,0-.265625-.1367188-.3417969-.4121094-.1699219-.5390625-.4433594-.9765625-.8183594-1.3105469Zm7.9550781-3.3828125c.3574219,2.15625.9804688,3.8730469,1.8710938,5.1503906.84375,1.2128906,1.7636719,2.0878906,2.7597656,2.6269531.0351562.0175781.0527344.046875.0527344.0878906,0,.0585938-.0351562.09375-.1054688.1054688-.2109375.0410156-.3710938.1210938-.4824219.2382812-.0996094.1113281-.1972656.2929688-.2910156.5449219-.046875.1171875-.1308594.1757812-.2539062.1757812-.0820312,0-.1972656-.0742188-.34375-.2207031-.9199219-.9199219-1.6582031-1.9511719-2.2148438-3.09375-.7265625-1.5234375-1.2070312-3.3945312-1.4414062-5.6152344h-1.7578125c-.0644531,2.0742188-.2636719,3.6875-.5976562,4.8417969-.4804688,1.7929688-1.34375,3.2753906-2.5917969,4.4472656-.0117188.0117188-.0292969.0175781-.0527344.0175781-.1054688,0-.1582031-.0410156-.1582031-.1230469,0-.0175781.0058594-.03125.0175781-.0429688.8320312-1.1601562,1.4375-2.5703125,1.8183594-4.2285156.3339844-1.4648438.5019531-3.78125.5019531-6.9511719,0-2.1972656-.0351562-3.6855469-.1054688-4.4648438.46875.2050781.9160156.4335938,1.34375.6855469h4.1054688c.3574219-.3691406.5703125-.5546875.640625-.5546875.1054688,0,.3515625.1621094.7382812.484375.1933594.1640625.2910156.3007812.2910156.4121094s-.15625.2734375-.4667969.484375v1.8710938l.0703125,3.6835938c0,.3222656-.2285156.4824219-.6855469.4824219-.3105469,0-.4648438-.1484375-.4648438-.4472656v-.5976562h-2.1972656Zm2.1972656-.4492188v-4.921875h-4.3691406v2.5058594c0,1.1425781-.0058594,1.9472656-.0175781,2.4160156h4.3867188Z"/>
            <path class="cls-2" d="m65.2001953,30.4101562c.2861328.0585938.4296875.1289062.4296875.2089844,0,.078125-.0986328.1601562-.2978516.2441406v4.3164062c0,.203125-.1269531.3027344-.3808594.3027344-.1796875,0-.2685547-.0820312-.2685547-.2480469,0-.0234375.0048828-.3183594.0146484-.8847656.0136719-.6445312.0244141-1.3867188.0341797-2.2265625l.0195312-1.2304688c-.3027344.296875-.7021484.6171875-1.1962891.9628906-.0097656.0058594-.0195312.0097656-.0292969.0097656-.0488281,0-.0732422-.0273438-.0732422-.0839844,0-.0097656.0029297-.0175781.0097656-.0234375.7226562-.6875,1.3271484-1.484375,1.8115234-2.3925781.1621094-.3105469.2714844-.5703125.3271484-.78125.5791016.2304688.8691406.390625.8691406.4785156,0,.0976562-.1435547.1503906-.4296875.1601562-.2666016.4433594-.546875.8378906-.8398438,1.1875Zm-1.5869141-1.2695312c-.0058594.0058594-.0136719.0097656-.0195312.0097656-.0546875,0-.0830078-.0292969-.0830078-.0878906,0-.0097656.0048828-.0195312.0146484-.0292969.6542969-.5644531,1.1962891-1.1992188,1.6259766-1.9101562.1855469-.2988281.3125-.5527344.3808594-.7617188.5732422.2734375.859375.4550781.859375.5429688,0,.0898438-.1533203.1367188-.4589844.1367188-.6279297.8789062-1.4013672,1.578125-2.3193359,2.0996094Zm3.8476562,3.3496094c.3613281.7382812.8183594,1.2597656,1.3720703,1.5625.0458984.0253906.0908203.0488281.1367188.0683594v-3.9804688h-2.0654297c-.1953125,0-.4101562.0234375-.6445312.0683594l-.0976562-.375c.2402344.0390625.4882812.0585938.7421875.0585938h1.9677734v-1.6210938h-1.4306641c-.171875,0-.3886719.0195312-.6494141.0585938l-.0878906-.3671875c.2998047.0390625.5458984.0585938.7373047.0585938h1.4306641v-.390625c0-.5976562-.0126953-1.0253906-.0390625-1.2792969.4365234.0488281.7197266.0957031.8496094.1367188.0908203.0332031.1367188.0761719.1367188.1328125,0,.078125-.1123047.1640625-.3369141.2578125v1.1425781h1.5869141c.2636719-.3183594.4228516-.4785156.4785156-.4785156s.2353516.125.5419922.3710938c.1464844.1152344.2197266.2011719.2197266.2597656,0,.0644531-.0439453.0976562-.1318359.0976562h-2.6953125v1.6210938h1.9873047c.2763672-.3320312.4394531-.4980469.4882812-.4980469.0556641,0,.2353516.1289062.5419922.390625.1523438.1269531.2294922.2167969.2294922.2675781,0,.0585938-.0419922.0878906-.1269531.0878906h-3.0224609v1.7285156h1.4892578c.2763672-.3183594.4394531-.4785156.4882812-.4785156.0458984,0,.2294922.1308594.5517578.390625.140625.1074219.2099609.1875.2099609.2402344,0,.0644531-.0478516.0976562-.1416016.0976562h-2.5976562v2.2402344c.40625.1210938.9375.1816406,1.5917969.1816406.53125,0,1.0595703-.046875,1.5869141-.1425781.0361328-.0058594.0537109.015625.0537109.0644531,0,.03125-.0097656.0546875-.0292969.0683594-.1425781.0703125-.2363281.1367188-.2783203.1953125-.0390625.0507812-.0673828.1367188-.0830078.2539062-.0136719.0742188-.0292969.1210938-.0488281.140625-.0195312.0234375-.0605469.0371094-.1220703.0390625-.1337891.0078125-.3779297.0097656-.7324219.0097656-.7128906,0-1.2919922-.0585938-1.7382812-.1757812-.3876953-.1035156-.7431641-.2675781-1.0693359-.4921875-.5761719-.4003906-1.0214844-.9609375-1.3378906-1.6796875-.2890625.9296875-.8447266,1.7695312-1.6650391,2.5195312-.0068359.0058594-.0146484.0097656-.0244141.0097656-.0625,0-.0927734-.0273438-.0927734-.0839844,0-.0097656.0029297-.0195312.0097656-.0292969.6767578-.8515625,1.1337891-1.9550781,1.3720703-3.3105469.0585938-.3125.0878906-.5800781.0878906-.8046875,0-.0585938-.0039062-.1230469-.0097656-.1914062.4140625.0722656.6757812.125.7861328.1621094.1171875.0351562.1757812.078125.1757812.1269531,0,.0800781-.1142578.1601562-.3417969.2382812-.0585938.3710938-.1279297.7148438-.2099609,1.03125Z"/>
            <path class="cls-2" d="m78.5546875,29.6132812h2.7685547c.3027344-.3476562.4794922-.5214844.5322266-.5214844.0449219,0,.2363281.1367188.5712891.4101562.1591797.1289062.2392578.2207031.2392578.2734375,0,.0585938-.046875.0878906-.1416016.0878906h-3.9697266v1.2792969l.0195312,1.1523438c0,.2441406-.1035156.4316406-.3125.5664062-.1425781.0996094-.3066406.1503906-.4882812.1503906-.0625,0-.1015625-.0078125-.1171875-.0234375-.0195312-.0195312-.0341797-.0585938-.0439453-.1171875-.0166016-.1171875-.0869141-.2128906-.2099609-.2832031-.1328125-.078125-.3691406-.15625-.7080078-.234375-.0263672-.0078125-.0390625-.0292969-.0390625-.0683594,0-.0488281.0166016-.0703125.0488281-.0644531.4462891.0488281.8095703.0742188,1.0888672.0742188.1015625,0,.1513672-.0566406.1513672-.171875v-2.2597656h-3.4179688c-.1982422,0-.4326172.0195312-.703125.0585938l-.0976562-.3769531c.2998047.046875.5634766.0683594.7910156.0683594h1.0498047v-1.3125c0-.375-.0195312-.7382812-.0585938-1.0898438.4394531.046875.7265625.0917969.859375.1367188.09375.0332031.1416016.078125.1416016.1367188,0,.0761719-.1171875.1621094-.3515625.2597656v1.8691406h1.7871094v-1.9824219c0-.5917969-.0166016-1.0117188-.0488281-1.2597656.6669922.0683594,1.0009766.15625,1.0009766.2636719,0,.0820312-.1132812.171875-.3417969.2695312v1.078125h1.8212891c.2763672-.3183594.4423828-.4785156.4980469-.4785156s.2353516.1210938.5419922.3613281c.1523438.1210938.2294922.2128906.2294922.2792969,0,.0585938-.0478516.0878906-.1416016.0878906h-2.9492188v1.3808594Zm-4.5996094,3.7265625c-.0058594.0097656-.0136719.0136719-.0195312.0136719-.0449219,0-.0683594-.03125-.0683594-.0917969,0-.0136719.0039062-.0253906.0097656-.0351562.6308594-.5292969,1.1640625-1.1835938,1.5966797-1.9628906.2148438-.390625.3486328-.6875.4003906-.8925781.4267578.1660156.6806641.2714844.7617188.3164062.0810547.046875.1220703.0957031.1220703.1523438,0,.0976562-.1386719.1542969-.4150391.1699219-.3808594.5859375-.7548828,1.0566406-1.1230469,1.4121094-.3613281.3476562-.7822266.6542969-1.2646484.9179688Zm.2050781,2.1328125c-.0429688.0078125-.0634766-.0214844-.0634766-.0878906,0-.03125.0097656-.0507812.0292969-.0527344,2.3505859-.5117188,4.0810547-1.3847656,5.1904297-2.6171875.3261719-.3613281.5615234-.6992188.7080078-1.0117188.3681641.2324219.5888672.3789062.6640625.4453125.0654297.0546875.0976562.109375.0976562.1601562,0,.0820312-.1005859.1230469-.3027344.1230469h-.1171875c-.7880859.9667969-1.7158203,1.6914062-2.7832031,2.171875-.9208984.4140625-2.0615234.703125-3.4228516.8691406Zm5.6835938-4.8828125c-.0136719-.0058594-.0195312-.0195312-.0195312-.0390625,0-.0605469.0253906-.0878906.078125-.078125.7324219.1699219,1.3183594.4277344,1.7578125.7773438.3652344.2851562.546875.5664062.546875.8398438,0,.234375-.1015625.3515625-.3027344.3515625-.1230469,0-.2675781-.1269531-.4296875-.3808594-.4101562-.6054688-.953125-1.0957031-1.6308594-1.4707031Z"/>
          </g>
          <g>
            <path class="cls-2" d="m94.9697266.4931641c.578125.0019531.8662109.2050781.8652344.6113281-.203125,5-.3076172,8.4296875-.3134766,10.2890625l-.0439453,14.578125c-.0078125,2.34375.0429688,3.9140625.1494141,4.7109375.0761719.625.2304688,1.1337891.4638672,1.5253906.3574219.6259766,1.9111328,1.0371094,4.6601562,1.2324219.28125.0322266.421875.2675781.4199219.7050781-.0009766.453125-.1113281.6787109-.3300781.6777344-3.09375-.1337891-5.4833984-.2041016-7.1708984-.2089844-1.53125-.0048828-3.9697266.0507812-7.3134766.1650391-.21875-.0009766-.3271484-.2275391-.3261719-.6806641.0019531-.4375.1816406-.6708984.5410156-.7011719,1.5947266-.1044922,2.7041016-.2578125,3.3300781-.4589844.484375-.1542969.8447266-.4033203,1.0800781-.7460938.4238281-.6708984.6416016-2.7480469.6523438-6.2324219l.0517578-16.8515625c.0048828-1.8125-.1865234-2.9775391-.5751953-3.4941406-.3115234-.4228516-.7871094-.6357422-1.4277344-.6376953-.453125-.0009766-1.0634766.1142578-1.8300781.3466797l-2.2519531.6484375c-.453125-.0009766-.6787109-.3222656-.6767578-.9628906.0009766-.1875.1962891-.3427734.5878906-.4667969,3.1591797-1.0527344,6.3115234-2.4023438,9.4580078-4.0488281Z"/>
            <path class="cls-2" d="m119.90625,16.1083984c2.9960938,1.3837891,5.0927734,2.9296875,6.2910156,4.6367188,1.0419922,1.4873047,1.5605469,3.3095703,1.5537109,5.4658203-.0097656,3-1.1650391,5.3867188-3.4677734,7.1611328-2.0048828,1.5566406-4.5224609,2.3300781-7.5537109,2.3203125-3.453125-.0107422-6.2470703-.9951172-8.3818359-2.9550781-1.8544922-1.6933594-2.7773438-3.7744141-2.7695312-6.2431641.0107422-3.734375,2.6923828-6.7490234,8.0429688-9.0458984-2.6992188-1.2734375-4.5703125-2.6386719-5.6123047-4.0947266-.8867188-1.2529297-1.3271484-2.7773438-1.3222656-4.5742188.0068359-2.28125,1.1152344-4.2314453,3.3232422-5.8496094,1.9414062-1.4316406,4.2167969-2.1435547,6.8261719-2.1357422,3.03125.0097656,5.5058594.8300781,7.4228516,2.4609375,1.6669922,1.4111328,2.4980469,3.1162109,2.4921875,5.1162109-.0058594,1.859375-.6044922,3.4208984-1.7958984,4.6826172-1.0820312,1.1367188-2.7646484,2.1552734-5.0488281,3.0546875Zm-4.5527344,2.0957031c-3.8496094,1.8632812-5.7802734,4.6386719-5.7910156,8.3261719-.0078125,2.390625.7988281,4.3222656,2.4199219,5.7958984,1.3554688,1.2392578,2.9550781,1.8613281,4.7988281,1.8662109,2.21875.0068359,4.0175781-.7451172,5.3974609-2.2568359,1.2382812-1.3554688,1.8603516-3.0566406,1.8671875-5.1035156.0058594-1.90625-.7392578-3.5410156-2.2353516-4.9052734-1.3085938-1.1914062-3.4609375-2.4326172-6.4570312-3.7226562Zm2.7275391-2.96875c1.6738281-.6191406,2.9580078-1.5761719,3.8525391-2.8710938.8007812-1.1689453,1.203125-2.4960938,1.2080078-3.9804688.0058594-1.875-.6777344-3.4082031-2.0488281-4.5996094-1.1845703-1.0039062-2.6044922-1.5087891-4.2607422-1.5136719-1.984375-.0058594-3.6113281.6376953-4.8808594,1.9306641-1.0976562,1.0908203-1.6484375,2.3935547-1.6533203,3.9091797-.0048828,1.59375.5849609,2.9082031,1.7695312,3.9423828,1.1533203,1.0039062,3.1582031,2.0644531,6.0136719,3.1826172Z"/>
          </g>
        </g>
        <path class="cls-2" d="m128.8291016,30.6914062h-.0175781c-.0703125,0-.1054688-.0410156-.1054688-.1230469,0-.015625.0058594-.0292969.0175781-.0410156,1.5-1.1601562,2.5996094-2.5664062,3.2988281-4.21875.1835938-.4414062.3046875-.8125.3632812-1.1132812.7929688.265625,1.1894531.4648438,1.1894531.5976562,0,.1210938-.1699219.2011719-.5097656.2402344-.5078125,1.1171875-1.1289062,2.0644531-1.8632812,2.8417969-.65625.6914062-1.4472656,1.296875-2.3730469,1.8164062Zm4.0605469-.5039062h-1.1660156c-.3710938,0-.6875.0234375-.9492188.0703125l-.1171875-.4804688c.328125.0742188.6796875.1113281,1.0546875.1113281h4.7636719c.2539062-.2734375.40625-.4101562.4570312-.4101562.0585938,0,.2324219.1328125.5214844.3984375.1289062.1171875.1933594.2128906.1933594.2871094,0,.0585938-.1035156.1542969-.3105469.2871094-.1171875,1.8007812-.2929688,3.0722656-.5273438,3.8144531-.1601562.5234375-.3632812.8886719-.609375,1.0957031-.2148438.1914062-.5234375.2871094-.9257812.2871094-.0742188,0-.1210938-.0097656-.140625-.0292969s-.0351562-.0664062-.046875-.140625c-.0273438-.171875-.1464844-.3164062-.3574219-.4335938s-.5488281-.2324219-1.0136719-.3457031c-.0273438-.0039062-.0410156-.0332031-.0410156-.0878906,0-.0859375.0214844-.125.0644531-.1171875.7734375.1367188,1.3496094.2050781,1.7285156.2050781.3046875,0,.5292969-.2753906.6738281-.8261719.203125-.78125.3535156-2.0097656.4511719-3.6855469h-2.8886719c-.1484375,1.5976562-.6464844,2.8632812-1.4941406,3.796875-.7421875.8164062-1.8105469,1.4472656-3.2050781,1.8925781h-.0117188c-.0625,0-.09375-.0449219-.09375-.1347656,0-.0234375.0078125-.0390625.0234375-.046875,1.375-.6757812,2.3671875-1.4785156,2.9765625-2.4082031.5351562-.8125.8652344-1.8457031.9902344-3.0996094Zm6.8964844-.5507812c.0273438.0078125.0410156.0292969.0410156.0644531,0,.0507812-.0234375.0800781-.0703125.0878906-.1367188.0078125-.2421875.0527344-.3164062.1347656-.0585938.0703125-.1210938.1933594-.1875.3691406-.03125.1210938-.0820312.1816406-.1523438.1816406-.0976562,0-.2539062-.0722656-.46875-.2167969-.6445312-.4375-1.1875-.9257812-1.6289062-1.4648438-.6445312-.7421875-1.1933594-1.7460938-1.6464844-3.0117188-.0390625-.0898438-.0878906-.1582031-.1464844-.2050781-.078125-.0546875-.1171875-.1054688-.1171875-.1523438,0-.0351562.0664062-.0820312.1992188-.140625.1054688-.0429688.1835938-.0644531.234375-.0644531.0703125,0,.1054688.03125.1054688.09375l-.046875.1933594c0,.0429688.0214844.1113281.0644531.2050781.375.9609375.9257812,1.7773438,1.6523438,2.4492188.7617188.703125,1.5898438,1.1953125,2.484375,1.4765625Z"/>
      </g>
    </g>
  </g>
</svg>