<?xml version="1.0" encoding="UTF-8"?>
<svg id="_レイヤー_2" data-name="レイヤー 2" xmlns="http://www.w3.org/2000/svg" xmlns:xlink="http://www.w3.org/1999/xlink" viewBox="0 0 140.5 36.4121094">
  <defs>
    <style>
      .cls-1 {
        fill: none;
      }

      .cls-1, .cls-2 {
        stroke-width: 0px;
      }

      .cls-2 {
        fill: #fff;
      }

      .cls-3 {
        clip-path: url(#clippath);
      }
    </style>
    <clipPath id="clippath">
      <rect class="cls-1" width="140.5" height="36"/>
    </clipPath>
  </defs>
  <g id="slide">
    <g class="cls-3">
      <g>
        <g>
          <path class="cls-2" d="m6.9384766.9912109c-.8515625,1.3759766-1.8085938,2.5136719-2.8710938,3.4111328-.9570312.8066406-2.0800781,1.4970703-3.3701172,2.0712891h-.0205078c-.0771484,0-.1162109-.0546875-.1162109-.1640625,0-.0224609.0097656-.0390625.0273438-.0478516.9570312-.5283203,1.8896484-1.2392578,2.7958984-2.1328125.7382812-.7246094,1.3789062-1.4951172,1.9208984-2.3105469.4609375-.6884766.7773438-1.2939453.9501953-1.8183594.953125.2919922,1.4287109.4921875,1.4287109.6015625,0,.1181641-.140625.2070312-.4238281.2666016.7890625,1.1621094,1.7460938,2.1376953,2.8710938,2.9257812,1.0527344.7333984,2.1787109,1.2666016,3.3769531,1.5996094.0322266.0087891.0478516.0322266.0478516.0683594,0,.0546875-.0273438.0869141-.0820312.0957031-.2871094.0361328-.4921875.2548828-.6152344.65625-.0361328.1142578-.0996094.1708984-.1914062.1708984-.0634766,0-.21875-.0615234-.4648438-.1845703-.796875-.4052734-1.6269531-1.0029297-2.4882812-1.7910156-1.1298828-1.0253906-2.0546875-2.1650391-2.7753906-3.4179688Zm-.5947266,10.7255859v-2.8847656h-2.7001953c-.2773438,0-.5849609.0322266-.9228516.0957031l-.1435547-.5400391c.3378906.0634766.6933594.0957031,1.0664062.0957031h2.7001953v-2.5361328h-2.2285156c-.3095703,0-.6171875.0273438-.9228516.0820312l-.1230469-.5263672c.3242188.0634766.6728516.0957031,1.0458984.0957031h4.7646484c.3466797-.4423828.5605469-.6630859.6425781-.6630859.0869141,0,.3330078.1689453.7382812.5058594.1962891.1640625.2939453.2919922.2939453.3828125,0,.0820312-.0634766.1230469-.1914062.1230469h-3.1240234v2.5361328h2.3925781c.3964844-.4873047.6318359-.7314453.7041016-.7314453.0683594,0,.3193359.1826172.7519531.546875.2236328.1914062.3349609.328125.3349609.4101562s-.0585938.1230469-.1777344.1230469h-4.0058594v2.8847656h4.0058594c.4335938-.5146484.6835938-.7724609.7519531-.7724609.0820312,0,.3486328.1962891.7998047.5878906.2236328.2050781.3349609.3417969.3349609.4101562,0,.0820312-.0585938.1230469-.1777344.1230469H1.9619141c-.2910156,0-.6328125.0273438-1.0253906.0820312l-.1230469-.5126953c.3603516.0546875.7382812.0820312,1.1347656.0820312h4.3955078Z"/>
          <path class="cls-2" d="m20.2207031,2.6044922l-.2392578,2.7412109c-.0136719.1865234-.0322266.4287109-.0546875.7246094.4873047-.5605469,1.1367188-.8408203,1.9482422-.8408203.9160156,0,1.6308594.3056641,2.1464844.9160156.4414062.5283203.6630859,1.2080078.6630859,2.0371094,0,1.0576172-.328125,1.8916016-.984375,2.5019531-.5605469.5195312-1.2607422.7792969-2.0986328.7792969-.65625,0-1.2763672-.1591797-1.859375-.4785156-.625-.3369141-.9365234-.7158203-.9365234-1.1347656,0-.1552734.0859375-.2890625.2597656-.4033203.1542969-.1044922.3388672-.1572266.5537109-.1572266.1318359,0,.2392578.0546875.3212891.1640625.0859375.1044922.1933594.3076172.3212891.6083984l.0683594.1708984c.2275391.5283203.6533203.7929688,1.2783203.7929688.6103516,0,1.0800781-.2666016,1.4082031-.7998047.3007812-.4921875.4511719-1.1689453.4511719-2.0302734,0-.8017578-.2050781-1.4335938-.6152344-1.8935547-.3330078-.3779297-.7382812-.5673828-1.2167969-.5673828-.7431641,0-1.3173828.3369141-1.7226562,1.0117188-.0507812.0732422-.1162109.109375-.1982422.109375-.2597656,0-.3896484-.0751953-.3896484-.2255859,0-.0185547.0087891-.0703125.0273438-.1572266.0175781-.0869141.03125-.1962891.0410156-.328125l.3759766-4.3271484c0-.0634766.0292969-.125.0888672-.1845703.0546875-.0546875.1044922-.0820312.1503906-.0820312.3730469.0087891,1.0634766.0136719,2.0712891.0136719.7421875,0,1.4902344-.0224609,2.2421875-.0683594.0820312,0,.1230469.0410156.1230469.1230469l-.3349609.9160156c-.0273438.0634766-.078125.0957031-.1503906.0957031-.7792969-.0185547-1.3125-.0273438-1.5996094-.0273438h-2.1396484Z"/>
          <path class="cls-2" d="m32.4492188,11.2998047h8.3740234c.4423828-.5146484.6933594-.7724609.7519531-.7724609.078125,0,.3447266.1914062.7998047.5742188.2421875.2001953.3623047.3417969.3623047.4238281s-.0634766.1230469-.1914062.1230469h-10.0966797v.5058594c0,.1728516-.0478516.2919922-.1435547.3554688-.0820312.0498047-.2207031.0751953-.4169922.0751953-.2773438,0-.4169922-.1074219-.4169922-.3212891.0546875-1.9003906.0820312-3.8896484.0820312-5.9677734,0-2.9804688-.0273438-4.8691406-.0820312-5.6669922.3740234.1503906.75.3369141,1.1279297.5605469h8.09375c.4375-.4833984.6953125-.7246094.7724609-.7246094.0683594,0,.3310547.1777344.7861328.5332031.2324219.1865234.3486328.3212891.3486328.4033203,0,.0908203-.0654297.1367188-.1982422.1367188h-9.953125v9.7617188Zm5.2978516-5.5849609c.328125-.5380859.6015625-1.0439453.8203125-1.5175781.2832031-.5966797.5224609-1.2783203.7177734-2.0439453.5703125.1962891.9365234.3369141,1.1005859.4238281.1503906.0820312.2255859.1660156.2255859.2529297,0,.1181641-.1914062.2167969-.5742188.2939453-.46875,1.1669922-1.0087891,2.1923828-1.6201172,3.0761719.7841797.6064453,1.390625,1.1777344,1.8183594,1.7158203.3554688.4462891.5332031.8046875.5332031,1.0732422,0,.4013672-.1386719.6015625-.4169922.6015625-.1777344,0-.3691406-.1640625-.5742188-.4921875-.4599609-.7294922-1.0683594-1.4814453-1.8251953-2.2558594-1.1933594,1.5361328-2.7158203,2.7363281-4.5664062,3.6025391h-.0205078c-.0771484,0-.1162109-.0458984-.1162109-.1367188,0-.0224609.0097656-.0390625.0273438-.0478516,1.5585938-.9755859,2.921875-2.2988281,4.0878906-3.9716797-.9570312-.8837891-2.0341797-1.6767578-3.2333984-2.3789062-.0175781-.0087891-.0273438-.0253906-.0273438-.0478516,0-.0908203.0390625-.1367188.1162109-.1367188h.0205078c1.2304688.5556641,2.3994141,1.21875,3.5068359,1.9892578Z"/>
          <path class="cls-2" d="m52.3007812,9.6318359v.546875c0,.2412109-.1738281.3623047-.5195312.3623047-.2236328,0-.3349609-.09375-.3349609-.2802734l.0546875-4.1972656c0-1.3623047-.0234375-2.3447266-.0683594-2.9462891.3916016.1591797.7177734.3232422.9775391.4921875h1.8388672V1.2988281h-4.5117188c-.4609375,0-.84375.0273438-1.1484375.0820312l-.1367188-.5263672c.3457031.0634766.7744141.0957031,1.2851562.0957031h9.3583984c.46875-.5517578.7402344-.8271484.8134766-.8271484.0683594,0,.3525391.2001953.8544922.6015625.2597656.2099609.3896484.3603516.3896484.4511719,0,.0820312-.0615234.1230469-.1845703.1230469h-5.9199219v2.3105469h1.9892578c.2685547-.3007812.4306641-.4511719.4853516-.4511719.0820312,0,.2685547.125.5605469.3759766.1503906.1318359.2255859.234375.2255859.3076172,0,.1044922-.1210938.2324219-.3623047.3828125v1.7705078l.0683594,4.1152344c0,.2412109-.1777344.3623047-.5332031.3623047-.2236328,0-.3349609-.1025391-.3349609-.3076172v-.5332031h-4.8466797Zm-2.3925781,1.9482422h9.7138672v-5.6259766c0-1.4765625-.0234375-2.40625-.0683594-2.7890625.9335938.1005859,1.4013672.2255859,1.4013672.3759766,0,.1181641-.1601562.2412109-.4785156.3691406v2.7958984l.0546875,5.6328125c0,.2509766-.1826172.3759766-.546875.3759766-.2421875,0-.3623047-.1074219-.3623047-.3212891v-.4648438h-9.7138672v.4169922c0,.2646484-.1826172.3964844-.546875.3964844-.2509766,0-.3759766-.1025391-.3759766-.3076172l.0683594-5.5849609c0-2.0048828-.0234375-3.2246094-.0683594-3.6572266.6103516.0634766,1.0048828.125,1.1826172.1845703.1367188.0458984.2050781.109375.2050781.1914062,0,.1181641-.1552734.2412109-.4648438.3691406v7.6425781Zm2.3925781-5.25h1.9482422v-2.3720703h-1.9482422v2.3720703Zm0,.3486328v2.6044922h1.9482422v-2.6044922h-1.9482422Zm4.8466797-.3486328v-2.3720703h-2.0986328v2.3720703h2.0986328Zm0,2.953125v-2.6044922h-2.0986328v2.6044922h2.0986328Z"/>
          <path class="cls-2" d="m6.3505859,34.5117188v-5.8857422h-3.2060547c-.3779297,0-.7558594.0322266-1.1347656.0957031l-.1367188-.5263672c.3925781.0546875.8164062.0820312,1.2714844.0820312h3.2060547v-1.7773438c0-1.7089844-.0273438-2.8144531-.0820312-3.3154297.65625.0595703,1.0898438.125,1.2988281.1982422.1503906.0498047.2255859.1181641.2255859.2050781,0,.1181641-.1728516.2441406-.5195312.3759766v4.3134766h3.0214844c.4375-.5146484.6953125-.7724609.7724609-.7724609.078125,0,.3486328.1914062.8134766.5742188.2324219.1914062.3486328.3330078.3486328.4238281,0,.0820312-.0615234.1230469-.1845703.1230469h-4.7714844v5.8857422h3.9921875c.4609375-.5517578.7226562-.8271484.7861328-.8271484.0869141,0,.3759766.2001953.8681641.6015625.2421875.2001953.3623047.3486328.3623047.4443359,0,.0869141-.0615234.1298828-.1845703.1298828H2.0371094c-.4414062,0-.8427734.0273438-1.203125.0820312l-.1367188-.5263672c.4833984.0634766.9296875.0957031,1.3398438.0957031h4.3134766Z"/>
          <path class="cls-2" d="m19.0771484,32.296875v-4.7167969h-.9707031c-.2734375,0-.5449219.0273438-.8134766.0820312l-.1367188-.5332031c.3505859.0683594.6630859.1025391.9365234.1025391h.984375v-1.1210938c0-1.4765625-.0205078-2.4013672-.0615234-2.7753906.5917969.0634766.9814453.1279297,1.1689453.1914062.1318359.0458984.1982422.109375.1982422.1914062,0,.1005859-.1601562.2207031-.4785156.3623047v3.1513672h.6425781c.2958984-.4101562.4824219-.6152344.5605469-.6152344.109375,0,.3232422.1591797.6425781.4785156.1591797.1552734.2392578.2753906.2392578.3623047,0,.0820312-.0576172.1230469-.1708984.1230469h-1.9140625v4.4365234c.6152344-.21875,1.2207031-.4599609,1.8183594-.7246094h.0136719c.0585938,0,.0888672.0390625.0888672.1162109,0,.0322266-.0117188.0546875-.0341797.0683594-1.1533203.8115234-2.3720703,1.4716797-3.6572266,1.9824219-.0322266.3642578-.109375.546875-.2324219.546875-.1601562,0-.3896484-.4189453-.6904297-1.2578125.3369141-.0458984.6533203-.1074219.9501953-.1845703.3457031-.0957031.6513672-.1845703.9160156-.2666016Zm6.9521484-5.1269531l1.9140625-.6972656c.2050781-.3466797.3505859-.5195312.4375-.5195312.0957031,0,.3095703.1347656.6425781.4033203.1318359.1044922.1982422.1982422.1982422.2802734,0,.0957031-.1142578.2138672-.3417969.3554688-.0273438,1.859375-.1162109,3.15625-.2666016,3.8896484-.1005859.4873047-.2353516.8154297-.4033203.984375-.2236328.2236328-.4765625.3349609-.7587891.3349609-.0957031,0-.1572266-.0117188-.1845703-.0341797-.0234375-.0185547-.0410156-.0634766-.0546875-.1367188-.0234375-.2001953-.0986328-.3486328-.2255859-.4443359-.1142578-.0908203-.3417969-.1982422-.6835938-.3212891-.0322266-.0136719-.0478516-.0429688-.0478516-.0888672,0-.0732422.0244141-.1044922.0751953-.0957031.4550781.0546875.8203125.0820312,1.09375.0820312.2001953,0,.3320312-.1777344.3964844-.5332031.1269531-.7197266.2070312-1.9980469.2392578-3.8349609l-2.0302734.7451172.0410156,5.1064453c0,.2783203-.1875.4169922-.5605469.4169922-.2421875,0-.3623047-.1113281-.3623047-.3349609l.0546875-4.8808594-1.8320312.6699219v5.1542969c0,.2324219.0380859.3964844.1162109.4921875.1865234.21875.9267578.328125,2.2216797.328125,1.0566406,0,1.78125-.0224609,2.1738281-.0683594.3095703-.0322266.5214844-.09375.6357422-.1845703.2958984-.2412109.5625-.8320312.7998047-1.7705078.0039062-.0322266.0292969-.0478516.0751953-.0478516.0722656,0,.109375.0253906.109375.0751953-.0371094.5654297-.0546875,1-.0546875,1.3056641,0,.1777344.0722656.2919922.21875.3417969.1591797.0595703.2392578.1757812.2392578.3486328,0,.2509766-.2011719.4423828-.6015625.5742188-.546875.1689453-1.7666016.2529297-3.6572266.2529297-1.3994141,0-2.2900391-.1181641-2.6728516-.3554688-.3056641-.1914062-.4580078-.5722656-.4580078-1.1416016l.0273438-4.9970703-.7041016.2529297c-.3515625.1318359-.640625.2617188-.8681641.3896484l-.3212891-.4306641c.4101562-.0820312.7607422-.1757812,1.0527344-.2802734l.8408203-.3076172c0-2.0830078-.0273438-3.3515625-.0820312-3.8076172.9160156.0957031,1.3740234.2207031,1.3740234.3759766,0,.109375-.1552734.2304688-.4648438.3623047v2.7753906l1.8320312-.6767578v-.4990234c0-2.1689453-.0234375-3.4541016-.0683594-3.8554688.6015625.0820312.984375.1503906,1.1484375.2050781.1318359.0458984.1982422.109375.1982422.1914062,0,.0957031-.1503906.2119141-.4511719.3486328v3.3017578Z"/>
          <path class="cls-2" d="m35.5966797,34.8466797v.4648438c0,.2597656-.1777344.3896484-.5332031.3896484-.2412109,0-.3623047-.1025391-.3623047-.3076172l.0683594-5.1953125c0-1.9091797-.0273438-3.2041016-.0820312-3.8828125.3925781.1640625.7480469.3417969,1.0664062.5332031h2.8710938c.2832031-.7294922.5195312-1.5878906.7109375-2.5771484h-4.3271484c-.3964844,0-.7695312.0273438-1.1210938.0820312l-.1367188-.5126953c.3466797.0546875.7705078.0820312,1.2714844.0820312h9.2695312c.4511719-.5332031.7177734-.7998047.7998047-.7998047.0869141,0,.3720703.2001953.8544922.6015625.2421875.2050781.3623047.3466797.3623047.4238281,0,.0820312-.0654297.1230469-.1982422.1230469h-5.6669922c-.4511719,1.1074219-.8994141,1.9667969-1.3466797,2.5771484h5.1816406c.296875-.3095703.4765625-.4648438.5400391-.4648438.0644531,0,.2558594.1318359.5742188.3964844.1777344.1416016.2666016.2480469.2666016.3212891,0,.0908203-.1337891.2167969-.4033203.3759766v2.5361328l.0546875,5.2568359c0,.2597656-.1777344.3896484-.5332031.3896484-.25,0-.3759766-.1025391-.3759766-.3076172v-.5058594h-8.8046875Zm2.2421875-7.6494141h-2.2421875v7.3007812h2.2421875v-7.3007812Zm.8271484,0v2.1191406h2.5019531v-2.1191406h-2.5019531Zm2.5019531,4.5527344v-2.0849609h-2.5019531v2.0849609h2.5019531Zm0,2.7480469v-2.3994141h-2.5019531v2.3994141h2.5019531Zm3.2333984,0v-7.3007812h-2.40625v7.3007812h2.40625Z"/>
          <path class="cls-2" d="m53.0673828,27.2109375v1.3603516c.6015625.1777344,1.0634766.4238281,1.3876953.7382812.2597656.2548828.3896484.5126953.3896484.7724609,0,.3369141-.1503906.5058594-.4511719.5058594-.1601562,0-.2802734-.1162109-.3623047-.3486328-.2148438-.6376953-.5361328-1.109375-.9638672-1.4150391v1.9140625l.0273438,4.5664062c0,.2685547-.1777344.4033203-.5332031.4033203-.2597656,0-.3896484-.1113281-.3896484-.3349609,0-.0458984.0068359-.3027344.0205078-.7724609.0498047-1.4814453.0888672-3.3203125.1162109-5.5166016-.6289062,1.421875-1.3808594,2.5703125-2.2558594,3.4453125-.0136719.0087891-.0273438.0136719-.0410156.0136719-.0820312,0-.1230469-.0361328-.1230469-.109375,0-.0136719.0019531-.0253906.0068359-.0341797,1.1025391-1.6865234,1.8613281-3.4160156,2.2763672-5.1884766h-1.0664062c-.2832031,0-.5585938.0273438-.8271484.0820312l-.1367188-.5332031c.2910156.0683594.6083984.1025391.9501953.1025391h1.1621094v-2.1738281c-.6660156.1777344-1.3085938.3007812-1.9277344.3691406-.0595703.0087891-.0888672-.0292969-.0888672-.1162109,0-.0410156.015625-.0683594.0478516-.0820312,1.0664062-.2958984,2.0458984-.6972656,2.9394531-1.203125.3642578-.2050781.6425781-.4101562.8339844-.6152344.6103516.4375.9160156.7089844.9160156.8134766,0,.1005859-.0712891.1503906-.2119141.1503906-.0957031,0-.2216797-.0224609-.3759766-.0683594-.3105469.1591797-.75.3369141-1.3193359.5332031v2.3925781h.5878906c.3183594-.3828125.5146484-.5742188.5878906-.5742188.0683594,0,.2822266.1552734.6425781.4648438.1679688.1318359.2529297.2392578.2529297.3212891,0,.0908203-.0595703.1367188-.1777344.1367188h-1.8935547Zm.8955078,8.53125c-.0644531.0136719-.0957031-.0253906-.0957031-.1162109,0-.0361328.0136719-.0595703.0410156-.0683594.8427734-.2871094,1.6152344-.6972656,2.3173828-1.2304688.2685547-.2050781.4648438-.3964844.5878906-.5742188.6738281.3603516,1.0117188.5996094,1.0117188.7177734,0,.1005859-.1054688.1503906-.3144531.1503906-.0869141,0-.1982422-.0087891-.3349609-.0273438-.9345703.5878906-2.0058594.9707031-3.2128906,1.1484375Zm4.1083984-8.3330078v-1.1347656h-1.7636719c-.2011719,0-.4765625.0273438-.8271484.0820312l-.1503906-.5263672c.3642578.0634766.6904297.0957031.9775391.0957031h1.7636719v-1.1074219h-2.1533203c-.2011719,0-.4853516.0273438-.8544922.0820312l-.1298828-.5263672c.2958984.0634766.6191406.0957031.9707031.0957031h2.1669922c0-.6699219-.0185547-1.1689453-.0546875-1.4970703.5878906.0683594.9677734.1318359,1.1416016.1914062.1269531.0458984.1914062.1074219.1914062.1845703,0,.1044922-.1552734.2207031-.4648438.3486328v.7724609h2.1943359c.3369141-.3916016.5400391-.5878906.6083984-.5878906.0771484,0,.3076172.1591797.6904297.4785156.1777344.1640625.2666016.2753906.2666016.3349609,0,.0820312-.0644531.1230469-.1914062.1230469h-3.5683594v1.1074219h1.8320312c.3144531-.3642578.5097656-.546875.5878906-.546875.0683594,0,.2841797.1455078.6494141.4375.1591797.1181641.2392578.2255859.2392578.3212891,0,.0908203-.0615234.1367188-.1845703.1367188h-3.1240234v1.1347656h2.5498047c.3505859-.3828125.5605469-.5742188.6289062-.5742188.0585938,0,.2841797.1591797.6767578.4785156.1679688.1455078.2529297.2529297.2529297.3212891,0,.0820312-.0644531.1230469-.1914062.1230469h-7.0820312c-.2236328,0-.5175781.0273438-.8818359.0820312l-.1367188-.5263672c.3144531.0634766.6533203.0957031,1.0185547.0957031h2.3515625Zm2.7138672,5.9199219h-4.5595703v.1230469c0,.2275391-.1669922.3417969-.4990234.3417969-.2324219,0-.3486328-.09375-.3486328-.2802734l.0546875-3.0419922c0-.9619141-.0253906-1.6972656-.0751953-2.2080078.3369141.1416016.6582031.3056641.9638672.4921875h4.3681641c.2822266-.2919922.4462891-.4375.4921875-.4375.0585938,0,.2363281.1230469.5332031.3691406.1591797.1367188.2392578.2441406.2392578.3212891,0,.0869141-.1191406.203125-.3554688.3486328v1.1005859l.0478516,2.8574219c0,.2412109-.1689453.3623047-.5058594.3623047-.2373047,0-.3554688-.09375-.3554688-.2802734v-.0683594Zm0-3.1787109v-1.0458984h-4.5595703v1.0458984h4.5595703Zm0,1.3603516v-1.0117188h-4.5595703v1.0117188h4.5595703Zm0,1.4697266v-1.1210938h-4.5595703v1.1210938h4.5595703Zm-1.3261719,1.0390625c-.0322266-.0136719-.0478516-.0390625-.0478516-.0751953,0-.0634766.0273438-.0957031.0820312-.0957031,1.0566406.0771484,1.8730469.2685547,2.4472656.5742188.4599609.2460938.6904297.5214844.6904297.8271484,0,.1455078-.0439453.2646484-.1298828.3554688-.0732422.0732422-.1552734.109375-.2460938.109375-.1503906,0-.3554688-.1367188-.6152344-.4101562-.5019531-.5195312-1.2285156-.9482422-2.1806641-1.2851562Z"/>
          <path class="cls-2" d="m127.0878906,31.78125v-5.5449219h-1.0371094c-.2441406,0-.578125.0332031-1.0048828.0996094l-.1494141-.6484375c.4267578.0839844.8056641.125,1.1376953.125h1.0537109v-1.328125c0-1.6542969-.0273438-2.7255859-.0830078-3.2128906.7304688.078125,1.2119141.1552734,1.4443359.2324219.1611328.0556641.2412109.1308594.2412109.2246094,0,.1328125-.1992188.2822266-.5976562.4482422v3.6357422h.7802734c.3818359-.4755859.6191406-.7138672.7138672-.7138672.0996094,0,.3652344.1884766.796875.5644531.2041016.171875.3066406.3076172.3066406.4072266,0,.1103516-.0712891.1660156-.2158203.1660156h-2.3818359v5.2041016c.7470703-.2822266,1.5244141-.6083984,2.3320312-.9794922.0058594-.0058594.0136719-.0078125.0253906-.0078125.0712891,0,.1074219.046875.1074219.140625,0,.0390625-.0107422.0664062-.0332031.0830078-1.25.9628906-2.7695312,1.8173828-4.5566406,2.5654297-.0449219.4423828-.1357422.6640625-.2744141.6640625-.1103516,0-.2236328-.1142578-.3398438-.3408203s-.2744141-.6367188-.4736328-1.2285156c.3154297-.0332031.7001953-.1103516,1.1542969-.2324219.1494141-.0439453.5009766-.1523438,1.0537109-.3232422Zm8.0771484-9.015625v6.7490234h3.1289062c.4931641-.5869141.7861328-.8798828.8798828-.8798828.1113281,0,.4238281.2216797.9384766.6640625.2490234.2050781.3730469.3623047.3730469.4726562,0,.1113281-.0742188.1660156-.2236328.1660156h-5.0966797v1.1044922l.0664062,4.8476562c0,.3486328-.2275391.5224609-.6806641.5224609-.3271484,0-.4902344-.1347656-.4902344-.40625l.0664062-4.9638672v-1.1044922h-3.3115234c-.34375,0-.7363281.0332031-1.1787109.0996094l-.1660156-.6386719c.4921875.0771484.9404297.1162109,1.3447266.1162109h3.3115234v-6.7490234h-2.7060547c-.4033203,0-.7773438.0332031-1.1201172.0996094l-.1660156-.6220703c.4033203.0664062.8271484.0996094,1.2695312.0996094h6.3417969c.4599609-.5537109.7392578-.8300781.8388672-.8300781.0771484,0,.3759766.2099609.8964844.6308594.2490234.2050781.3730469.3564453.3730469.4560547,0,.1113281-.0712891.1660156-.2158203.1660156h-4.4736328Zm-4.4580078,1.3125c-.0107422-.0117188-.0166016-.0253906-.0166016-.0419922,0-.0771484.046875-.1162109.1416016-.1162109.0214844,0,.0410156.0058594.0576172.0166016.609375.4755859,1.0927734,1.0517578,1.453125,1.7265625.3037109.5751953.4560547,1.1123047.4560547,1.6103516,0,.5869141-.2099609.8798828-.6308594.8798828-.3037109,0-.4726562-.2822266-.5058594-.8466797-.1054688-1.3505859-.4238281-2.4267578-.9550781-3.2285156Zm5.8359375,4.3984375c-.0117188.0175781-.0302734.0253906-.0585938.0253906-.1210938,0-.1826172-.0439453-.1826172-.1328125,0-.0058594.0029297-.0136719.0087891-.0253906.359375-.7304688.7138672-1.7402344,1.0625-3.0292969.1601562-.5917969.2626953-1.0957031.3066406-1.5107422.6865234.2265625,1.1259766.3876953,1.3203125.4814453.1767578.0888672.265625.1767578.265625.265625s-.0449219.1523438-.1328125.1914062c-.0722656.0332031-.2216797.0664062-.4482422.0996094-.6308594,1.4492188-1.3447266,2.6611328-2.1416016,3.6347656Z"/>
        </g>
        <g>
          <path class="cls-2" d="m78.0039062,18.6308594c.7382812-1.2324219,1.7958984-2.1972656,3.1728516-2.8964844,1.1738281-.6054688,2.3857422-.90625,3.6357422-.9033203,3.078125.0097656,5.4580078,1.0488281,7.1386719,3.1162109,1.4794922,1.8173828,2.2138672,4.1943359,2.2050781,7.1318359-.0107422,3.5-1.1210938,6.2929688-3.3300781,8.3798828-1.8652344,1.7607422-4.125,2.6367188-6.78125,2.6279297-3.265625-.0097656-5.9023438-1.3535156-7.9101562-4.0322266-1.7890625-2.3955078-2.6787109-5.4296875-2.6669922-9.1015625.0214844-7.21875,3.1728516-13.1152344,9.4521484-17.6904297,2.5839844-1.8818359,5.1035156-3.296875,7.5595703-4.2421875.5.0019531.96875.2919922,1.4042969.8720703.2177734.3125.3261719.6181641.3251953.9150391-.0009766.3125-.1425781.4677734-.4238281.4667969-2.578125.1484375-4.8378906.9072266-6.7802734,2.2763672-1.8789062,1.3378906-3.4707031,3.1923828-4.7744141,5.5634766-1.2099609,2.2148438-2.0693359,4.7050781-2.578125,7.46875l.3515625.0478516Zm5.9589844-1.9736328c-2.421875-.0078125-4.3320312,1.2675781-5.7304688,3.8261719-.4550781.7636719-.6845703,1.7324219-.6884766,2.9042969-.0117188,3.890625.6748047,6.8144531,2.0595703,8.7714844,1.1201172,1.6132812,2.6015625,2.421875,4.4453125,2.4277344s3.3076172-.9189453,4.3916016-2.7753906c.9892578-1.6845703,1.4882812-3.8701172,1.4970703-6.5576172.0087891-2.9375-.6171875-5.1660156-1.8789062-6.6855469-1.0429688-1.2695312-2.4082031-1.90625-4.0957031-1.9111328Z"/>
          <path class="cls-2" d="m108.5908203,1.2636719c3.140625.0097656,5.6669922,1.6503906,7.5791016,4.921875,1.8339844,3.1142578,2.7431641,7.2734375,2.7275391,12.4765625-.0185547,5.96875-1.1650391,10.5283203-3.4404297,13.6777344-1.8515625,2.5566406-4.1757812,3.8310547-6.9726562,3.8222656-3.4375-.0107422-6.0810547-1.6591797-7.9306641-4.9462891-1.6777344-3.0048828-2.5087891-7.109375-2.4931641-12.3125.0195312-6.109375,1.1894531-10.7382812,3.5117188-13.8876953,1.8662109-2.5097656,4.2060547-3.7607422,7.0185547-3.7519531Zm-.0039062,1.4765625c-4.140625-.0126953-6.2275391,5.3242188-6.2597656,16.0117188-.0185547,6.03125.5927734,10.3144531,1.8349609,12.8496094.9941406,2.0341797,2.4365234,3.0546875,4.3271484,3.0605469,2.109375.0058594,3.6601562-1.3251953,4.6523438-3.9941406.9765625-2.6064453,1.4736328-6.5654297,1.4902344-11.8779297.0322266-10.6875-1.9824219-16.0371094-6.0449219-16.0498047Z"/>
        </g>
      </g>
    </g>
  </g>
</svg>