<?xml version="1.0" encoding="UTF-8"?>
<svg id="_レイヤー_2" data-name="レイヤー 2" xmlns="http://www.w3.org/2000/svg" xmlns:xlink="http://www.w3.org/1999/xlink" viewBox="0 0 140.5 36.0507812">
  <defs>
    <style>
      .cls-1 {
        fill: none;
      }

      .cls-1, .cls-2 {
        stroke-width: 0px;
      }

      .cls-2 {
        fill: #fff;
      }

      .cls-3 {
        clip-path: url(#clippath);
      }
    </style>
    <clipPath id="clippath">
      <rect class="cls-1" width="140.5" height="36"/>
    </clipPath>
  </defs>
  <g id="slide">
    <g class="cls-3">
      <g>
        <path class="cls-2" d="m4.1289062,4.2744141c-.3378906.2822266-.7001953.5507812-1.0888672.8046875-.0048828.0048828-.0146484.0078125-.0283203.0078125-.078125,0-.1181641-.0439453-.1181641-.1318359,0-.0185547.0068359-.0351562.0214844-.0488281.8876953-.7587891,1.6816406-1.7773438,2.3798828-3.0537109.2548828-.4765625.4208984-.890625.5-1.2421875.8144531.2724609,1.2216797.4667969,1.2216797.5820312,0,.0976562-.1757812.1787109-.5273438.2431641,1.5078125.5878906,2.2626953,1.1796875,2.2626953,1.7773438,0,.1386719-.0419922.2587891-.125.3603516-.0693359.0839844-.1503906.125-.2431641.125-.0966797,0-.1806641-.0341797-.25-.1035156-.0556641-.0654297-.1337891-.1923828-.2353516-.3818359-.3378906-.6015625-.8496094-1.1269531-1.5341797-1.5761719-.3291016.5273438-.6523438.9814453-.9716797,1.3603516-.3007812.3886719-.6992188.7958984-1.1943359,1.2216797.3291016.1298828.6230469.2773438.8818359.4443359h.7431641v-.7841797c0-.2636719-.0185547-.5664062-.0556641-.9091797.8330078.0966797,1.2490234.2109375,1.2490234.3398438,0,.1113281-.1416016.2294922-.4238281.3544922v.9990234h.8261719c.2548828-.2773438.4140625-.4160156.4794922-.4160156.0830078,0,.2539062.1132812.5126953.3398438.1533203.1435547.2294922.2470703.2294922.3125,0,.0878906-.1132812.2080078-.3398438.3603516v1.1660156l.0410156,2.609375c0,.2460938-.1660156.3681641-.4990234.3681641-.1435547,0-.2363281-.0234375-.2783203-.0693359-.0410156-.0419922-.0625-.1181641-.0625-.2285156v-.3261719h-2.5185547v2.9140625c.828125-.203125,1.5683594-.4248047,2.2207031-.6660156-.1621094-.4160156-.4375-.8183594-.8261719-1.2070312-.0087891-.0097656-.0136719-.0214844-.0136719-.0351562,0-.0556641.0302734-.0830078.0898438-.0830078.0097656,0,.0185547.0019531.0283203.0068359.5361328.2539062.9648438.5693359,1.2841797.9433594.2675781.3154297.4023438.609375.4023438.8818359,0,.3515625-.1503906.5273438-.4511719.5273438-.1435547,0-.2685547-.203125-.375-.6103516l-.0419922-.1533203c-1.0820312.5791016-2.2070312,1.0859375-3.3730469,1.5205078-.0595703.3466797-.1542969.5205078-.2841797.5205078-.0693359,0-.1367188-.0761719-.2011719-.2294922-.0693359-.1572266-.1923828-.5107422-.3681641-1.0615234.25-.0185547.578125-.0644531.9853516-.1386719l.125-.0351562v-4.4697266c0-1.5361328-.0185547-2.5791016-.0556641-3.1298828Zm3.3730469,2.2207031v-1.4785156h-2.5185547v1.4785156h2.5185547Zm-2.5185547.3544922v1.5751953h2.5185547v-1.5751953h-2.5185547Zm5.5800781-1.2978516c-.0654297,1.6425781-.2460938,3.0117188-.5419922,4.1083984-.3652344,1.3466797-1.1259766,2.5722656-2.2832031,3.6787109-.0087891.0087891-.0234375.0136719-.0419922.0136719-.0917969,0-.1386719-.0371094-.1386719-.1113281,0-.0136719.0048828-.0253906.0146484-.0341797.9160156-1.2265625,1.5078125-2.5058594,1.7763672-3.8378906.2539062-1.2080078.3818359-3.0683594.3818359-5.5800781,0-1.0556641-.0302734-1.8886719-.0908203-2.4990234.4121094.1806641.7802734.375,1.1035156.5830078h3.671875c.3984375-.4716797.6386719-.7080078.7216797-.7080078.0693359,0,.3193359.1806641.75.5410156.2167969.1855469.3261719.3173828.3261719.3964844,0,.0830078-.0654297.1240234-.1943359.1240234h-5.4140625v1.2910156c0,.4404297-.0087891,1-.0273438,1.6796875h3.6923828c.2910156-.3330078.4667969-.4990234.5273438-.4990234.0644531,0,.2705078.1611328.6171875.4853516.1347656.1201172.2021484.2246094.2021484.3125s-.1416016.1962891-.4238281.3261719c-.4072266,1.7675781-1.0410156,3.2363281-1.9013672,4.4072266.0371094.0371094.0947266.1015625.1728516.1943359.7773438.9257812,1.7402344,1.59375,2.8876953,2.0058594.0322266.0087891.0488281.0302734.0488281.0625,0,.0507812-.0302734.0878906-.0908203.1103516-.2314453.0605469-.4160156.2529297-.5546875.5761719-.0371094.1162109-.0996094.1738281-.1875.1738281-.0830078,0-.2519531-.0898438-.5068359-.2705078-.8564453-.6015625-1.5966797-1.3623047-2.2207031-2.2832031-1,1.1240234-2.3164062,2.0234375-3.9492188,2.6992188h-.0205078c-.0703125,0-.1044922-.0439453-.1044922-.1318359,0-.0273438.0087891-.0458984.0273438-.0556641,1.5458984-.9199219,2.7558594-1.9824219,3.6298828-3.1855469-.2451172-.4345703-.4902344-1.03125-.7353516-1.7900391-.2216797-.7587891-.4160156-1.6865234-.5830078-2.7832031h-.5410156Zm2.2548828,3.9902344c.6894531-1.1376953,1.1826172-2.4677734,1.4785156-3.9902344h-2.8662109c.2919922,1.6103516.7539062,2.9404297,1.3876953,3.9902344Z"/>
        <path class="cls-2" d="m23.4472656,3.8583984c-1.2353516.3330078-2.7392578.5800781-4.5107422.7421875-.0878906.2734375-.1875.4091797-.2988281.4091797-.0644531,0-.1181641-.0664062-.1591797-.2011719-.0419922-.1201172-.125-.4648438-.25-1.0341797.3701172.0371094.7958984.0556641,1.2763672.0556641.3662109-.7958984.6455078-1.5332031.8398438-2.2138672.1113281-.3613281.1738281-.6542969.1875-.8818359.5966797.171875.9833984.2988281,1.1591797.3818359.1523438.0693359.2294922.1416016.2294922.2158203,0,.0732422-.0400391.1289062-.1181641.1660156-.0742188.0322266-.2226562.0722656-.4443359.1181641-.4023438.7636719-.890625,1.5019531-1.4648438,2.2138672.9580078-.0087891,2.0986328-.0898438,3.421875-.2431641-.2773438-.5410156-.5917969-.9873047-.9433594-1.3388672-.0146484-.0136719-.0214844-.0283203-.0214844-.0419922,0-.0507812.0302734-.0761719.0908203-.0761719.0087891,0,.0185547.0019531.0273438.0068359.6289062.2822266,1.1337891.6474609,1.5126953,1.0966797.3242188.3798828.4863281.7353516.4863281,1.0683594,0,.1621094-.046875.2939453-.1386719.3964844-.0742188.0878906-.1640625.1318359-.2705078.1318359-.125,0-.2177734-.046875-.2783203-.1396484-.0507812-.078125-.125-.2539062-.2216797-.5273438-.0185547-.0693359-.0556641-.1708984-.1113281-.3046875Zm-.5273438,6.0585938h-3.0263672v3.1298828c0,.2636719-.1757812.3955078-.5273438.3955078-.2265625,0-.3398438-.1083984-.3398438-.3261719l.0693359-3.5390625c0-2.3046875-.0234375-3.75-.0693359-4.3378906.375.1386719.7050781.3056641.9921875.5h2.7763672c.2636719-.2822266.4326172-.4238281.5068359-.4238281s.2587891.1269531.5546875.3818359c.1621094.1386719.2431641.2382812.2431641.2988281,0,.0917969-.1269531.2236328-.3818359.3955078v1.8808594l.0419922,4.0185547c0,.4208984-.1572266.7236328-.4716797.9091797-.2128906.125-.4394531.1875-.6806641.1875-.0927734,0-.1503906-.0771484-.1728516-.2294922-.0332031-.1806641-.1181641-.3144531-.2568359-.4023438-.1484375-.0976562-.4121094-.1894531-.7919922-.2773438-.0371094-.0097656-.0546875-.0371094-.0546875-.0839844,0-.0595703.0224609-.0898438.0693359-.0898438.5869141.0419922,1.0126953.0625,1.2763672.0625.1621094,0,.2431641-.0859375.2431641-.2568359v-2.1933594Zm0-2.2695312v-1.5546875h-3.0263672v1.5546875h3.0263672Zm0,1.9160156v-1.5615234h-3.0263672v1.5615234h3.0263672Zm3.1367188.2568359c.8427734-.375,1.6289062-.8310547,2.3603516-1.3681641.4716797-.3417969.7978516-.6445312.9785156-.9091797.6660156.4404297.9990234.7412109.9990234.9023438,0,.0927734-.078125.1396484-.2353516.1396484-.1025391,0-.2431641-.0185547-.4238281-.0556641-1.0732422.6982422-2.2998047,1.2285156-3.6787109,1.5888672v1.6171875c0,.3007812.1113281.4833984.3339844.5488281.2167969.0693359.7070312.1035156,1.4707031.1035156.6572266,0,1.0878906-.015625,1.2910156-.0488281.1943359-.0273438.3515625-.0878906.4716797-.1796875.2314453-.1855469.4814453-.7177734.75-1.5966797.0136719-.0322266.0419922-.0488281.0830078-.0488281.0605469,0,.0908203.0283203.0908203.0839844-.0048828.0878906-.0234375.3349609-.0556641.7421875-.0185547.2402344-.0283203.4003906-.0283203.4785156,0,.1064453.0556641.1875.1669922.2431641.1523438.0654297.2294922.1787109.2294922.3398438,0,.2548828-.2314453.4443359-.6943359.5693359-.4580078.125-1.2080078.1875-2.2490234.1875-1.2119141,0-1.9824219-.0966797-2.3115234-.2910156-.2773438-.1669922-.4160156-.5-.4160156-1l.0273438-2.2626953c0-1.2578125-.0185547-2.1054688-.0546875-2.5400391.6337891.0791016,1.0341797.1416016,1.2001953.1875.1201172.0371094.1806641.0878906.1806641.1523438,0,.125-.1621094.2529297-.4863281.3818359v2.0341797Zm.0351562-6.1708984c.8974609-.4433594,1.6845703-.9316406,2.359375-1.4638672.4541016-.375.7470703-.6738281.8818359-.8955078.6611328.4257812.9921875.7197266.9921875.8818359,0,.1103516-.0996094.1660156-.2978516.1660156-.0976562,0-.2158203-.0136719-.3544922-.0410156-.9716797.6708984-2.1650391,1.2255859-3.5810547,1.6650391v1.1943359c0,.2822266.1113281.4550781.3330078.5205078.2265625.0644531.7402344.0966797,1.5410156.0966797.6289062,0,1.078125-.0302734,1.3466797-.0898438.2128906-.046875.3701172-.125.4716797-.2363281.1992188-.2177734.3974609-.6523438.5966797-1.3046875.0136719-.0371094.0419922-.0556641.0830078-.0556641.0507812,0,.0771484.0234375.0771484.0693359-.0283203.625-.0419922.9628906-.0419922,1.0136719v.0488281c0,.1201172.0625.1962891.1875.2285156.1474609.0507812.2216797.1669922.2216797.3466797,0,.25-.2265625.4375-.6796875.5625-.4902344.125-1.2314453.1875-2.2207031.1875-1.2636719,0-2.0576172-.0947266-2.3808594-.2841797-.2685547-.1533203-.4023438-.4794922-.4023438-.9785156l.0136719-2.1455078c0-1.1376953-.0234375-1.9287109-.0693359-2.3730469.6523438.078125,1.0595703.1435547,1.2216797.1943359.1240234.0410156.1865234.1035156.1865234.1875,0,.1152344-.1611328.2382812-.4853516.3671875v2.1376953Z"/>
        <path class="cls-2" d="m39.3232422,9.5214844c-.3056641.9628906-.8378906,1.7353516-1.5966797,2.3183594-1.0546875.8466797-2.5654297,1.40625-4.5322266,1.6796875-.0595703.0087891-.0898438-.0400391-.0898438-.1464844,0-.0507812.015625-.078125.0488281-.0830078,1.9472656-.4814453,3.3681641-1.2099609,4.2607422-2.1865234.4257812-.4667969.7480469-1.0224609.9648438-1.6650391h-3.9765625c-.3984375,0-.7402344.0273438-1.0273438.0830078l-.125-.5341797c.3837891.0644531.7685547.0966797,1.1523438.0966797h4.0947266c.0507812-.2451172.0859375-.4257812.1044922-.5410156.0410156-.2587891.0625-.4970703.0625-.7148438v-.1533203c.6386719.0927734,1.0292969.1601562,1.1728516.2021484.1435547.0458984.2148438.1083984.2148438.1865234,0,.1396484-.1591797.2617188-.4785156.3681641-.0283203.1386719-.0693359.3427734-.125.6113281l-.0136719.0410156h4.4482422c.4023438-.4804688.6386719-.7216797.7080078-.7216797.0791016,0,.3544922.1894531.8261719.5693359.1982422.1621094.2978516.2890625.2978516.3818359,0,.0830078-.0625.125-.1865234.125h-5.9277344c.7216797,1.0039062,1.6816406,1.7509766,2.8808594,2.2412109,1.0410156.4257812,2.2070312.6552734,3.4980469.6875.0410156,0,.0615234.0205078.0615234.0625,0,.0458984-.0205078.0761719-.0615234.0898438-.2041016.0556641-.3564453.1367188-.4589844.2431641-.0917969.1015625-.1826172.2617188-.2705078.4785156-.0322266.1162109-.1132812.1738281-.2421875.1738281-.1582031,0-.3886719-.0419922-.6943359-.125-.8242188-.2128906-1.6308594-.5546875-2.4228516-1.0273438-1.0595703-.6152344-1.9150391-1.5292969-2.5673828-2.7412109Zm-.4511719-2.484375v-1.7705078h-3.1162109c-.3798828,0-.7011719.0283203-.9648438.0839844l-.1386719-.5488281c.3789062.0742188.7421875.1113281,1.0898438.1113281h3.1298828v-1.6445312h-3.921875c-.3837891,0-.7119141.0273438-.9853516.0830078l-.1386719-.5556641c.3515625.0791016.7216797.1181641,1.1103516.1181641h5.4970703c.2871094-.4121094.5712891-.9296875.8535156-1.5546875.1347656-.3007812.2246094-.5371094.2705078-.7080078.8330078.3378906,1.25.5693359,1.25.6943359,0,.1298828-.1943359.2060547-.5830078.2285156-.4257812.5097656-.8798828.9560547-1.3603516,1.3398438h2.6298828c.4023438-.4580078.6386719-.6875.7080078-.6875s.3173828.171875.7431641.5136719c.2167969.1757812.3261719.3056641.3261719.3886719,0,.0927734-.0625.1396484-.1875.1396484h-5.3310547v1.6445312h2.8603516c.3740234-.4345703.6005859-.6523438.6796875-.6523438.0644531,0,.3095703.1660156.7353516.5.1992188.1523438.2988281.2744141.2988281.3671875s-.0605469.1386719-.1806641.1386719h-4.3935547v1.7705078h4.1367188c.4023438-.4677734.6435547-.7011719.7216797-.7011719.0693359,0,.3261719.1806641.7705078.5410156.2089844.1757812.3125.3056641.3125.3886719s-.0673828.125-.2011719.125h-11.1113281c-.3935547,0-.7451172.0283203-1.0556641.0830078l-.1386719-.5341797c.3476562.0654297.7402344.0976562,1.1796875.0976562h4.5048828Zm-2.5683594-6.1708984c-.0185547-.0136719-.0273438-.0292969-.0273438-.0478516,0-.0556641.0322266-.0839844.0966797-.0839844.0097656,0,.0185547.0029297.0283203.0078125.578125.1757812,1.0224609.4111328,1.3320312.7070312.2597656.2460938.3886719.4960938.3886719.75,0,.3701172-.1689453.5556641-.5058594.5556641-.2128906,0-.3564453-.1279297-.4306641-.3818359-.1943359-.6484375-.4882812-1.1503906-.8818359-1.5068359Z"/>
        <path class="cls-2" d="m51.4023438,4.3300781v1.2216797c.6982422.2685547,1.2255859.578125,1.5820312.9296875.3007812.3007812.4511719.6015625.4511719.9023438,0,.1523438-.0458984.2802734-.1386719.3818359-.078125.0878906-.1738281.1318359-.2841797.1318359-.2128906,0-.3564453-.1230469-.4306641-.3681641-.2353516-.6796875-.6289062-1.2441406-1.1796875-1.6933594v.9648438l.0419922,6.3710938c0,.2734375-.1855469.4101562-.5556641.4101562-.2734375,0-.4091797-.1181641-.4091797-.3544922,0-.0322266.0205078-.9248047.0625-2.6787109.0410156-1.6894531.0712891-3.1074219.0898438-4.2548828-.7490234,1.6982422-1.6542969,3.0771484-2.7138672,4.1367188-.0087891.0097656-.0234375.0136719-.0410156.0136719-.0927734,0-.1396484-.0371094-.1396484-.1113281,0-.0136719.0048828-.0244141.0146484-.0341797,1.2441406-1.7119141,2.1347656-3.7011719,2.671875-5.96875h-1.3535156c-.1894531,0-.4560547.0273438-.7978516.0830078l-.1533203-.5205078c.2958984.0556641.6083984.0830078.9375.0830078h1.4921875v-1.1376953c0-1.0546875-.0234375-1.7607422-.0693359-2.1171875.6240234.0654297,1.0292969.1279297,1.2138672.1875.1396484.046875.2089844.1113281.2089844.1943359,0,.1201172-.1669922.25-.5.3886719v2.484375h.8115234c.3242188-.40625.5283203-.6103516.6113281-.6103516.0693359,0,.2910156.1669922.6660156.5.1708984.1435547.2568359.2568359.2568359.3398438s-.0625.125-.1875.125h-2.1582031Zm1.1660156,8.9882812c-.0742188.0136719-.1113281-.0332031-.1113281-.1396484,0-.0322266.0136719-.0527344.0419922-.0625,2.3037109-.7949219,4.2705078-1.9794922,5.8994141-3.5527344.5595703-.5458984.9804688-1.0439453,1.2626953-1.4921875.7314453.4804688,1.0966797.7910156,1.0966797.9296875,0,.1113281-.1289062.1669922-.3886719.1669922-.0693359,0-.1552734-.0048828-.2568359-.0146484-1.1474609,1.1708984-2.3574219,2.0898438-3.6298828,2.7558594-1.1152344.5878906-2.4199219,1.0566406-3.9140625,1.4091797Zm.5546875-4.2275391h-.0205078c-.0693359,0-.1035156-.0478516-.1035156-.1455078,0-.0273438.0107422-.0458984.0341797-.0556641.9628906-.4023438,1.9160156-.9248047,2.859375-1.5683594.7958984-.5458984,1.4785156-1.1054688,2.0478516-1.6796875.453125-.4394531.7998047-.8554688,1.0410156-1.2490234.7119141.5039062,1.0683594.8212891,1.0683594.9511719,0,.1015625-.1064453.1523438-.3193359.1523438-.0878906,0-.2011719-.0097656-.3398438-.0283203-1.7763672,1.7490234-3.8652344,2.9570312-6.2675781,3.6230469Zm.2851562-3.9208984h-.0205078c-.0703125,0-.1044922-.0488281-.1044922-.1455078,0-.0283203.0117188-.046875.0341797-.0556641,1.4853516-.6894531,2.8271484-1.65625,4.0263672-2.9013672.5136719-.5273438.8251953-.9208984.9365234-1.1796875.75.4580078,1.1240234.7558594,1.1240234.8955078,0,.1152344-.1220703.1728516-.3671875.1728516-.0791016,0-.1738281-.0039062-.2851562-.0136719-.8974609.8837891-1.7578125,1.5644531-2.5820312,2.0410156-.7539062.4433594-1.6748047.8388672-2.7617188,1.1865234Z"/>
        <path class="cls-2" d="m73.28125,5.3984375c-1.3232422.2597656-2.6972656.4560547-4.1220703.5898438-1.0595703.1025391-2.6474609.2177734-4.7617188.3476562-.0878906.2871094-.1943359.4296875-.3193359.4296875-.0830078,0-.1572266-.1054688-.2216797-.3183594-.0605469-.2089844-.1318359-.5810547-.2148438-1.1181641.4580078.046875,1.1953125.0693359,2.2138672.0693359.5869141-.9482422,1.1142578-2.0332031,1.5820312-3.2548828.2128906-.5917969.3447266-1.0800781.3955078-1.4638672.6386719.1845703,1.0439453.3183594,1.2148438.4023438.1660156.0742188.25.1572266.25.25,0,.1523438-.1904297.2607422-.5693359.3261719-.75,1.5683594-1.5546875,2.8154297-2.4150391,3.7402344h.0966797c1.9941406-.0136719,4.2177734-.1132812,6.6699219-.2978516-.5644531-.7822266-1.2998047-1.4921875-2.2070312-2.1308594-.0185547-.0136719-.0273438-.0302734-.0273438-.0488281,0-.0830078.0390625-.125.1171875-.125h.0214844c1.1523438.4580078,2.0869141,1.0224609,2.8037109,1.6933594.6064453.5644531.9091797,1.0712891.9091797,1.5205078,0,.1660156-.0507812.3007812-.1523438.4023438-.0927734.0927734-.2089844.1386719-.3476562.1386719-.1152344,0-.2216797-.0576172-.3193359-.1738281-.0966797-.1201172-.2402344-.3515625-.4296875-.6933594l-.1669922-.2851562Zm-.8261719,7.0107422h-6.2392578v.7216797c0,.2675781-.1894531.4023438-.5693359.4023438-.2451172,0-.3671875-.1132812-.3671875-.3398438l.0556641-3.1162109c0-1.1943359-.0234375-2.0478516-.0693359-2.5615234.3417969.125.7050781.3056641,1.0888672.5410156h5.9902344c.2958984-.3515625.4785156-.5273438.5478516-.5273438.0654297,0,.2685547.1533203.6113281.4580078.1611328.1484375.2421875.2568359.2421875.3261719,0,.1064453-.1318359.2431641-.3955078.4101562v1.2207031l.0556641,3.109375c0,.2646484-.1943359.3964844-.5830078.3964844-.2451172,0-.3681641-.1113281-.3681641-.3339844v-.7070312Zm0-.3544922v-3.6435547h-6.2392578v3.6435547h6.2392578Z"/>
        <path class="cls-2" d="m83.4521484,12.0478516c-.9023438-.0273438-1.8066406-.0419922-2.7138672-.0419922-.8925781,0-1.7832031.0146484-2.671875.0419922-.1162109,0-.1738281-.0898438-.1738281-.2705078,0-.1347656.0322266-.2519531.0976562-.3544922.953125-1.4013672,1.84375-2.5996094,2.671875-3.5947266l.2705078-.3125c.6894531-.8095703,1.1455078-1.4619141,1.3671875-1.9570312.1708984-.375.2568359-.7792969.2568359-1.2148438,0-.6660156-.1640625-1.1728516-.4931641-1.5195312-.2675781-.2822266-.6152344-.4238281-1.0410156-.4238281-.6474609,0-1.1035156.2617188-1.3671875.7841797-.0927734.1992188-.1386719.5341797-.1386719,1.0068359,0,.1894531-.1083984.3466797-.3261719.4716797-.1806641.1113281-.3955078.1669922-.6455078.1669922-.2910156,0-.4375-.1669922-.4375-.5,0-.6015625.3261719-1.1611328.9794922-1.6796875.5869141-.4628906,1.2324219-.6943359,1.9355469-.6943359.8613281,0,1.5546875.2451172,2.0830078.7363281.4755859.4433594.7148438,1.0126953.7148438,1.7070312,0,.6103516-.1347656,1.1337891-.4033203,1.5683594-.25.4121094-.7080078.9189453-1.3740234,1.5205078l-.4375.3955078c-1.2441406,1.1191406-2.1650391,2.1630859-2.7617188,3.1298828h2.359375c.625,0,1.0576172-.0253906,1.2978516-.0761719.1943359-.0371094.3632812-.1113281.5068359-.2226562.2822266-.2080078.5390625-.578125.7705078-1.1103516.0273438-.0644531.0644531-.0966797.1113281-.0966797.0644531,0,.1269531.015625.1875.0488281.0546875.0273438.0830078.0576172.0830078.0898438l-.0136719.0761719c-.2314453.8789062-.4628906,1.6542969-.6943359,2.3251953Z"/>
        <path class="cls-2" d="m93.1787109,2.3378906v5.4619141l.0556641,4.4072266c-.0136719.4628906-.2314453.8027344-.6523438,1.0205078-.2636719.125-.5439453.1875-.8398438.1875-.1113281,0-.1806641-.0810547-.2080078-.2431641-.046875-.203125-.1875-.3652344-.4238281-.4853516-.2871094-.1435547-.7470703-.2636719-1.3808594-.3613281-.0419922-.0087891-.0625-.0458984-.0625-.1103516,0-.0605469.0205078-.0908203.0625-.0908203.9853516.0654297,1.7421875.0976562,2.2695312.0976562.1621094,0,.2431641-.0947266.2431641-.2851562V2.3378906h-4.4765625c-.4677734,0-.8681641.0283203-1.2011719.0830078l-.1386719-.5341797c.4902344.0654297.9365234.0976562,1.3398438.0976562h9.0224609c.5087891-.5791016.7978516-.8681641.8671875-.8681641.0644531,0,.3564453.2041016.875.6113281.2773438.2216797.4160156.3789062.4160156.4716797s-.0673828.1386719-.2011719.1386719h-5.5664062Z"/>
        <path class="cls-2" d="m110.6708984,12.3466797h-6.46875v.6376953c0,.2871094-.1943359.4306641-.5830078.4306641-.2539062,0-.3808594-.1181641-.3808594-.3535156l.0693359-6.8232422c0-2.6835938-.0332031-4.3466797-.0976562-4.9902344.4628906.1904297.8398438.3847656,1.1318359.5830078h6.2177734c.3105469-.3330078.4931641-.4990234.5488281-.4990234.0830078,0,.2871094.1386719.6103516.4160156.1621094.125.2431641.2333984.2431641.3261719,0,.1064453-.1269531.2431641-.3818359.4091797v3.6230469l.0693359,6.8369141c0,.3046875-.1943359.4580078-.5830078.4580078-.2636719,0-.3955078-.1201172-.3955078-.3613281v-.6933594Zm0-7.2460938v-2.9150391h-6.46875v2.9150391h6.46875Zm0,3.2412109v-2.8876953h-6.46875v2.8876953h6.46875Zm0,3.6503906v-3.296875h-6.46875v3.296875h6.46875Z"/>
        <path class="cls-2" d="m119.4746094,6.7177734c.8232422.1435547,1.453125.4648438,1.8876953.9648438.3789062.4394531.5693359.9755859.5693359,1.609375,0,.9765625-.3222656,1.7402344-.9648438,2.2910156-.5595703.4716797-1.2792969.7080078-2.1582031.7080078-.7548828,0-1.4277344-.1855469-2.0205078-.5556641-.5966797-.3652344-.8945312-.7451172-.8945312-1.1376953,0-.1757812.0898438-.3242188.2705078-.4443359.1621094-.1015625.3564453-.1533203.5830078-.1533203.2167969,0,.4345703.2714844.6523438.8125l.0693359.1660156c.2451172.5693359.6914062.8544922,1.3398438.8544922.6191406,0,1.0986328-.2480469,1.4365234-.7431641.3007812-.4482422.4511719-1.0644531.4511719-1.8457031,0-.7265625-.2041016-1.2978516-.6113281-1.7148438-.3564453-.3603516-.8115234-.5410156-1.3671875-.5410156l-.7490234.0419922c-.1162109,0-.1738281-.0537109-.1738281-.1601562,0-.2822266.0996094-.4228516.2988281-.4228516l.4853516.0410156c.578125,0,1.0390625-.2216797,1.3808594-.6660156.3007812-.3984375.4511719-.9003906.4511719-1.5058594,0-.6572266-.1503906-1.1542969-.4511719-1.4921875-.2636719-.2871094-.6152344-.4306641-1.0546875-.4306641-.6103516,0-1.0273438.2080078-1.2490234.625-.0976562.1894531-.1455078.4277344-.1455078.7148438,0,.203125-.1025391.3701172-.3056641.4990234-.1806641.1113281-.3916016.1669922-.6318359.1669922-.2910156,0-.4375-.1367188-.4375-.4091797,0-.5322266.3076172-1.015625.9238281-1.4511719.5498047-.3886719,1.1660156-.5830078,1.8457031-.5830078.8466797,0,1.5205078.2382812,2.0195312.7148438.4443359.4257812.6669922.9746094.6669922,1.6455078,0,1.2070312-.7060547,1.9892578-2.1171875,2.3457031v.0556641Z"/>
        <path class="cls-2" d="m125.7382812,3.0117188v-.0283203c0-.9160156-.0185547-1.6259766-.0556641-2.1308594.9023438.0976562,1.3535156.2197266,1.3535156.3681641,0,.1015625-.1572266.2197266-.4726562.3535156v1.4375h2.4296875c0-.9492188-.0185547-1.6679688-.0556641-2.1591797.5878906.0605469.9667969.1210938,1.1386719.1806641.1201172.0458984.1796875.1083984.1796875.1875,0,.1015625-.1455078.2197266-.4365234.3535156v1.4375h.4365234c.3105469-.3798828.5-.5693359.5693359-.5693359.0742188,0,.2734375.1523438.5966797.4580078.1533203.1386719.2294922.2519531.2294922.3398438,0,.0830078-.0605469.125-.1806641.125h-1.6513672v5.9892578h.3398438c.3007812-.3701172.4853516-.5546875.5546875-.5546875.0517578,0,.25.1484375.5976562.4443359.1425781.1386719.2148438.2519531.2148438.3398438,0,.0830078-.0625.125-.1875.125h-6.34375c-.2451172,0-.5087891.0273438-.7910156.0830078l-.1455078-.5341797c.2871094.0644531.5986328.0966797.9365234.0966797h.7431641V3.3652344h-.5693359c-.2041016,0-.4833984.0273438-.8398438.0830078l-.1386719-.5205078c.3056641.0556641.6269531.0839844.9648438.0839844h.5830078Zm-1.5205078,10.5488281c-.0087891.0048828-.0185547.0068359-.0273438.0068359-.0878906,0-.1318359-.0410156-.1318359-.125,0-.0185547.0068359-.0322266.0205078-.0410156.6152344-.5048828,1.1982422-1.2197266,1.7490234-2.1445312.2363281-.4121094.3818359-.7451172.4375-1,.5136719.2314453.8330078.3867188.9580078.4648438.1064453.0654297.1591797.1298828.1591797.1943359,0,.1210938-.1689453.1855469-.5068359.1943359-.6103516,1.0185547-1.4970703,1.8349609-2.6582031,2.4501953Zm2.3457031-8.515625h2.4296875v-1.6796875h-2.4296875v1.6796875Zm2.4296875.3535156h-2.4296875v1.7080078h2.4296875v-1.7080078Zm0,2.0615234h-2.4296875v1.8945312h2.4296875v-1.8945312Zm-.7773438,3.0263672c-.0234375-.0136719-.0351562-.0322266-.0351562-.0556641,0-.0605469.0322266-.0898438.0976562-.0898438h.0205078c.5927734.1337891,1.0664062.3603516,1.4228516.6796875.3007812.2685547.4511719.5458984.4511719.8330078,0,.1572266-.0458984.2890625-.1386719.3955078-.0742188.0878906-.1640625.1318359-.2705078.1318359-.1992188,0-.3427734-.1386719-.4306641-.4160156-.1572266-.5185547-.5292969-1.0117188-1.1171875-1.4785156Zm4.4628906-2.0615234c-.0742188.6201172-.2041016,1.2119141-.3886719,1.7763672-.4121094,1.2363281-1.1982422,2.3466797-2.3603516,3.3320312-.0087891.0087891-.0205078.0136719-.0341797.0136719-.0878906,0-.1318359-.0390625-.1318359-.1181641,0-.0136719.0039062-.0253906.0136719-.0341797.8886719-1.0595703,1.4853516-2.1884766,1.7910156-3.3876953.2539062-1.0361328.3818359-2.8564453.3818359-5.4619141,0-1.7392578-.0234375-2.8613281-.0703125-3.3662109.3701172.1669922.7197266.3515625,1.0488281.5556641h2.4013672c.2822266-.3056641.4550781-.4580078.5205078-.4580078.0830078,0,.2822266.1289062.5966797.3886719.1523438.1289062.2285156.2382812.2285156.3261719,0,.0830078-.1220703.2060547-.3671875.3671875v3.4912109l.0693359,6.5517578c0,.4169922-.1757812.7148438-.5273438.8955078-.2128906.1162109-.4306641.1738281-.6523438.1738281-.0839844,0-.1367188-.0136719-.1601562-.0419922-.0273438-.0273438-.0507812-.0898438-.0693359-.1875-.0419922-.1894531-.1523438-.3330078-.3330078-.4296875-.1894531-.1064453-.5087891-.1992188-.9580078-.2783203-.0371094-.0087891-.0556641-.0390625-.0556641-.0898438,0-.0644531.0234375-.0966797.0693359-.0966797.6435547.0458984,1.1503906.0693359,1.5205078.0693359.1708984,0,.2568359-.0976562.2568359-.2919922v-3.6992188h-2.7900391Zm.125-3.1992188c0,1.1660156-.0322266,2.1142578-.0976562,2.8457031h2.7626953v-2.8457031h-2.6650391Zm2.6650391-.3544922v-2.7832031h-2.6650391v2.7832031h2.6650391Z"/>
        <path class="cls-2" d="m5.4296875,32.65625c.2910156.3242188.5527344.5693359.7841797.7363281.5273438.4072266,1.1767578.6982422,1.9501953.8740234.7958984.1855469,1.8154297.2773438,3.0605469.2773438,1.4902344,0,2.9589844-.0947266,4.4072266-.2841797.0507812-.0087891.0761719.0185547.0761719.0830078,0,.0419922-.0166016.0722656-.0488281.0908203-.1894531.1103516-.3144531.2080078-.3740234.2910156-.0517578.0742188-.0859375.1894531-.1044922.3476562-.0136719.1572266-.1181641.2470703-.3125.2705078-.5595703.0458984-1.6982422.0693359-3.4150391.0693359-1.5498047,0-2.7802734-.1455078-3.6914062-.4375-.6855469-.2216797-1.2822266-.5595703-1.7910156-1.0136719-.2822266-.2402344-.5527344-.5224609-.8125-.8466797-.5683594.9023438-1.4150391,1.7421875-2.5400391,2.5195312-.0087891.0048828-.0185547.0068359-.0273438.0068359-.0878906,0-.1318359-.0458984-.1318359-.1386719,0-.0185547.0039062-.0322266.0136719-.0410156,1.03125-1.0048828,1.78125-2.0058594,2.2490234-3.0058594-.3935547-.6572266-.7177734-1.4482422-.9716797-2.3730469-.0419922-.1484375-.0927734-.2431641-.1533203-.2851562-.1064453-.0693359-.1591797-.1289062-.1591797-.1806641,0-.0410156.0898438-.0878906.2705078-.1386719.1435547-.0410156.2519531-.0625.3261719-.0625.0791016,0,.1181641.0322266.1181641.0976562,0,.0234375-.0205078.0712891-.0625.1455078-.0283203.0605469-.0419922.1015625-.0419922.125,0,.0878906.0371094.2451172.1113281.4716797.203125.625.4648438,1.1982422.7841797,1.7216797.4023438-.9951172.6826172-2.2460938.8398438-3.7548828h-1.5195312l-.2568359.4228516c-.0878906.1435547-.1923828.2158203-.3125.2158203-.1298828,0-.2568359-.0322266-.3818359-.0976562-.1162109-.0595703-.1738281-.1269531-.1738281-.2011719,0-.0644531.0371094-.1591797.1113281-.2841797.7587891-1.25,1.4091797-2.5615234,1.9501953-3.9355469h-1.3183594c-.3613281,0-.7128906.0273438-1.0556641.0830078l-.125-.5410156c.3291016.0693359.7177734.1044922,1.1660156.1044922h1.3193359c.2822266-.3154297.453125-.4726562.5136719-.4726562.0732422,0,.2724609.1484375.5966797.4443359.1435547.1386719.2148438.2480469.2148438.3261719,0,.0927734-.1660156.1972656-.4990234.3125-.4765625,1.1660156-.9931641,2.2558594-1.5478516,3.2685547h1.2626953c.2734375-.3046875.4394531-.4580078.5-.4580078.0595703,0,.2431641.1347656.5478516.4033203.1435547.1201172.2158203.2285156.2158203.3261719,0,.0732422-.1181641.1728516-.3544922.2978516-.2265625,1.7539062-.6289062,3.1601562-1.2070312,4.2197266Zm8.5986328-6.3710938h.2568359c.3007812-.4072266.4882812-.6103516.5625-.6103516.0644531,0,.2724609.1611328.6240234.4853516.1435547.1298828.2158203.2480469.2158203.3544922,0,.0830078-.0605469.1240234-.1806641.1240234h-1.4785156c.0048828.5097656.0166016.9765625.0351562,1.4023438.0136719.3242188.0205078.4902344.0205078.5,0,.2353516-.1621094.3535156-.4853516.3535156-.2363281,0-.3544922-.1035156-.3544922-.3125v-.0966797h-2.2138672c0,.6337891.0048828,1.1132812.0136719,1.4365234h2.1865234c.3652344-.4257812.5878906-.6386719.6660156-.6386719.0927734,0,.3359375.1669922.7285156.5.2089844.1708984.3125.2939453.3125.3681641,0,.0830078-.0625.125-.1875.125h-3.7060547c0,.65625.0048828,1.1513672.0136719,1.484375h2.6103516c.3837891-.4667969.6171875-.7001953.7001953-.7001953.0878906,0,.3427734.1757812.7636719.5273438.2080078.1660156.3125.3007812.3125.4023438,0,.0830078-.0605469.125-.1806641.125h-4.2060547c.0048828.2734375.0117188.6201172.0214844,1.0410156.0039062.2363281.0068359.390625.0068359.4648438,0,.2734375-.1757812.4091797-.5273438.4091797-.2636719,0-.3955078-.1220703-.3955078-.3671875,0-.0927734.0136719-.6083984.0410156-1.5478516h-2.4287109c-.3291016,0-.6484375.0234375-.9580078.0693359l-.1386719-.5205078c.3974609.0644531.7636719.0966797,1.0966797.0966797h2.4287109l.0136719-1.484375h-1.8320312c-.2353516,0-.5390625.0273438-.9091797.0830078l-.1455078-.5205078c.3417969.0556641.6943359.0830078,1.0546875.0830078h1.8320312l.0146484-1.4365234h-1.6171875c-.2919922,0-.6113281.0322266-.9580078.0966797l-.125-.5341797c.3652344.0556641.7148438.0830078,1.0478516.0830078h1.6523438v-1.4921875h-2.3466797c-.2861328,0-.6220703.0283203-1.0058594.0839844l-.1318359-.5341797c.3330078.0644531.7119141.0966797,1.1376953.0966797h2.3466797c0-.6435547-.0048828-1.1269531-.0146484-1.4501953h-1.6025391c-.3330078,0-.6484375.0273438-.9443359.0830078l-.1386719-.5410156c.3613281.0693359.7148438.1035156,1.0615234.1035156h1.6240234c-.0136719-.7265625-.0322266-1.2402344-.0546875-1.5410156.5966797.0791016.96875.1416016,1.1171875.1875.1337891.046875.2011719.1132812.2011719.2011719,0,.1025391-.1503906.2158203-.4511719.3408203v.8115234h2.1171875c.2587891-.3056641.4228516-.4580078.4921875-.4580078.0742188,0,.2548828.1181641.5419922.3544922.1611328.1425781.2421875.2587891.2421875.3466797,0,.0742188-.1318359.1962891-.3955078.3681641v1.1933594Zm-.7841797,0v-1.4501953h-2.2138672v1.4501953h2.2138672Zm0,.3535156h-2.2138672v1.4921875h2.2138672v-1.4921875Z"/>
        <path class="cls-2" d="m19.3867188,24.4667969h2.5332031c.3046875-.3789062.4990234-.5693359.5830078-.5693359.0595703,0,.2822266.1533203.6660156.4580078.1621094.1484375.2431641.2568359.2431641.3261719,0,.0927734-.0625.1386719-.1875.1386719h-2.7558594c.6845703.3886719,1.0273438.7734375,1.0273438,1.1523438,0,.3515625-.1572266.5273438-.4716797.5273438-.2041016,0-.3310547-.1611328-.3818359-.4853516-.0830078-.4492188-.2587891-.8466797-.5273438-1.1943359h-.9511719c-.5917969.875-1.3046875,1.6015625-2.1376953,2.1796875-.0087891.0048828-.0185547.0068359-.0273438.0068359-.0927734,0-.1386719-.0390625-.1386719-.1181641,0-.0136719.0039062-.0253906.0136719-.0341797.6611328-.6757812,1.2441406-1.5341797,1.7490234-2.5751953.2587891-.5458984.4296875-1.0175781.5136719-1.4160156.5546875.1757812.9042969.3007812,1.0478516.375.125.0605469.1875.1298828.1875.2080078,0,.1162109-.1904297.2041016-.5693359.2636719-.1708984.3427734-.3095703.5947266-.4160156.7568359Zm3.4140625,7.3359375v-.0419922c0-.3925781-.0185547-.7910156-.0556641-1.1933594.6523438.0742188,1.0439453.1318359,1.1738281.1738281.1152344.0322266.1728516.0927734.1728516.1806641,0,.1103516-.1552734.2236328-.4648438.3398438v.5410156h4.0742188c.4023438-.4716797.640625-.7080078.7148438-.7080078.0966797,0,.3681641.1855469.8115234.5556641.1992188.1660156.2988281.2890625.2988281.3671875,0,.0927734-.0673828.1396484-.2011719.1396484h-5.5458984c.7177734.6611328,1.5224609,1.1816406,2.4160156,1.5615234,1.0175781.4296875,2.2207031.7001953,3.6083984.8115234.0419922.0048828.0625.0283203.0625.0693359,0,.0419922-.0205078.0693359-.0625.0839844-.2128906.0546875-.3564453.1201172-.4296875.1943359-.0791016.0732422-.1533203.2080078-.2226562.4023438-.0371094.1152344-.1035156.1728516-.2011719.1728516-.125,0-.3193359-.0322266-.5830078-.0966797-.8701172-.2177734-1.7207031-.5830078-2.5537109-1.0966797-.8515625-.5224609-1.5947266-1.1474609-2.2285156-1.8740234.0146484.4677734.0400391,1.2128906.0771484,2.2353516.0175781.5966797.0292969.9365234.0341797,1.0195312,0,.2734375-.1894531.4101562-.5693359.4101562-.2539062,0-.3818359-.1142578-.3818359-.3408203,0-.0371094.0185547-.4365234.0556641-1.2001953.0322266-.7314453.0556641-1.3535156.0693359-1.8671875-1.4111328,1.3974609-3.3476562,2.3876953-5.8085938,2.9707031-.0791016.0136719-.1181641-.0371094-.1181641-.1523438,0-.0332031.0117188-.0537109.0341797-.0625,2.1054688-.7363281,3.8525391-1.8164062,5.2402344-3.2412109h-3.9628906c-.3144531,0-.6386719.0224609-.9716797.0693359l-.1386719-.5205078c.4121094.0644531.7773438.0966797,1.0966797.0966797h4.5595703Zm-3.1572266-2.2900391v-2.0888672h-.9511719c-.2636719,0-.5488281.0224609-.8535156.0693359l-.1318359-.5205078c.3603516.0644531.6845703.0966797.9716797.0966797h2.6162109c.2958984-.3789062.4814453-.5693359.5556641-.5693359.0878906,0,.3095703.1484375.6660156.4443359.1621094.125.2431641.2333984.2431641.3261719,0,.1015625-.0625.1533203-.1875.1533203h-2.1035156v1.9501953c.6201172-.1210938,1.3027344-.2783203,2.0478516-.4726562h.0136719c.0556641,0,.0830078.0351562.0830078.1044922,0,.0371094-.0136719.0605469-.0410156.0693359-1.4160156.6201172-2.9033203,1.1015625-4.4628906,1.4433594-.0605469.296875-.1455078.4443359-.2568359.4443359-.0742188,0-.1416016-.0761719-.2011719-.2285156-.0654297-.1572266-.1640625-.4833984-.2988281-.9785156.3105469,0,.6132812-.0146484.9091797-.0419922.6015625-.0742188,1.0625-.1416016,1.3818359-.2011719Zm9.4667969-1.1523438c.0039062-.0419922.0322266-.0625.0830078-.0625.0693359,0,.1035156.0234375.1035156.0693359,0,.2412109.0097656.5390625.0283203.8955078.0087891.1660156.0693359.2685547.1806641.3056641.1708984.0644531.2568359.1777344.2568359.3398438,0,.2177734-.1367188.3720703-.4101562.4648438-.2773438.125-.7470703.1875-1.4082031.1875-.5693359,0-.9541016-.0976562-1.1523438-.2919922-.1621094-.1523438-.2431641-.40625-.2431641-.7626953l.0136719-1.1728516v-1.2978516h-2.4150391v.3261719c-.0136719,1.0126953-.2548828,1.8085938-.7216797,2.3867188-.4951172.5830078-1.2167969,1.0439453-2.1650391,1.3818359h-.0214844c-.0693359,0-.1035156-.0371094-.1035156-.1113281,0-.0234375.0087891-.0390625.0273438-.0488281.8095703-.4853516,1.3837891-1.0244141,1.7216797-1.6171875.3046875-.5087891.4580078-1.2099609.4580078-2.1025391,0-.3144531-.0253906-.6708984-.0771484-1.0693359.3427734.1484375.6708984.3154297.9863281.5h2.2138672c.2451172-.2724609.3974609-.4091797.4580078-.4091797.0693359,0,.2382812.1035156.5068359.3125.1796875.1572266.2705078.2705078.2705078.3398438,0,.078125-.1230469.1962891-.3681641.3535156v2.1035156c0,.1757812.0556641.2939453.1669922.3535156.0917969.046875.2587891.0693359.4990234.0693359.2460938,0,.4072266-.0107422.4863281-.0341797.0966797-.0322266.1826172-.0996094.2568359-.2011719.1015625-.1533203.2246094-.5556641.3681641-1.2080078Zm-4.4628906-3.8935547h3.2412109c.375-.4443359.5966797-.6660156.6660156-.6660156.0976562,0,.3496094.1660156.7568359.4990234.2167969.171875.3261719.2988281.3261719.3818359,0,.0927734-.0625.1386719-.1875.1386719h-3.5957031c.6386719.3710938.9580078.7197266.9580078,1.0488281,0,.1523438-.0439453.2792969-.1318359.3808594-.078125.0976562-.1826172.1464844-.3125.1464844-.1943359,0-.3212891-.1572266-.3818359-.4726562-.0878906-.453125-.2539062-.8212891-.4990234-1.1035156h-1.0830078c-.4023438.5878906-.9091797,1.1181641-1.5195312,1.5898438-.0097656.0087891-.0214844.0136719-.0351562.0136719-.0791016,0-.1181641-.0390625-.1181641-.1181641,0-.0136719.0048828-.0253906.0136719-.0341797.4765625-.5595703.8886719-1.2285156,1.2353516-2.0058594.2226562-.5185547.3730469-.9814453.4511719-1.3886719.7919922.2089844,1.1875.3779297,1.1875.5068359,0,.1210938-.1757812.2109375-.5273438.2705078-.1025391.2275391-.25.4980469-.4443359.8125Zm-.2294922,3.5185547c-.0087891-.0039062-.0136719-.0136719-.0136719-.0273438,0-.046875.0253906-.0693359.0761719-.0693359.0097656,0,.0185547.0019531.0283203.0068359.4667969.1806641.828125.4160156,1.0820312.7080078.2089844.2402344.3125.4765625.3125.7080078,0,.1660156-.0439453.3027344-.1318359.4091797-.0742188.0878906-.1640625.1318359-.2705078.1318359-.1201172,0-.2080078-.0390625-.2636719-.1181641-.046875-.0742188-.0859375-.2060547-.1181641-.3955078-.0966797-.5595703-.3310547-1.0107422-.7011719-1.3535156Z"/>
        <path class="cls-2" d="m36.9736328,30.9072266v-.4716797c0-.6337891-.0214844-1.0917969-.0625-1.3740234.5917969.0595703.9785156.1220703,1.1591797.1875.1240234.0458984.1865234.1064453.1865234.1796875,0,.1025391-.1503906.2158203-.4511719.3408203v1.1376953h3.9013672c.4433594-.4716797.7050781-.7080078.7841797-.7080078.0830078,0,.3486328.1806641.7978516.5419922.2177734.1708984.3261719.3027344.3261719.3955078,0,.0830078-.0644531.125-.1943359.125h-5.4550781c.6796875.828125,1.5478516,1.5107422,2.6025391,2.046875.9072266.4765625,2.0634766.8242188,3.4707031,1.0410156.0273438.0048828.0410156.0214844.0410156.0488281,0,.0507812-.0234375.0810547-.0693359.0908203-.2724609.078125-.4716797.2724609-.5966797.5830078-.0605469.1611328-.1416016.2421875-.2431641.2421875-.1386719,0-.3232422-.0410156-.5546875-.125-.9072266-.3554688-1.6933594-.765625-2.3603516-1.2285156-.9990234-.6845703-1.8388672-1.53125-2.5195312-2.5400391.0878906,2.0449219.1318359,3.4423828.1318359,4.1923828,0,.2724609-.1943359.4091797-.5830078.4091797-.2451172,0-.3671875-.1083984-.3671875-.3261719,0-.0693359.0136719-.6103516.0410156-1.6240234.0332031-1.1005859.0556641-1.8808594.0693359-2.3388672-1.4570312,1.7441406-3.4326172,2.9570312-5.9267578,3.6367188h-.0205078c-.0605469,0-.0908203-.0419922-.0908203-.125,0-.0322266.0146484-.0527344.0419922-.0625,2.2998047-.9755859,4.0761719-2.2832031,5.3300781-3.9208984h-3.6992188c-.3652344,0-.7050781.0273438-1.0205078.0830078l-.1318359-.5341797c.3564453.0644531.7314453.0966797,1.125.0966797h4.3378906Zm-1.7080078-5.5732422c-.9433594,1.0322266-2.0820312,1.8369141-3.4140625,2.4160156h-.0214844c-.0693359,0-.1035156-.0439453-.1035156-.1318359,0-.0283203.0087891-.046875.0273438-.0556641,1.3652344-.8427734,2.4736328-1.9208984,3.3242188-3.234375.3613281-.5742188.5947266-1.0527344.7011719-1.4365234.5966797.1796875.9648438.3027344,1.1035156.3671875.1298828.0605469.1943359.1230469.1943359.1875,0,.1484375-.2099609.2431641-.6318359.2851562-.1894531.3007812-.3330078.5224609-.4296875.6660156h3.6162109c.2910156-.3056641.4667969-.4580078.5273438-.4580078.0693359,0,.2822266.1572266.6386719.4716797.1796875.1572266.2705078.2802734.2705078.3681641,0,.0644531-.0439453.1181641-.1318359.1591797-.0742188.0322266-.2363281.0791016-.4863281.1386719-.7265625.9345703-1.4873047,1.7119141-2.2832031,2.3320312.3427734.1855469.6962891.3564453,1.0615234.5136719,1.3466797.5458984,2.9433594.8496094,4.7890625.9091797.0419922,0,.0625.0234375.0625.0693359,0,.046875-.0205078.0742188-.0625.0839844-.2958984.0644531-.5136719.2773438-.6523438.6376953-.0507812.1533203-.1367188.2294922-.2568359.2294922-.1523438,0-.390625-.0273438-.7148438-.0830078-1.1894531-.2177734-2.3525391-.625-3.4912109-1.2216797-.4482422-.2265625-.8691406-.4785156-1.2626953-.7568359-1.6376953,1.125-3.7919922,1.8837891-6.4619141,2.2763672-.0595703.0097656-.0898438-.0292969-.0898438-.1171875,0-.0371094.015625-.0605469.0488281-.0703125,2.3828125-.5732422,4.3515625-1.4248047,5.90625-2.5537109-.5507812-.4716797-1.1435547-1.1357422-1.7773438-1.9921875Zm.2011719-.2285156c.5693359.6943359,1.2402344,1.3212891,2.0126953,1.8808594.7958984-.6435547,1.5039062-1.3886719,2.1240234-2.2353516h-3.8515625c-.1113281.1435547-.2060547.2617188-.2851562.3544922Z"/>
        <path class="cls-2" d="m47.4121094,27.3125c.5742188.1015625.8613281.2148438.8613281.3398438,0,.1064453-.1464844.2197266-.4375.3398438v2.4707031l.0136719,5.0527344c0,.2822266-.1806641.4238281-.5410156.4238281-.2548828,0-.3818359-.1230469-.3818359-.3681641,0-.1572266.0234375-1.8388672.0693359-5.0458984.0087891-.5830078.0136719-1.4453125.0136719-2.5888672-.5136719.7685547-1.1015625,1.4697266-1.7626953,2.1035156-.0097656.0087891-.0205078.0136719-.0351562.0136719-.0966797,0-.1455078-.0419922-.1455078-.125,0-.0087891.0048828-.0205078.0136719-.0341797.5185547-.6435547,1.0439453-1.5107422,1.5761719-2.6025391.4345703-.8935547.7910156-1.7636719,1.0683594-2.6103516.2080078-.6523438.3398438-1.2216797.3955078-1.7070312.9394531.2734375,1.4091797.4814453,1.4091797.625,0,.1289062-.1894531.2197266-.5693359.2705078-.4394531,1.2910156-.9550781,2.4384766-1.5478516,3.4423828Zm6.3652344-.7285156h2.2480469c.4121094-.4814453.6572266-.7226562.7363281-.7226562.0830078,0,.3398438.1855469.7695312.5556641.2089844.1855469.3125.3173828.3125.3955078,0,.0830078-.0664062.125-.2011719.125h-3.8652344v3.3730469h2.6298828c.4257812-.5224609.6708984-.7841797.7353516-.7841797.0703125,0,.3359375.1943359.7988281.5830078.2265625.1855469.3398438.328125.3398438.4306641,0,.0830078-.0644531.125-.1943359.125h-4.3095703c.0136719,1.4384766.0292969,2.6738281.0478516,3.7060547.0146484.7304688.0214844,1.1005859.0214844,1.1103516,0,.2958984-.2041016.4443359-.6113281.4443359-.2636719,0-.3955078-.1181641-.3955078-.3544922,0-.0410156.0048828-.2451172.0136719-.6103516.0234375-1.1064453.0371094-2.5380859.0419922-4.2958984h-3.2275391c-.3193359,0-.6220703.0273438-.9091797.0830078l-.1386719-.5205078c.328125.0556641.6728516.0830078,1.0341797.0830078h3.2412109v-3.3730469h-2.4150391c-.4677734.9023438-1.0439453,1.6962891-1.7285156,2.3808594-.0136719.0087891-.0302734.0136719-.0488281.0136719-.0878906,0-.1318359-.0351562-.1318359-.1044922,0-.0087891.0029297-.0175781.0068359-.0273438.3515625-.5.6962891-1.1455078,1.0341797-1.9365234.2822266-.6611328.5048828-1.2998047.6669922-1.9150391.1337891-.4863281.2148438-.9072266.2421875-1.2636719.5458984.1484375.9023438.2617188,1.0693359.3398438.1474609.0654297.2216797.1347656.2216797.2089844,0,.1240234-.1640625.2236328-.4921875.2978516-.1992188.6015625-.4169922,1.1523438-.6523438,1.6523438h2.2275391c0-1.9580078-.0273438-3.1240234-.0830078-3.4980469.6611328.0732422,1.078125.1357422,1.2490234.1875.1435547.0410156.2148438.1064453.2148438.1943359,0,.1103516-.1660156.2402344-.4990234.3886719v2.7275391Z"/>
        <path class="cls-2" d="m62.1123047,27.3125c.375.0742188.6103516.1337891.7080078.1806641.0878906.0410156.1318359.0996094.1318359.1728516,0,.1064453-.1533203.2197266-.4580078.3408203v2.4287109l.0136719,4.9765625c0,.2910156-.1806641.4375-.5410156.4375-.1621094,0-.2714844-.0332031-.3261719-.0976562-.046875-.0556641-.0693359-.1503906-.0693359-.2841797,0-.0517578.0019531-.2382812.0068359-.5625.0224609-1.1894531.0439453-2.6650391.0625-4.4277344.0175781-1.0966797.0273438-1.9208984.0273438-2.4707031-.5830078.8417969-1.2236328,1.5839844-1.9228516,2.2275391-.0087891.0087891-.0185547.0136719-.0273438.0136719-.0322266,0-.0673828-.0185547-.1044922-.0556641-.0322266-.0322266-.0478516-.0595703-.0478516-.0830078,0-.0136719.0039062-.0234375.0136719-.0273438.5966797-.6894531,1.1679688-1.5712891,1.7138672-2.6445312.4492188-.8886719.8076172-1.765625,1.0761719-2.6308594.2128906-.6845703.3583984-1.2626953.4375-1.7353516.9384766.2275391,1.4082031.421875,1.4082031.5830078,0,.1484375-.1894531.2480469-.5683594.2988281-.4169922,1.2353516-.9277344,2.3554688-1.5341797,3.359375Zm6.6210938-.4716797v-.4238281c0-1.703125-.0234375-2.7783203-.0693359-3.2275391.6474609.0693359,1.0615234.1318359,1.2421875.1875.1484375.046875.2226562.1113281.2226562.1943359,0,.125-.1669922.2519531-.5.3818359v2.8876953h.9648438c.4160156-.4912109.6640625-.7363281.7421875-.7363281.0791016,0,.3447266.1855469.7978516.5556641.2275391.1845703.3408203.3212891.3408203.4091797,0,.0830078-.0673828.125-.2011719.125h-2.6445312v1.9365234l.0693359,5.5107422c0,.4208984-.1757812.7333984-.5273438.9365234-.2363281.1435547-.5.2158203-.7910156.2158203-.1025391,0-.1689453-.0771484-.2021484-.2294922-.0371094-.2128906-.1572266-.3701172-.3603516-.4716797-.2128906-.1113281-.6132812-.2226562-1.2011719-.3330078-.0371094-.0097656-.0546875-.0419922-.0546875-.0976562,0-.0693359.0224609-.1035156.0693359-.1035156.7675781.0546875,1.3876953.0830078,1.859375.0830078.1621094,0,.2431641-.0791016.2431641-.2363281v-7.2109375h-4.4208984c-.3330078,0-.6591797.0234375-.9785156.0693359l-.1318359-.5068359c.3515625.0556641.7216797.0839844,1.1103516.0839844h4.4208984Zm-4.0810547,1.9775391c-.0087891-.0136719-.0136719-.0273438-.0136719-.0419922,0-.0693359.0322266-.1035156.0966797-.1035156.0146484,0,.0253906.0019531.0351562.0068359.6943359.3652344,1.2304688.8115234,1.6103516,1.3398438.3007812.4257812.4511719.8349609.4511719,1.2285156,0,.203125-.0537109.3652344-.1601562.4853516-.0966797.1113281-.2197266.1669922-.3671875.1669922-.2363281,0-.3935547-.1943359-.4726562-.5830078-.2128906-1.0410156-.6054688-1.8740234-1.1796875-2.4990234Z"/>
        <path class="cls-2" d="m79.1513672,26.4794922c.1845703.6337891.4345703,1.2978516.7490234,1.9921875.578125-.2412109,1.0439453-.4765625,1.3955078-.7080078.0556641-.0419922.0830078-.0761719.0830078-.1044922,0-.0371094-.0185547-.0742188-.0556641-.1113281-.1660156-.1796875-.3564453-.3554688-.5693359-.5273438-.0927734-.0693359-.1386719-.1318359-.1386719-.1875,0-.0644531.0419922-.0966797.125-.0966797.0458984,0,.1181641.0234375.2148438.0693359.1484375.0878906.3291016.1738281.5419922.2568359.1806641.0693359.3164062.1044922.4091797.1044922.0507812,0,.1181641-.0078125.2011719-.0214844.0927734-.0087891.1601562-.015625.2011719-.0205078.1113281-.0087891.2128906.0166016.3056641.0761719.0791016.0556641.1181641.1162109.1181641.1806641,0,.1660156-.0761719.3027344-.2294922.4091797-.6796875.4902344-1.4570312.9072266-2.3320312,1.25.3515625.6845703.7890625,1.3671875,1.3125,2.046875.2724609.3564453.4091797.6777344.4091797.9648438,0,.3984375-.1132812.5966797-.3398438.5966797-.1298828,0-.234375-.0458984-.3125-.1386719-.25-.2910156-.6015625-.4853516-1.0546875-.5830078-.75-.1621094-1.4208984-.2431641-2.0136719-.2431641-.6376953,0-1.1650391.0976562-1.5820312.2919922-.5.2314453-.7490234.5830078-.7490234,1.0546875,0,.6015625.4482422,1.0205078,1.3457031,1.2558594.5.1298828,1.0917969.1943359,1.7773438.1943359l.9570312-.0410156c.4814453,0,.7226562.1591797.7226562.4785156,0,.2080078-.0976562.3447266-.2919922.4091797-.1660156.0517578-.4765625.0771484-.9296875.0771484-1.0966797,0-2.0341797-.1835938-2.8115234-.5488281-.8740234-.4111328-1.3115234-.9921875-1.3115234-1.7421875,0-.7304688.4052734-1.2626953,1.2148438-1.5957031.5546875-.2314453,1.2441406-.3476562,2.0683594-.3476562.8515625,0,1.5849609.0537109,2.2001953.1601562-.3427734-.5595703-.7148438-1.2568359-1.1171875-2.0888672-.9628906.3378906-1.8349609.5058594-2.6171875.5058594-.8925781,0-1.3398438-.3027344-1.3398438-.9091797,0-.2080078.0673828-.4296875.2021484-.6660156.0644531-.1152344.125-.1738281.1796875-.1738281.1064453,0,.1601562.0371094.1601562.1113281,0,.0419922-.0136719.1044922-.0419922.1875-.0273438.1162109-.0410156.2519531-.0410156.4091797,0,.2783203.2402344.4169922.7216797.4169922.7402344,0,1.5703125-.1552734,2.4912109-.4648438-.0830078-.1943359-.3349609-.8583984-.7568359-1.9921875-1.0224609.3427734-1.8320312.5136719-2.4287109.5136719-.6708984,0-1.2080078-.1806641-1.6103516-.5419922-.0742188-.0732422-.1113281-.1455078-.1113281-.2148438,0-.1015625.0419922-.1523438.125-.1523438.0322266,0,.0947266.0185547.1875.0556641.3652344.1708984.75.2568359,1.1523438.2568359.6621094,0,1.4902344-.1806641,2.484375-.5419922-.0556641-.1806641-.140625-.4394531-.2568359-.7773438-.1064453-.3144531-.1845703-.5507812-.2353516-.7080078-.1210938-.3417969-.4003906-.5136719-.8398438-.5136719-.0693359,0-.1230469-.0019531-.1601562-.0068359h-.0273438c-.0830078,0-.125-.0390625-.125-.1181641,0-.0595703.0371094-.1201172.1113281-.1796875.1523438-.1201172.3232422-.1806641.5136719-.1806641.3789062,0,.7304688.0625,1.0546875.1875.2910156.1064453.4375.2333984.4375.3818359,0,.078125-.0253906.1826172-.0771484.3125-.0224609.0595703-.0341797.1220703-.0341797.1865234,0,.0693359.015625.2060547.0488281.4101562.0507812.3144531.0986328.578125.1455078.7910156.3378906-.125.6455078-.2617188.9228516-.4091797.1992188-.1064453.3378906-.1923828.4169922-.2568359.1337891-.1201172.3046875-.2197266.5126953-.2988281.1621094-.0644531.2939453-.0966797.3964844-.0966797.1152344,0,.2099609.0390625.2841797.1171875.0556641.0654297.0830078.1396484.0830078.2226562,0,.1894531-.0761719.3212891-.2285156.3955078-.6435547.3515625-1.3818359.6777344-2.2138672.9785156Z"/>
        <path class="cls-2" d="m90.6992188,34.6757812v-5.9755859h-3.2548828c-.3837891,0-.7675781.0322266-1.1523438.0976562l-.1386719-.5341797c.3984375.0546875.828125.0830078,1.2910156.0830078h3.2548828v-1.8046875c0-1.7353516-.0273438-2.8574219-.0830078-3.3662109.6660156.0605469,1.1064453.1269531,1.3193359.2011719.1523438.0507812.2285156.1201172.2285156.2080078,0,.1210938-.1757812.2480469-.5273438.3818359v4.3798828h3.0673828c.4443359-.5234375.7060547-.7841797.7841797-.7841797.0791016,0,.3544922.1943359.8261719.5830078.2363281.1943359.3544922.3378906.3544922.4296875,0,.0839844-.0625.125-.1875.125h-4.8447266v5.9755859h4.0527344c.4677734-.5595703.7333984-.8398438.7988281-.8398438.0878906,0,.3818359.2041016.8808594.6113281.2451172.203125.3681641.3535156.3681641.4511719,0,.0878906-.0625.1318359-.1875.1318359h-11.2294922c-.4492188,0-.8564453.0273438-1.2216797.0830078l-.1386719-.5341797c.4902344.0644531.9433594.0966797,1.3603516.0966797h4.3789062Z"/>
        <path class="cls-2" d="m101.0625,32.4277344v-4.7890625h-.9853516c-.2773438,0-.5527344.0273438-.8261719.0830078l-.1386719-.5410156c.3564453.0693359.6728516.1035156.9511719.1035156h.9990234v-1.1376953c0-1.4990234-.0205078-2.4384766-.0625-2.8183594.6015625.0654297.9970703.1298828,1.1865234.1943359.1347656.046875.2011719.1113281.2011719.1943359,0,.1025391-.1611328.2246094-.4853516.3681641v3.1992188h.6523438c.3007812-.4160156.4902344-.6240234.5693359-.6240234.1113281,0,.328125.1621094.6523438.4853516.1621094.1572266.2431641.2802734.2431641.3681641,0,.0830078-.0585938.125-.1738281.125h-1.9433594v4.5039062c.625-.2216797,1.2402344-.4667969,1.8457031-.7353516h.0146484c.0595703,0,.0898438.0390625.0898438.1181641,0,.0322266-.0117188.0556641-.0341797.0693359-1.1708984.8232422-2.4091797,1.4941406-3.7138672,2.0126953-.0322266.3701172-.1103516.5556641-.2353516.5556641-.1621094,0-.3955078-.4257812-.7011719-1.2773438.3417969-.0458984.6640625-.1083984.9648438-.1875.3515625-.0976562.6611328-.1875.9296875-.2705078Zm7.0585938-5.2060547l1.9433594-.7070312c.2080078-.3515625.3564453-.5283203.4443359-.5283203.0966797,0,.3144531.1367188.6523438.4101562.1337891.1064453.2011719.2011719.2011719.2841797,0,.0976562-.1162109.2177734-.3466797.3613281-.0283203,1.8876953-.1181641,3.2041016-.2714844,3.9492188-.1015625.4951172-.2382812.828125-.4091797.9990234-.2265625.2265625-.4833984.3398438-.7705078.3398438-.0966797,0-.1591797-.0117188-.1875-.0341797-.0224609-.0185547-.0410156-.0654297-.0556641-.1386719-.0224609-.2041016-.0996094-.3544922-.2285156-.4511719-.1162109-.0927734-.3466797-.2011719-.6943359-.3261719-.0322266-.0146484-.0488281-.0439453-.0488281-.0908203,0-.0742188.0253906-.1064453.0771484-.0966797.4619141.0556641.8320312.0830078,1.1103516.0830078.203125,0,.3378906-.1806641.4023438-.5410156.1298828-.7314453.2109375-2.0292969.2431641-3.8935547l-2.0615234.7558594.0419922,5.1845703c0,.2822266-.1904297.4238281-.5693359.4238281-.2451172,0-.3681641-.1132812-.3681641-.3408203l.0556641-4.9550781-1.8603516.6806641v5.2324219c0,.2363281.0390625.4023438.1181641.5.1894531.2216797.9414062.3330078,2.2558594.3330078,1.0732422,0,1.8085938-.0234375,2.2070312-.0693359.3144531-.0322266.5292969-.0947266.6455078-.1875.3007812-.2451172.5712891-.84375.8115234-1.7978516.0048828-.0322266.0302734-.0478516.0771484-.0478516.0732422,0,.1103516.0253906.1103516.0761719-.0371094.5732422-.0556641,1.015625-.0556641,1.3251953,0,.1806641.0742188.296875.2226562.3476562.1621094.0595703.2431641.1777344.2431641.3535156,0,.2548828-.2041016.4492188-.6113281.5830078-.5546875.1708984-1.7929688.2568359-3.7128906.2568359-1.4208984,0-2.3251953-.1201172-2.7138672-.3613281-.3095703-.1943359-.4648438-.5800781-.4648438-1.1582031l.0273438-5.0742188-.7148438.2568359c-.3564453.1347656-.6494141.2666016-.8808594.3955078l-.3261719-.4365234c.4160156-.0839844.7724609-.1787109,1.0683594-.2851562l.8535156-.3125c0-2.1142578-.0273438-3.4023438-.0830078-3.8652344.9296875.0966797,1.3955078.2246094,1.3955078.3818359,0,.1103516-.1582031.2333984-.4726562.3671875v2.8183594l1.8603516-.6875v-.5068359c0-2.2021484-.0234375-3.5068359-.0693359-3.9140625.6103516.0830078.9990234.1523438,1.1660156.2080078.1337891.046875.2011719.1113281.2011719.1943359,0,.0976562-.1523438.2158203-.4580078.3544922v3.3515625Z"/>
        <path class="cls-2" d="m118.5664062,25.6328125l-.2431641,2.7832031c-.0136719.1894531-.0322266.4345703-.0556641.7353516.4951172-.5693359,1.1542969-.8535156,1.9785156-.8535156.9296875,0,1.65625.3105469,2.1787109.9296875.4492188.5371094.6738281,1.2265625.6738281,2.0683594,0,1.0742188-.3330078,1.9208984-1,2.5400391-.5683594.5283203-1.2792969.7919922-2.1308594.7919922-.6660156,0-1.2949219-.1621094-1.8876953-.4863281-.6337891-.3417969-.9501953-.7265625-.9501953-1.1523438,0-.1572266.0878906-.2929688.2636719-.4091797.1572266-.1064453.3447266-.1591797.5615234-.1591797.1347656,0,.2431641.0546875.3261719.1660156.0878906.1064453.1972656.3125.3261719.6181641l.0703125.1728516c.2304688.5371094.6630859.8056641,1.2978516.8056641.6191406,0,1.0957031-.2705078,1.4296875-.8125.3046875-.4990234.4580078-1.1865234.4580078-2.0605469,0-.8144531-.2089844-1.4560547-.625-1.9228516-.3378906-.3837891-.75-.5761719-1.2353516-.5761719-.7539062,0-1.3369141.3427734-1.7490234,1.0273438-.0507812.0742188-.1181641.1113281-.2011719.1113281-.2636719,0-.3955078-.0771484-.3955078-.2294922,0-.0185547.0087891-.0712891.0273438-.1591797s.0322266-.1992188.0419922-.3339844l.3818359-4.3925781c0-.0654297.0302734-.1279297.0898438-.1875.0556641-.0556641.1064453-.0839844.1533203-.0839844.3789062.0097656,1.0800781.0146484,2.1025391.0146484.7539062,0,1.5126953-.0234375,2.2763672-.0693359.0830078,0,.125.0410156.125.125l-.3398438.9296875c-.0283203.0644531-.0791016.0966797-.1533203.0966797-.7910156-.0185547-1.3320312-.0273438-1.6240234-.0273438h-2.171875Z"/>
        <path class="cls-2" d="m127.4990234,26.5556641v1.2636719c.5322266.2636719.9433594.5761719,1.2353516.9365234.2353516.2919922.3535156.5673828.3535156.8261719,0,.3427734-.1455078.5136719-.4365234.5136719-.1669922,0-.2802734-.1318359-.3408203-.3955078-.1386719-.6806641-.4091797-1.2167969-.8115234-1.6103516v.3535156l.0410156,7.1142578c0,.2548828-.1845703.3818359-.5546875.3818359-.2451172,0-.3681641-.1083984-.3681641-.3261719,0-.0556641.0068359-.3310547.0214844-.8261719.0458984-1.6376953.0849609-3.6708984.1171875-6.1005859-.578125,1.4667969-1.3232422,2.7480469-2.234375,3.8447266-.0136719.0146484-.0302734.0214844-.0488281.0214844-.0878906,0-.1318359-.0400391-.1318359-.1181641,0-.0136719.0019531-.0234375.0068359-.0283203,1.0595703-1.7119141,1.8115234-3.6621094,2.2558594-5.8505859h-.9091797c-.2216797,0-.5117188.0322266-.8671875.0976562l-.1464844-.5556641c.375.0693359.7080078.1044922,1,.1044922h1.0058594v-1.5068359c0-.7255859-.0234375-1.2861328-.0693359-1.6787109.9306641.1015625,1.3955078.2236328,1.3955078.3671875,0,.1210938-.171875.2548828-.5136719.4023438v2.4160156h.4716797c.2734375-.3886719.4462891-.5830078.5205078-.5830078.0556641,0,.2548828.1552734.5966797.4648438.1435547.1435547.2158203.2587891.2158203.3466797,0,.0839844-.0605469.125-.1806641.125h-1.6240234Zm5.1289062,5.0732422c-1.0644531,1.4716797-2.5703125,2.6259766-4.5185547,3.4638672-.0087891.0048828-.015625.0068359-.0205078.0068359-.0605469,0-.0908203-.0439453-.0908203-.1318359,0-.0283203.0097656-.0458984.0283203-.0556641,1.8085938-1.0830078,3.1787109-2.3994141,4.1083984-3.9492188h-1.6650391v.1738281c0,.2353516-.1669922.3535156-.5.3535156-.2451172,0-.3681641-.0947266-.3681641-.2841797l.0556641-2.7558594c0-1.0820312-.0185547-1.8574219-.0556641-2.3242188.3701172.1708984.6875.3369141.9511719.4990234h2.0195312v-1.3535156h-2.4287109c-.3613281,0-.6875.0283203-.9794922.0839844l-.1455078-.5351562c.4121094.0654297.7871094.0976562,1.125.0976562h2.4287109c0-.8701172-.0273438-1.5087891-.0830078-1.9160156.8974609.0976562,1.3466797.2158203,1.3466797.3544922,0,.1201172-.1513672.2519531-.4511719.3955078v1.1660156h2.5673828c.3886719-.4628906.6201172-.6943359.6943359-.6943359.0693359,0,.3212891.1855469.7568359.5556641.1982422.1621094.2978516.2792969.2978516.3535156,0,.0927734-.0625.1386719-.1875.1386719h-4.1289062v1.3535156h2.2275391c.25-.2958984.4042969-.4443359.4648438-.4443359.0693359,0,.25.1181641.5410156.3544922.171875.1484375.2568359.2636719.2568359.3466797s-.1220703.2011719-.3671875.3544922v1.1376953l.0693359,2.7626953c0,.2353516-.1757812.3535156-.5273438.3535156-.2363281,0-.3544922-.0849609-.3544922-.2568359v-.2705078h-2.171875c.5498047.7910156,1.2070312,1.4648438,1.9707031,2.0195312.7128906.5097656,1.5273438.8886719,2.4433594,1.1386719.0322266.0048828.0488281.0234375.0488281.0556641,0,.0410156-.0214844.0693359-.0625.0830078-.171875.0693359-.2919922.1455078-.3613281.2294922-.0693359.078125-.1337891.2011719-.1943359.3671875-.0507812.1162109-.1152344.1738281-.1943359.1738281-.0742188,0-.2216797-.0673828-.4443359-.2011719-.5546875-.3242188-1.1123047-.7587891-1.6728516-1.3046875-.6376953-.6386719-1.21875-1.4345703-1.7421875-2.3876953.0097656.6201172.0332031,1.3251953.0703125,2.1162109.0039062.5234375.015625,1.0644531.0341797,1.625.0136719.4160156.0205078.6474609.0205078.6933594,0,.2636719-.1845703.3955078-.5546875.3955078-.2548828,0-.3818359-.1083984-.3818359-.3261719,0-.0458984.0087891-.3164062.0273438-.8115234.0185547-.4902344.0322266-.9648438.0419922-1.4228516.0185547-.3476562.0371094-.9394531.0556641-1.7773438Zm-.0556641-4.6494141h-2.1025391v1.5820312h2.1025391v-1.5820312Zm0,3.6298828v-1.6933594h-2.1025391v1.6933594h2.1025391Zm.8125-3.6298828v1.5820312h2.3105469v-1.5820312h-2.3105469Zm0,3.6298828h2.3105469v-1.6933594h-2.3105469v1.6933594Z"/>
      </g>
    </g>
  </g>
</svg>