<?xml version="1.0" encoding="UTF-8"?>
<svg id="_レイヤー_2" data-name="レイヤー 2" xmlns="http://www.w3.org/2000/svg" viewBox="0 0 115.9447271 298">
  <defs>
    <style>
      .cls-1 {
        stroke-width: 0px;
      }
    </style>
  </defs>
  <g id="concept">
    <g>
      <g>
        <path class="cls-1" d="m9.7827148,4.7726308v3.0371094l-7.6181641,2.8398438,7.6181641,2.7734375v2.9306641h-.5791016v-.2480469c0-.2988281-.0258789-.5-.0766602-.6025391-.0507812-.1035156-.1401367-.1855469-.2670898-.2451172-.1274414-.0595703-.3369141-.0898438-.628418-.0898438H1.8891602c-.3999023,0-.659668.0244141-.7792969.0722656-.1196289.0488281-.2099609.1289062-.2719727.2412109-.0620117.1132812-.0932617.3212891-.0932617.6240234v.2480469H.1655273v-3.6738281h.5791016v.2617188c0,.234375.0180664.4052734.0551758.5136719.0366211.1074219.0976562.1972656.1826172.2685547s.1733398.1113281.265625.1210938c.1879883.0224609.3354492.0341797.440918.0341797h7.0800781L.1655273,10.7384511v-.6894531l8.4794922-3.1601562H1.8339844c-.347168,0-.5820312.0292969-.7045898.0898438-.1225586.0595703-.2172852.1523438-.2841797.2792969-.0668945.1259766-.1005859.3525391-.1005859.6787109v.2207031H.1655273v-3.3847656h.5791016v.1923828c0,.3261719.034668.5595703.1035156.7001953.0688477.1396484.1665039.2402344.2929688.2998047s.3754883.0898438.7480469.0898438h6.2802734c.3515625,0,.5839844-.0253906.6972656-.0761719s.1977539-.1347656.253418-.2519531.0834961-.3251953.0834961-.6230469v-.3310547h.5791016Z"/>
        <path class="cls-1" d="m9.7827148,28.9523183v3.6816406h-.5791016v-.2832031c0-.2666016-.0371094-.4599609-.1113281-.5791016-.0737305-.1191406-.1787109-.2070312-.3154297-.2617188-.1362305-.0556641-.4008789-.0830078-.793457-.0830078H1.7856445c-.3125,0-.5341797.0302734-.6655273.0898438-.1308594.0595703-.2260742.1435547-.2856445.2519531-.0600586.1074219-.0898438.3017578-.0898438.5820312v.2832031H.1655273v-3.6816406h.5791016v.3027344c0,.2714844.03125.4628906.0932617.5761719.0620117.1123047.1513672.1943359.2685547.2441406.1171875.0507812.34375.0761719.6791992.0761719h6.3422852c.355957,0,.5957031-.0253906.7182617-.0761719.1225586-.0498047.2128906-.1318359.2705078-.2441406.0576172-.1132812.0869141-.3046875.0869141-.5761719v-.3027344h.5791016Z"/>
        <path class="cls-1" d="m9.7827148,51.6290761v.4970703l-2.9643555.7363281-.1933594-.640625c.8320312-.4042969,1.4868164-.9414062,1.9648438-1.6113281.3999023-.5507812.5996094-1.1611328.5996094-1.8320312,0-.4033203-.0722656-.7666016-.2167969-1.0878906s-.3310547-.5625-.5605469-.7226562c-.2294922-.1611328-.4633789-.2412109-.7021484-.2412109-.2158203,0-.4243164.0625-.6264648.1865234-.2016602.1240234-.3793945.3125-.5332031.5654297s-.3154297.6669922-.4853516,1.2421875l-.5322266,1.7988281c-.0644531.2207031-.1884766.5410156-.3725586.9609375-.184082.4208984-.378418.7480469-.5830078.9824219s-.4550781.4179688-.7519531.5507812c-.2963867.1337891-.6171875.2001953-.9624023.2001953-.7631836,0-1.4311523-.3339844-2.0039062-1.0029297s-.8588867-1.5341797-.8588867-2.5957031c0-.546875.0795898-1.0361328.237793-1.4677734.1586914-.4326172.4399414-.8994141.8447266-1.4003906l-.9169922-.3164062v-.484375l3.4536133-.6396484.1313477.6416016c-.6391602.234375-1.1811523.5449219-1.6269531.9335938s-.7827148.8183594-1.0102539,1.2890625c-.2275391.4716797-.3413086.9501953-.3413086,1.4375,0,.6621094.2001953,1.2412109.6000977,1.7373047.3354492.4140625.7304688.6201172,1.1855469.6201172.418457,0,.7607422-.1494141,1.0273438-.4472656.2666016-.3037109.5146484-.8457031.7446289-1.6269531l.4960938-1.7236328c.2802734-.9658203.6386719-1.6455078,1.0756836-2.0410156.4365234-.3955078.9375-.5927734,1.5029297-.5927734.440918,0,.8486328.1289062,1.2236328.3857422.3745117.2578125.6879883.6533203.940918,1.1865234.2524414.5322266.3789062,1.1162109.3789062,1.7509766,0,.5332031-.0917969,1.0429688-.2753906,1.5302734-.1289062.3447266-.3125.6621094-.5517578.9511719l.6621094.2900391Z"/>
        <path class="cls-1" d="m9.7827148,65.6398183v3.7158203h-.5791016v-.2490234c0-.3027344-.0302734-.5185547-.090332-.6474609-.0463867-.1015625-.125-.1767578-.2363281-.2275391-.1108398-.0507812-.3330078-.0761719-.6660156-.0761719H3.8774414c-.7729492,0-1.3457031.09375-1.7182617.2792969-.3725586.1865234-.6855469.4960938-.9384766.9306641s-.3793945.9111328-.3793945,1.4306641c0,.5244141.1352539,1.0205078.4067383,1.4892578s.59375.796875.9663086.9853516.9614258.2832031,1.7666016.2832031h4.1674805c.3056641,0,.5253906-.0302734.659668-.0898438.1337891-.0595703.2333984-.1503906.2983398-.2724609.0644531-.1220703.097168-.3115234.097168-.5683594v-.2695312h.5791016v3.2197266h-.5791016v-.2207031c0-.3632812-.0698242-.6123047-.2084961-.7480469s-.4003906-.203125-.7841797-.203125H3.777832c-.809082,0-1.4833984-.1513672-2.0234375-.4550781-.5400391-.3027344-.9672852-.7441406-1.2822266-1.3232422-.3144531-.5791016-.472168-1.2529297-.472168-2.0205078,0-.7255859.1611328-1.3896484.4824219-1.9921875.3217773-.6015625.7226562-1.0439453,1.203125-1.3271484.4804688-.2822266,1.0834961-.4238281,1.8095703-.4238281h4.7158203c.3051758,0,.5195312-.0273438.6420898-.0830078.1225586-.0546875.2114258-.1347656.2670898-.2412109.0556641-.1054688.0834961-.2890625.0834961-.5507812v-.3447266h.5791016Z"/>
        <path class="cls-1" d="m9.7827148,95.6525136v.5029297l-2.9643555.7851562-.2138672-.6201172c.9375-.4140625,1.6064453-.8896484,2.0058594-1.4277344.3999023-.5371094.6000977-1.1464844.6000977-1.8261719,0-.9794922-.4067383-1.7998047-1.2202148-2.4609375-.8134766-.6621094-1.7832031-.9931641-2.9091797-.9931641-.809082,0-1.5512695.1689453-2.2270508.5068359-.675293.3388672-1.1904297.7910156-1.5439453,1.3564453-.3540039.5664062-.5307617,1.1660156-.5307617,1.8017578,0,.4091797.0742188.7988281.2236328,1.1699219.1494141.3701172.3276367.6699219.534668.9003906.15625.1699219.328125.2851562.5170898.3447266.1879883.0595703.4501953.0878906.7856445.0830078h.4550781c.362793,0,.6206055-.0429688.7719727-.1279297.1518555-.0849609.2597656-.2050781.3242188-.3613281.050293-.1201172.0756836-.4414062.0756836-.9648438h.5791016v3.8945312h-.5791016v-.3173828c0-.2705078-.0263672-.4560547-.0791016-.5546875-.0532227-.0986328-.1347656-.1708984-.2451172-.2167969-.1098633-.0458984-.3261719-.0693359-.6479492-.0693359H.1655273v-.6826172l.8408203-.3652344c-.2802734-.3857422-.4985352-.796875-.6547852-1.234375-.234375-.6523438-.3515625-1.2978516-.3515625-1.9365234,0-1.2919922.4746094-2.3984375,1.4238281-3.3193359.9487305-.921875,2.1313477-1.3828125,3.546875-1.3828125,1.40625,0,2.5874023.4667969,3.543457,1.3994141.9555664.9335938,1.4335938,2.0498047,1.4335938,3.3505859,0,.3261719-.0322266.6484375-.0961914.9648438-.0644531.3173828-.15625.6074219-.2758789.8691406-.0874023.1972656-.2299805.4277344-.4272461.6894531l.6342773.2421875Z"/>
        <path class="cls-1" d="m9.7827148,110.5519276v3.6816406h-.5791016v-.2832031c0-.2666016-.0371094-.4599609-.1113281-.5791016-.0737305-.1191406-.1787109-.2070312-.3154297-.2617188-.1362305-.0556641-.4008789-.0830078-.793457-.0830078H1.7856445c-.3125,0-.5341797.0302734-.6655273.0898438-.1308594.0595703-.2260742.1435547-.2856445.2519531-.0600586.1074219-.0898438.3017578-.0898438.5820312v.2832031H.1655273v-3.6816406h.5791016v.3027344c0,.2714844.03125.4628906.0932617.5761719.0620117.1123047.1513672.1943359.2685547.2441406.1171875.0507812.34375.0761719.6791992.0761719h6.3422852c.355957,0,.5957031-.0253906.7182617-.0761719.1225586-.0498047.2128906-.1318359.2705078-.2441406.0576172-.1132812.0869141-.3046875.0869141-.5761719v-.3027344h.5791016Z"/>
        <path class="cls-1" d="m9.2036133,126.7550526h.5791016v3.4326172c0,1.5722656-.0991211,2.6679688-.296875,3.2890625-.2890625.9140625-.8295898,1.65625-1.6196289,2.2265625-.8735352.6298828-1.8779297.9443359-3.0126953.9443359-.7724609,0-1.4902344-.1552734-2.1542969-.4658203-.6645508-.3095703-1.1987305-.7177734-1.6030273-1.2236328-.340332-.4179688-.5800781-.9208984-.7202148-1.5097656-.140625-.5878906-.2104492-1.1806641-.2104492-1.7783203v-4.9150391h.5791016v.3994141l-.0068359.1308594c0,.1699219.0341797.3095703.1035156.4169922.0688477.1083984.1606445.1855469.2753906.2314453.0874023.0322266.2895508.0478516.6069336.0478516h6.4321289c.3652344,0,.6010742-.0224609.7075195-.0683594.1435547-.0644531.2426758-.1679688.2983398-.3105469.027832-.0830078.0419922-.3652344.0419922-.8476562Zm-8.300293,2.5019531v2.0849609c0,.2070312.0366211.5507812.1103516,1.03125.0732422.4814453.1630859.8251953.269043,1.0322266.15625.3037109.4082031.5976562.7553711.8837891.347168.2851562.7636719.5048828,1.2490234.6582031.4853516.1542969,1.0405273.2314453,1.6660156.2314453.6210938,0,1.1591797-.0771484,1.6147461-.2314453.4555664-.1533203.8647461-.3857422,1.2280273-.6962891.3637695-.3105469.640625-.65625.831543-1.0351562.190918-.3798828.3115234-.8046875.3623047-1.2734375.0229492-.2539062.034668-.6767578.034668-1.2705078v-1.4150391H.9033203Z"/>
        <path class="cls-1" d="m9.7827148,152.9161855v1.1269531l-8.0400391,2.9931641c-.4038086.1474609-.6708984.2958984-.8017578.4453125-.1308594.1484375-.1962891.3496094-.1962891.6025391v.1523438H.1655273v-3.4228516h.5791016c.0092773.1103516.0136719.2177734.0136719.3242188,0,.2207031.0229492.3652344.0688477.4345703.0874023.1328125.1977539.1992188.3310547.1992188.0966797,0,.3330078-.0644531.7099609-.1923828l1.8613281-.6367188v-3.484375l-2.081543-.75c-.2163086-.078125-.3657227-.1171875-.4482422-.1171875-.0922852,0-.1723633.0244141-.2412109.0722656-.0693359.0488281-.1206055.1142578-.1552734.1962891-.034668.0830078-.0517578.2167969-.0517578.4003906,0,.1240234-.0024414.2246094-.0068359.3027344H.1655273v-2.8740234h.5791016c0,.265625.0263672.4580078.0791016.5751953s.1381836.2197266.2553711.3066406.3642578.2021484.7407227.3447266l7.9628906,3.0009766Zm-5.3774414-1.2148438v2.9707031l4.1362305-1.4804688-4.1362305-1.4902344Z"/>
        <path class="cls-1" d="m9.7827148,170.1300526v3.6816406h-.5791016v-.2832031c0-.2666016-.0371094-.4599609-.1113281-.5791016-.0737305-.1191406-.1787109-.2070312-.3154297-.2617188-.1362305-.0556641-.4008789-.0830078-.793457-.0830078H1.7856445c-.3125,0-.5341797.0302734-.6655273.0898438-.1308594.0595703-.2260742.1435547-.2856445.2519531-.0600586.1074219-.0898438.3017578-.0898438.5820312v.2832031H.1655273v-3.6816406h.5791016v.3027344c0,.2714844.03125.4628906.0932617.5761719.0620117.1123047.1513672.1943359.2685547.2441406.1171875.0507812.34375.0761719.6791992.0761719h6.3422852c.355957,0,.5957031-.0253906.7182617-.0761719.1225586-.0498047.2128906-.1318359.2705078-.2441406.0576172-.1132812.0869141-.3046875.0869141-.5761719v-.3027344h.5791016Z"/>
      </g>
      <g>
        <path class="cls-1" d="m40.324768,71.480973c5.4532501-.8965432,13.6373489-3.0731971,17.5627404-4.9878293,11.4743583-5.5966776,14.5185748-12.7622804,16.3450945-17.5861997,5.4640383,8.901542,10.1645544,12.7625603,16.3291157,16.186884,4.5048012,2.5809075,9.0356062,4.4517506,13.5935853,5.6113079,1.8177161.474199,2.2675652.4992104,3.0850795.4992104.6840862,0,.9260073-.5082939,1.4620605-.9879124,1.7226575-1.5411149,3.2634416-2.3836405,4.2649665-2.5145242.1580578-.0531015.2370868-.1975977.2370868-.4346845,0-.2642609-.0790289-.3951701-.2370868-.3951701-7.0610535-.1839852-13.5281434-1.5547019-19.4024909-4.1096821-3.2675126-1.4485243-6.0336267-3.0032263-8.298393-4.66291-3.0304258-2.2919405-6.8634558-5.4806532-9.3659705-9.0902089l-.26421-.444913h29.4970745c2.1338827,0,3.9121098.1580578,5.3347321.474199l.7112603-3.0427662c-1.817767.3692427-3.8330808.5532279-6.0459924.5532279h-30.5342209c.2090475-1.1073463,1.2127098-6.5358649,1.36059-9.4604693h26.164578c2.0289009,0,3.8861569.1580578,5.571768.474199l.7112603-3.0427662c-1.8177161.3692427-3.9120589.5532279-6.2830283.5532279h-25.9278983c-.2053836-1.379444-.311434-2.8650401-.3241051-4.4509109,2.3636925-.7230663,4.5045468-1.4810417,6.4679041-2.2427574,4.3847058-1.7017171,7.8649298-3.0725865,10.8644667-3.1819192,1.9698709.0174037,3.6286132.1730952,4.967983.4707386l.7113112-3.0427662c-1.817767.3692427-3.8330808.5532279-6.0459924.5532279h-16.9722371v-2.0244482c4.775932-1.385576,8.6924181-2.928192,12.0604343-4.2552215,3.8481437-1.5162816,6.8115501-2.6905709,9.4659652-3.0066357h1.2546923c2.2919914,0,4.1232946.1580578,5.49279.474199l.7112603-3.0427662c-1.6330948.3692427-3.7009249.5532279-6.2040503.5532279h-48.3610695c-2.5031253,0-4.5709046-.1839852-6.2040503-.5532279l.7112603,3.0427662c1.3694954-.3161411,3.2008495-.474199,5.49279-.474199h23.3109876c.168439,1.1786657.2536762,2.5445735.2536762,4.102227v2.3902814c-4.3231823,1.1675467-9.3267868,2.1821753-15.2221001,2.7937971h-3.7982226c-2.2129116,0-4.2281746-.1839852-6.0459415-.5532279l.7112603,3.0427662c1.4226224-.3161411,3.2008495-.474199,5.3346812-.474199h19.0203227v4.9481367c-6.2569737,2.1034517-14.0368698,4.1192999-24.102091,4.9309111h-2.939998c-2.3709694,0-4.4653122-.1839852-6.2830792-.5532279l.7112603,3.0427662c1.6856111-.3161411,3.542918-.474199,5.5718189-.474199h26.764292c-.0775532.9440725-.1746982,2.15121-.2767284,3.716115-.1324103,2.029766-.5089809,3.949665-1.0531762,5.7443543h-25.3275228c-2.2129116,0-4.2282763-.1839852-6.0459924-.5532279l.7113112,3.0427662c1.4225206-.3161411,3.2007477-.474199,5.3346812-.474199h24.6267963c-2.1420247,5.4806786-5.7371028,9.5828293-8.2451643,11.7467104-4.0960695,3.5338345-11.4617381,7.4412625-23.0794985,10.5506919-.1846213.0790289-.3220696.2284613-.2766267.4346845.0561294.2547958.041321.2363998.3840002.184545Zm35.5410314-53.4862452c0-1.4557758.0877308-2.8174345.2473152-4.102227h16.1314161c-1.4850109.5131791-3.069406,1.1370394-4.7880942,1.8142303-3.2516356,1.2811285-7.0216154,2.7651472-11.5906372,4.1098347v-1.821838Zm-2.8185795,5.1840785h-5.6042854c2.2891417-.4401804,4.4209379-.9349127,6.407551-1.4635871v1.4635871h-.8032656Zm2.8185795,2.0153393h11.3748216c-1.6504475.5513705-3.4280131,1.2390951-5.3634329,1.9899971-1.8328807.7112349-3.8257021,1.4835606-6.0113886,2.2608226v-4.2508197Zm-2.0263565,6.0248739c-.0332807,1.4708132-.1487454,2.7565726-.3478697,3.8541739h-22.3621826c9.376606-.7411061,16.7265502-2.1712853,22.7100523-3.8541739Z"/>
        <path class="cls-1" d="m61.0128401,3.8259056c1.9052433-.1190523,4.4859727.4673291,7.9117976,1.1849758,1.3384538.2803924,3.2465977.8542553,5.3876555,1.5657701l.3453253.114167.3454271-.114167c2.141007-.7115147,4.0491509-1.2853777,5.3876047-1.5657701,3.4258249-.7176467,6.0066052-1.3040281,7.9117467-1.1849758,1.6075999.1005036,3.8179162.1005036,3.8179162.1005036l.6656138-3.9264093s-10.6605589,3.8005889-18.1283086,4.5159202c-7.4676988-.7153313-18.1282068-4.5159202-18.1282068-4.5159202l.665563,3.9264093s2.2103163,0,3.8178653-.1005036Z"/>
        <path class="cls-1" d="m55.7049259,176.8827064c0,2.1338827-.2530147,3.9121098-.759044,5.3347067l4.8708379.7112857c-.5910631-1.8177415-.8856023-3.8330808-.8856023-6.0459924l.0031551-36.1877404c4.7625994,4.8604823,8.8314948,10.6856212,12.0109713,16.0821312.0816751.1132002.2101671.1519004.3871552.1165588.5900962-.1176783.7985331-.4016074.6267864-.8520163-3.1547959-6.5756592-6.8658475-11.8207777-10.9937729-16.6528645-.6787938-.7934952-1.3528042-1.5545493-2.0308347-2.2933654l.0004071-4.2918353h5.9211644c2.1338827,0,3.9121098.1580833,5.3346812.474199l.7112603-3.0427407c-1.8177161.3692172-3.8330808.5532279-6.0459415.5532279h-5.9210117l.0010686-12.1237135c0-2.1338572.2530147-3.9120843.759044-5.3346812l-4.8708379-.7112857c.5910631,1.8177415.8856023,3.8330808.8856023,6.045967l-.0010178,12.1237135h-9.7206592c-2.2129116,0-4.2282254-.1840107-6.0459924-.5532279l.7112603,3.0427407c1.4226224-.3161157,3.2008495-.474199,5.3347321-.474199h8.6501811c-2.3614534,13.5303316-8.6388331,29.9232098-16.4311968,41.7419775-.053127.0954657-.0790798.1760213-.0790798.2386897,0,.446058.2371377.6683363.7113112.6683363.1049818,0,.1881835-.0266653.2371377-.0954657,8.2193132-11.554405,12.8033978-21.6956782,16.6314916-35.2790859l-.0032568,36.8046799Z"/>
        <path class="cls-1" d="m115.0543742,154.4606288c-2.0011161,2.9260293-4.5930917,5.8230525-7.7773009,8.6909933-8.4954819,7.6181489-18.5273715,13.3245918-30.0852878,17.1327121,21.1055057-10.3051068,28.0235642-29.9917049,31.7523757-39.9163483.1934249-.1850284.3886818-.3701332.5770689-.5549072.4552941-1.8571542-.5781884-3.4239675-1.412343-4.4634039-1.5279603,2.9400744-4.6893208,6.1013839-6.656342,7.8576529-3.2149454,2.8705106-6.9285414,5.4515708-10.8772905,7.6881707,8.8468629-9.5818115,14.8749428-28.1473745,15.5309897-30.226171.06763-.0714466.1355654-.1382879.2031445-.2101671.379522-1.8741253-.7444901-3.9348058-1.6201692-4.9395366-.7384853,1.6596837-2.426539,4.5619992-4.7444324,6.90582-7.4290749,7.5871073-15.211261,12.1286496-23.6683225,15.4208428-.1056433.0531015-.1581087.1580833-.1581087.3161411,0,.5273005.1975977.7508002.5927424.6717713,5.8743475-1.7115385,11.1170234-3.9775516,15.7280786-6.7967926,3.9221856-2.4016294,7.7979105-5.5044179,11.6284978-9.2892824-2.3696972,6.7320378-9.3091287,24.5802593-18.1297334,30.5657205-2.7798538,1.3316857-5.6218926,2.4957211-8.4477999,3.4656701-.1076788.0487761-.1643679.1515187-.1707798.3094494-.0213729.526868.1669123.7582044.5649576.6952815,5.939026-1.4717038,11.1927955-3.9450088,16.0400723-6.3353665,3.6944622-1.8218635,8.8000969-5.4827396,13.1533031-9.3596604-3.5594057,10.4072134-10.1657757,28.5518316-29.8884025,38.1959553-1.1451815.3772575-2.2999299.74248-3.4751353,1.0823349-.1594318.0489542-.2418702.1777515-.2473661.3888345-.0130782.4999737.1650295.7294527.5354935.6859945,8.6932832-1.9074569,16.0457718-4.3897691,22.0551249-7.4482596,6.9964768-3.5329694,13.1835305-8.2539679,19.7918343-15.0385474.0897663-1.417788.3714308-3.4571973-.7948691-5.4949018Z"/>
        <path class="cls-1" d="m93.3220822,267.4064692c-17.2207736,1.0313452-32.109507.1089001-38.0804398-.3740007.1138871-.4846056.2486892-.9419352.4102583-1.3642539l-5.2718856-.7157384c.6397628,1.8290895.9585246,3.8569727.9585246,6.0836749l-.0054959,20.8801994c0,2.1471644-.2738787,3.9364851-.8215853,5.3679365l5.2719364.715713c-.362729-1.037121-.6185934-2.1404981-.7753282-3.3054495,5.7532852-.3405673,19.7056811-.8476144,40.2360007.4499-.1369394.8987568-.3430863,1.7075692-.6194585,2.4252668l5.0616167.0191339c-.6397628-1.8177415-.7482558-3.1409035-.7482558-5.3538151l.0054959-20.7509187c.1269144-1.660905.9252948-2.3985252,1.7363463-3.1947175l-3.8778113-3.0090784c-1.0742438,1.2108523-2.1333229,1.8455518-3.4799187,2.1261477Zm-38.482556,25.3219251c-.0096178-.2677213-.0146557-.5382923-.0146557-.8120438l.0054959-20.8801994c0-.725229.0338913-1.4061347.0963817-2.0497141,3.9848286.3253264,12.1021115.8620412,22.3065112.8620412,5.5577738,0,11.7358713-.1614928,18.1956842-.601088.0109409.0804538.0239173.1596099.022696.2480022l-.0053941,22.7396436c0,.3236725-.0084983.6363279-.0210676.9436399-20.6847644-1.3095749-34.7779163-.7950981-40.5856515-.4502817Z"/>
        <path class="cls-1" d="m104.7672308,250.2801945c-4.2042572-3.6769567-8.1382997-6.6575633-15.5945996-10.7437606-.0278357-.0238155-.0692584-.0375807-.12437-.040176-.3084316-.0144776-.4689321.1270926-.4828754.4236418-.0032059.0684951.0221871.1158463.0775532.1409595,4.6628591,2.8745562,8.9759147,6.6135198,12.9406934,11.2169418-19.7976355,1.5484173-41.9138259,1.1283122-47.4461049.7145426-2.0426915-.1527909-4.5481577-.3683012-6.8389787-.5851601,6.2637927-3.312065,10.0160635-5.7691876,13.9469509-8.4161222,5.2316841-3.5228173,11.8022291-9.4604948,14.1436327-14.2789945.0966361-1.9260056-1.610755-3.699093-2.8286553-4.4903236-.5590037,1.7956562-2.9785202,6.6861114-6.4441903,10.7138385-5.6582266,6.575761-13.8713823,13.2583866-20.1691173,16.3410743-2.2986577-.2269092-4.2053768-.4415544-4.9209625-.571573.2447708,1.0043747,1.1600917,3.3886513,3.7655017,4.6888119,12.3417427.0768662,24.0714056-.0556205,31.3483766-.2629124,8.597563-.2364252,18.5876737-1.8751431,26.3982553-2.67533.2390714.2858883.5294887.6546729.8739489,1.1053617.5279112.688946.8319664,1.103428.9095196,1.2443875,1.6275989,2.3649647,2.3255774,3.7250967,2.3255774,3.7250967,0,0,2.2085352-1.7847407,1.984832-3.0324868-.3175405-1.7715353-.306905-2.1205246-3.8649875-5.2178172Z"/>
      </g>
    </g>
  </g>
</svg>