<?xml version="1.0" encoding="utf-8"?>
<!-- Generator: Adobe Illustrator 28.0.0, SVG Export Plug-In . SVG Version: 6.00 Build 0)  -->
<svg version="1.1" id="_レイヤー_2" xmlns="http://www.w3.org/2000/svg" xmlns:xlink="http://www.w3.org/1999/xlink" x="0px"
	 y="0px" viewBox="0 0 76.3 29.8" style="enable-background:new 0 0 76.3 29.8;" xml:space="preserve">
<style type="text/css">
	.st0{fill:#FFFFFF;}
</style>
<g id="slide">
	<g>
		<g>
			<path d="M8.9,14.7h1.4c0.5,0,1.1,0.1,1.1,0.6v5c0,0-1.6,0.6-4.6,0.6c-2.9,0-6.9-1.6-6.9-6c0-4.4,4.1-6.1,7.2-6.1
				c1.4,0,3.1,0.1,3.1,0.8V11c-1.2-0.9-1.6-1.1-3.4-1.1C5.1,9.9,2,11,2,14.7c0,3.7,4.2,5.9,7.7,4.5v-2.8C9.7,15.8,9.6,14.7,8.9,14.7
				z"/>
			<path d="M31,20.6h3.7c-1-0.4-1.5-1.6-1.8-2.5c-0.3-0.9-3-7.3-3.3-8.2C29.3,9,28.8,9,28.5,9h-2.1c1,0.3,0.5,1.1,0.3,1.6
				c-0.2,0.5-3.8,9.3-3.8,9.3c-1.2-0.3-4.4-4.8-4.4-4.8c4.2-1.2,3.5-6-0.5-6h-4.7c0.9,0.2,0.9,1.2,0.9,1.9v8c0,1.1-0.3,1.4-0.9,1.7
				h3.4c-0.9-0.4-0.7-1.4-0.7-1.8v-8.6h1.8c1,0,1.7,1.2,1.7,2c0,1.3-1,1.8-2.1,2.2c-1,0.4-0.5,1.2,0,1.9c0.5,0.7,1.8,2.6,2.7,3.5
				c0.8,0.9,1.5,0.9,1.9,0.9h3.1c-1.2-0.4-0.6-1.3-0.4-1.8c0.2-0.5,0.9-2.4,0.9-2.4h4.6c0,0,0.6,1.4,1.1,2.7
				C31.9,20.3,31.5,20.5,31,20.6z M26.2,15l1.8-4.5l1.9,4.5C29.8,15,26.2,15,26.2,15z"/>
			<path d="M68.5,20.6h3.7c-1-0.4-1.5-1.6-1.8-2.5c-0.3-0.9-3-7.3-3.3-8.2C66.8,9,66.3,9,66,9h-2.1c1,0.3,0.5,1.1,0.3,1.6
				c-0.2,0.5-3.8,9.3-3.8,9.3c-0.2,0.5-0.6,0.6-0.8,0.8h3.1c-1.2-0.4-0.6-1.3-0.4-1.8c0.2-0.5,0.9-2.4,0.9-2.4h4.6
				c0,0,0.6,1.4,1.1,2.7C69.4,20.3,69,20.5,68.5,20.6z M63.7,15l1.7-4.5l1.9,4.5C67.3,15,63.7,15,63.7,15z"/>
			<path d="M55.3,20.8c0.4-0.4,0.8-0.7,0.8-2v-8c0-0.6,0-1.3-0.8-1.6h3.3c-0.3,0.3-0.7,0.7-0.7,1.5v8c0,0.7-0.2,1.8,0.8,2H55.3z"/>
			<path d="M37.6,11.7c0,0,0,6.4,0,7.1c0,0.7,0.1,1.8,1,2h-3.1c0.4-0.4,0.8-0.7,0.8-2c0-1.3,0.1-7.3,0.1-8c0-0.6-0.1-1.3-0.9-1.6
				h2.4l7.2,8.9v-7.2c0-0.5,0.1-1.3-0.9-1.7h3.2c-0.4,0.3-1,0.4-1,1.6v10.5c0,0-0.9,0.2-2.3-1.6C42.6,18,37.6,11.7,37.6,11.7z"/>
			<path d="M58,29.7c-9.4-7.8-13-17-0.1-29.5c0.4-0.4,0.8-0.2,0.5,0.2c-5.6,6.3-11.9,16.5-0.1,28.9C58.4,29.6,58.3,30,58,29.7z"/>
		</g>
		<path class="st0" d="M74.8,20.7c-0.9,0-1.6-0.7-1.6-1.6s0.7-1.6,1.6-1.6s1.6,0.7,1.6,1.6S75.6,20.7,74.8,20.7z M74.8,17.7
			c-0.8,0-1.4,0.6-1.4,1.4s0.6,1.4,1.4,1.4s1.4-0.6,1.4-1.4S75.5,17.7,74.8,17.7z"/>
		<path class="st0" d="M75.1,19.9c0,0-0.1-0.1-0.1-0.2v-0.2c0-0.1,0-0.3-0.2-0.3h-0.4v0.7h-0.3v-1.7h0.8c0.3,0,0.5,0.2,0.5,0.5
			c0,0.1,0,0.2-0.1,0.3c-0.1,0.1-0.1,0.1-0.3,0.1c0.2,0,0.3,0.1,0.3,0.4v0.2c0,0.2,0.1,0.2,0.1,0.2L75.1,19.9L75.1,19.9z M74.9,18.5
			h-0.4V19h0.4c0.2,0,0.3-0.1,0.3-0.3C75.1,18.6,75,18.5,74.9,18.5z"/>
	</g>
</g>
</svg>
